999
dxflib 3.26.4.0
  0
SECTION
  2
HEADER
  9
$ACADVER
  1
AC1015
  9
$HANDSEED
  5
FFFF
  9
$ANGBASE
 50
0.0
  9
$ANGDIR
 70
0
  9
$ATTMODE
 70
1
  9
$AUNITS
 70
0
  9
$AUPREC
 70
2
  9
$CECOLOR
 62
256
  9
$CELTSCALE
 40
1.0
  9
$CHAMFERA
 40
0.0
  9
$CHAMFERB
 40
0.0
  9
$CHAMFERC
 40
0.0
  9
$CHAMFERD
 40
0.0
  9
$CMLJUST
 70
0
  9
$CMLSCALE
 40
20.0
  9
$DIMADEC
 70
2
  9
$DIMALT
 70
0
  9
$DIMALTD
 70
3
  9
$DIMALTF
 40
0.03937007874
  9
$DIMALTRND
 40
0.0
  9
$DIMALTTD
 70
3
  9
$DIMALTTZ
 70
0
  9
$DIMALTU
 70
2
  9
$DIMALTZ
 70
0
  9
$DIMAPOST
  1

  9
$DIMASZ
 40
0.175
  9
$DIMATFIT
 70
3
  9
$DIMAUNIT
 70
0
  9
$DIMAZIN
 70
3
  9
$DIMBLK
  1
0
  9
$DIMBLK1
  1
0
  9
$DIMBLK2
  1
0
  9
$DIMCEN
 40
2.5
  9
$DIMCLRD
 70
0
  9
$DIMCLRE
 70
0
  9
$DIMDEC
 70
2
  9
$DIMDLE
 40
0.0
  9
$DIMDLI
 40
3.75
  9
$DIMDSEP
 70
46
  9
$DIMEXE
 40
0.375
  9
$DIMEXO
 40
0.125
  9
$DIMFRAC
 70
0
  9
$DIMGAP
 40
0.1
  9
$DIMJUST
 70
0
  9
$DIMLDRBLK
  1

  9
$DIMLFAC
 40
100.0
  9
$DIMLIM
 70
0
  9
$DIMLUNIT
 70
2
  9
$DIMLWD
 70
-2
  9
$DIMLWE
 70
-2
  9
$DIMPOST
  1

  9
$DIMRND
 40
0.0
  9
$DIMSAH
 70
0
  9
$DIMSCALE
 40
1.0
  9
$DIMSD1
 70
0
  9
$DIMSD2
 70
0
  9
$DIMSE1
 70
0
  9
$DIMSE2
 70
0
  9
$DIMSOXD
 70
0
  9
$DIMTAD
 70
1
  9
$DIMTDEC
 70
2
  9
$DIMTFAC
 40
0.5
  9
$DIMTIH
 70
0
  9
$DIMTIX
 70
0
  9
$DIMTM
 40
0.0
  9
$DIMTOFL
 70
1
  9
$DIMTOH
 70
0
  9
$DIMTOL
 70
0
  9
$DIMTOLJ
 70
0
  9
$DIMTP
 40
0.0
  9
$DIMTSZ
 40
0.0
  9
$DIMTVP
 40
0.0
  9
$DIMTXSTY
  7
OpenSansCondensed-Light
  9
$DIMTXT
 40
0.25
  9
$DIMTZIN
 70
8
  9
$DIMUPT
 70
1
  9
$DIMZIN
 70
12
  9
$DISPSILH
 70
0
  9
$DWGCODEPAGE
  3
ANSI_1252
  9
$ELEVATION
 40
0.0
  9
$FILLETRAD
 40
10.0
  9
$FILLMODE
 70
1
  9
$INSUNITS
 70
2
  9
$LIMCHECK
 70
0
  9
$LTSCALE
 40
1.0
  9
$LUNITS
 70
2
  9
$LUPREC
 70
4
  9
$MAXACTVP
 70
64
  9
$MEASUREMENT
 70
1
  9
$MIRRTEXT
 70
1
  9
$ORTHOMODE
 70
0
  9
$PDMODE
 70
0
  9
$PDSIZE
 40
0.0
  9
$PELEVATION
 40
0.0
  9
$PLIMCHECK
 70
0
  9
$PLINEGEN
 70
0
  9
$PLINEWID
 40
0.0
  9
$PROXYGRAPHICS
 70
1
  9
$PSLTSCALE
 70
1
  9
$PUCSNAME
  2

  9
$QTEXTMODE
 70
0
  9
$REGENMODE
 70
1
  9
$SHADEDGE
 70
3
  9
$SHADEDIF
 70
70
  9
$SKETCHINC
 40
1.0
  9
$SKPOLY
 70
0
  9
$SPLFRAME
 70
0
  9
$SPLINESEGS
 70
8
  9
$SPLINETYPE
 70
6
  9
$SURFTAB1
 70
6
  9
$SURFTAB2
 70
6
  9
$SURFTYPE
 70
6
  9
$SURFU
 70
6
  9
$SURFV
 70
6
  9
$TEXTSIZE
 40
2.5
  9
$TEXTSTYLE
  7
OpenSans
  9
$THICKNESS
 40
0.0
  9
$TILEMODE
 70
1
  9
$TRACEWID
 40
1.0
  9
$TREEDEPTH
 70
3020
  9
$UCSNAME
  2

  9
$UNITMODE
 70
0
  9
$USERI1
 70
0
  9
$USERI2
 70
0
  9
$USERI3
 70
0
  9
$USERI4
 70
0
  9
$USERI5
 70
0
  9
$USERR1
 40
0.0
  9
$USERR2
 40
0.0
  9
$USERR3
 40
0.0
  9
$USERR4
 40
0.0
  9
$USERR5
 40
0.0
  9
$USRTIMER
 70
1
  9
$VISRETAIN
 70
1
  0
ENDSEC
  0
SECTION
  2
TABLES
  0
TABLE
  2
VPORT
  5
8
100
AcDbSymbolTable
 70
1
  0
VPORT
  5
30
100
AcDbSymbolTableRecord
100
AcDbViewportTableRecord
  2
*Active
 70
0
 10
0.0
 20
0.0
 11
1.0
 21
1.0
 12
286.3055555555554861
 22
148.5
 13
0.0
 23
0.0
 14
10.0
 24
10.0
 15
10.0
 25
10.0
 16
0.0
 26
0.0
 36
1.0
 17
0.0
 27
0.0
 37
0.0
 40
297.0
 41
1.92798353909465
 42
50.0
 43
0.0
 44
0.0
 50
0.0
 51
0.0
 71
0
 72
100
 73
1
 74
3
 75
1
 76
1
 77
0
 78
0
281
0
 65
1
110
0.0
120
0.0
130
0.0
111
1.0
121
0.0
131
0.0
112
0.0
122
1.0
132
0.0
 79
0
146
0.0
  0
ENDTAB
  0
TABLE
  2
LTYPE
  5
5
100
AcDbSymbolTable
 70
48
  0
LTYPE
  5
16
100
AcDbSymbolTableRecord
100
AcDbLinetypeTableRecord
  2
Continuous
 70
0
  3
Solid line
 72
65
 73
0
 40
0.0
  0
LTYPE
  5
31
100
AcDbSymbolTableRecord
100
AcDbLinetypeTableRecord
  2
NSS_WATER_INTERMITTENT
 70
0
  3
Intermittent water - - - -
 72
65
 73
2
 40
0.5
 49
0.3
 74
0
 49
-0.2
 74
0
  0
LTYPE
  5
32
100
AcDbSymbolTableRecord
100
AcDbLinetypeTableRecord
  2
NSS_CLIMB
 70
0
  3
Climb / chimney route : : : :
 72
65
 73
2
 40
0.35
 49
0.06
 74
0
 49
-0.29
 74
0
  0
LTYPE
  5
33
100
AcDbSymbolTableRecord
100
AcDbLinetypeTableRecord
  2
DASHED2
 70
0
  3
Dashed (.5x) _ _ _ _ _ _ _ _ _ _ _ _ _ _
 72
65
 73
2
 40
0.762
 49
0.635
 74
0
 49
-0.127
 74
0
  0
LTYPE
  5
34
100
AcDbSymbolTableRecord
100
AcDbLinetypeTableRecord
  2
PHANTOMX2
 70
0
  3
Phantom (2x)____________    ____    ____    ____________
 72
65
 73
6
 40
10.7949999999999982
 49
6.3499999999999996
 74
0
 49
-0.635
 74
0
 49
1.27
 74
0
 49
-0.635
 74
0
 49
1.27
 74
0
 49
-0.635
 74
0
  0
LTYPE
  5
35
100
AcDbSymbolTableRecord
100
AcDbLinetypeTableRecord
  2
HIDDEN2
 70
0
  3
Hidden (.5x) _ _ _ _ _ _ _ _ _ _ _ _ _ _ _ _ _ 
 72
65
 73
2
 40
4.7624999999999993
 49
3.1749999999999998
 74
0
 49
-1.5874999999999999
 74
0
  0
LTYPE
  5
36
100
AcDbSymbolTableRecord
100
AcDbLinetypeTableRecord
  2
NSS_INFERRED
 70
0
  3
Inferred / projected wall __ __ __
 72
65
 73
2
 40
0.8999999999999999
 49
0.6
 74
0
 49
-0.3
 74
0
  0
LTYPE
  5
37
100
AcDbSymbolTableRecord
100
AcDbLinetypeTableRecord
  2
DOT2
 70
0
  3
Dot (.5) . . . . . . . . . . . . . . . . . . . 
 72
65
 73
2
 40
0.254
 49
0.1
 74
0
 49
-0.154
 74
0
  0
LTYPE
  5
38
100
AcDbSymbolTableRecord
100
AcDbLinetypeTableRecord
  2
DOT
 70
0
  3
Dot .  .  .  .  .  .  .  .  .  .  .  .  .  .  .  .
 72
65
 73
2
 40
0.508
 49
0.1
 74
0
 49
-0.408
 74
0
  0
LTYPE
  5
39
100
AcDbSymbolTableRecord
100
AcDbLinetypeTableRecord
  2
PHANTOM
 70
0
  3
Phantom ______  __  __  ______  __  __  ______
 72
65
 73
6
 40
6.3499999999999988
 49
3.1749999999999998
 74
0
 49
-0.635
 74
0
 49
0.635
 74
0
 49
-0.635
 74
0
 49
0.635
 74
0
 49
-0.635
 74
0
  0
LTYPE
  5
3A
100
AcDbSymbolTableRecord
100
AcDbLinetypeTableRecord
  2
DIVIDEX2
 70
0
  3
Divide (2x) ____  . .  ____  . .  ____  . .  ____
 72
65
 73
6
 40
6.6040000000000001
 49
5.0800000000000001
 74
0
 49
-0.458
 74
0
 49
0.1
 74
0
 49
-0.408
 74
0
 49
0.1
 74
0
 49
-0.458
 74
0
  0
LTYPE
  5
3B
100
AcDbSymbolTableRecord
100
AcDbLinetypeTableRecord
  2
DOTX2
 70
0
  3
Dot (2x) .    .    .    .    .    .    .    . 
 72
65
 73
2
 40
1.016
 49
0.1
 74
0
 49
-0.916
 74
0
  0
LTYPE
  5
3C
100
AcDbSymbolTableRecord
100
AcDbLinetypeTableRecord
  2
ACAD_ISO08W100
 70
0
  3
ISO long-dash short-dash ____ __ ____ __ ____ _
 72
65
 73
4
 40
36.0
 49
24.0
 74
0
 49
-3.0
 74
0
 49
6.0
 74
0
 49
-3.0
 74
0
  0
LTYPE
  5
3D
100
AcDbSymbolTableRecord
100
AcDbLinetypeTableRecord
  2
ACAD_ISO14W100
 70
0
  3
ISO dash triple-dot __ . . . __ . . . __ . . . _
 72
65
 73
8
 40
24.0000000000000036
 49
12.0
 74
0
 49
-2.9500000000000002
 74
0
 49
0.1
 74
0
 49
-2.9000000000000004
 74
0
 49
0.1
 74
0
 49
-2.9000000000000004
 74
0
 49
0.1
 74
0
 49
-2.9500000000000002
 74
0
  0
LTYPE
  5
3E
100
AcDbSymbolTableRecord
100
AcDbLinetypeTableRecord
  2
ACAD_ISO05W100
 70
0
  3
ISO long-dash double-dot ____ .. ____ .. ____ . 
 72
65
 73
6
 40
33.0000000000000071
 49
24.0
 74
0
 49
-2.9500000000000002
 74
0
 49
0.1
 74
0
 49
-2.9000000000000004
 74
0
 49
0.1
 74
0
 49
-2.9500000000000002
 74
0
  0
LTYPE
  5
3F
100
AcDbSymbolTableRecord
100
AcDbLinetypeTableRecord
  2
NSS_JOINT
 70
0
  3
Geologic joint / fracture trend, fine . _ . _
 72
65
 73
2
 40
0.5
 49
0.08
 74
0
 49
-0.42
 74
0
  0
LTYPE
  5
40
100
AcDbSymbolTableRecord
100
AcDbLinetypeTableRecord
  2
ACAD_ISO03W100
 70
0
  3
ISO dash space __    __    __    __    __    __
 72
65
 73
2
 40
30.0
 49
12.0
 74
0
 49
-18.0
 74
0
  0
LTYPE
  5
41
100
AcDbSymbolTableRecord
100
AcDbLinetypeTableRecord
  2
NSS_OVERHANG
 70
0
  3
Overhang / ceiling ledge __ . __ .
 72
65
 73
4
 40
0.9999999999999999
 49
0.7
 74
0
 49
-0.1
 74
0
 49
0.1
 74
0
 49
-0.1
 74
0
  0
LTYPE
  5
42
100
AcDbSymbolTableRecord
100
AcDbLinetypeTableRecord
  2
CENTERX2
 70
0
  3
Center (2x) ________  __  ________  __  ________
 72
65
 73
4
 40
8.8899999999999988
 49
6.3499999999999996
 74
0
 49
-0.635
 74
0
 49
1.27
 74
0
 49
-0.635
 74
0
  0
LTYPE
  5
43
100
AcDbSymbolTableRecord
100
AcDbLinetypeTableRecord
  2
DIVIDE2
 70
0
  3
Divide(.5x) _ . _ . _ . _ . _ . _ . _ . _
 72
65
 73
6
 40
2.032
 49
1.27
 74
0
 49
-0.204
 74
0
 49
0.1
 74
0
 49
-0.154
 74
0
 49
0.1
 74
0
 49
-0.204
 74
0
  0
LTYPE
  5
44
100
AcDbSymbolTableRecord
100
AcDbLinetypeTableRecord
  2
BORDERX2
 70
0
  3
Border (2x) ____  ____  .  ____  ____  .  ___
 72
65
 73
6
 40
88.8999999999999773
 49
25.3999999999999986
 74
0
 49
-12.6999999999999993
 74
0
 49
25.3999999999999986
 74
0
 49
-12.6499999999999986
 74
0
 49
0.1
 74
0
 49
-12.6499999999999986
 74
0
  0
LTYPE
  5
45
100
AcDbSymbolTableRecord
100
AcDbLinetypeTableRecord
  2
CENTER
 70
0
  3
Center ____ _ ____ _ ____ _ ____ _ ____ _ ____
 72
65
 73
4
 40
5.0799999999999992
 49
3.1749999999999998
 74
0
 49
-0.635
 74
0
 49
0.635
 74
0
 49
-0.635
 74
0
  0
LTYPE
  5
46
100
AcDbSymbolTableRecord
100
AcDbLinetypeTableRecord
  2
CENTER2
 70
0
  3
Center (.5x) ____ _ ____ _ ____ _ ____ _ ____
 72
65
 73
4
 40
2.5409999999999999
 49
1.587
 74
0
 49
-0.318
 74
0
 49
0.318
 74
0
 49
-0.318
 74
0
  0
LTYPE
  5
47
100
AcDbSymbolTableRecord
100
AcDbLinetypeTableRecord
  2
BORDER
 70
0
  3
Border __ __ . __ __ . __ __ . __ __ . __ __ .
 72
65
 73
6
 40
44.4499999999999957
 49
12.6999999999999993
 74
0
 49
-6.3499999999999996
 74
0
 49
12.6999999999999993
 74
0
 49
-6.2999999999999998
 74
0
 49
0.1
 74
0
 49
-6.2999999999999998
 74
0
  0
LTYPE
  5
48
100
AcDbSymbolTableRecord
100
AcDbLinetypeTableRecord
  2
PHANTOM2
 70
0
  3
Phantom (.5x) ___ _ _ ___ _ _ ___ _ _ ___ _ _ ___
 72
65
 73
6
 40
3.177
 49
1.587
 74
0
 49
-0.318
 74
0
 49
0.318
 74
0
 49
-0.318
 74
0
 49
0.318
 74
0
 49
-0.318
 74
0
  0
LTYPE
  5
49
100
AcDbSymbolTableRecord
100
AcDbLinetypeTableRecord
  2
ACAD_ISO04W100
 70
0
  3
ISO long-dash dot ____ . ____ . ____ . ____ . _
 72
65
 73
4
 40
30.0
 49
24.0
 74
0
 49
-2.9500000000000002
 74
0
 49
0.1
 74
0
 49
-2.9500000000000002
 74
0
  0
LTYPE
  5
14
100
AcDbSymbolTableRecord
100
AcDbLinetypeTableRecord
  2
ByBlock
 70
0
  3

 72
65
 73
0
 40
0.0
  0
LTYPE
  5
4A
100
AcDbSymbolTableRecord
100
AcDbLinetypeTableRecord
  2
ACAD_ISO10W100
 70
0
  3
ISO dash dot __ . __ . __ . __ . __ . __ . __ . 
 72
65
 73
4
 40
18.0
 49
12.0
 74
0
 49
-2.9500000000000002
 74
0
 49
0.1
 74
0
 49
-2.9500000000000002
 74
0
  0
LTYPE
  5
4B
100
AcDbSymbolTableRecord
100
AcDbLinetypeTableRecord
  2
NSS_DOTTED
 70
0
  3
Dotted (ceiling height traverse) . . . .
 72
65
 73
2
 40
0.3
 49
0.1
 74
0
 49
-0.2
 74
0
  0
LTYPE
  5
4C
100
AcDbSymbolTableRecord
100
AcDbLinetypeTableRecord
  2
ACAD_ISO09W100
 70
0
  3
ISO long-dash double-short-dash ____ __ __ ____
 72
65
 73
6
 40
45.0
 49
24.0
 74
0
 49
-3.0
 74
0
 49
6.0
 74
0
 49
-3.0
 74
0
 49
6.0
 74
0
 49
-3.0
 74
0
  0
LTYPE
  5
4D
100
AcDbSymbolTableRecord
100
AcDbLinetypeTableRecord
  2
BORDER2
 70
0
  3
Border (.5x) __.__.__.__.__.__.__.__.__.__.__.
 72
65
 73
6
 40
22.2250000000000014
 49
6.3499999999999996
 74
0
 49
-3.1749999999999998
 74
0
 49
6.3499999999999996
 74
0
 49
-3.125
 74
0
 49
0.1
 74
0
 49
-3.125
 74
0
  0
LTYPE
  5
4E
100
AcDbSymbolTableRecord
100
AcDbLinetypeTableRecord
  2
NSS_DRIPLINE
 70
0
  3
Dripline - . - . - .
 72
65
 73
4
 40
0.7999999999999999
 49
0.5
 74
0
 49
-0.1
 74
0
 49
0.1
 74
0
 49
-0.1
 74
0
  0
LTYPE
  5
4F
100
AcDbSymbolTableRecord
100
AcDbLinetypeTableRecord
  2
DASHDOT
 70
0
  3
Dash dot __ . __ . __ . __ . __ . __ . __ . __
 72
65
 73
4
 40
3.5560000000000005
 49
2.54
 74
0
 49
-0.458
 74
0
 49
0.1
 74
0
 49
-0.458
 74
0
  0
LTYPE
  5
50
100
AcDbSymbolTableRecord
100
AcDbLinetypeTableRecord
  2
ACAD_ISO11W100
 70
0
  3
ISO double-dash dot __ __ . __ __ . __ __ . __ _
 72
65
 73
6
 40
33.0
 49
12.0
 74
0
 49
-3.0
 74
0
 49
12.0
 74
0
 49
-2.9500000000000002
 74
0
 49
0.1
 74
0
 49
-2.9500000000000002
 74
0
  0
LTYPE
  5
51
100
AcDbSymbolTableRecord
100
AcDbLinetypeTableRecord
  2
ACAD_ISO06W100
 70
0
  3
ISO long-dash triple-dot ____ ... ____ ... ____
 72
65
 73
8
 40
36.0000000000000071
 49
24.0
 74
0
 49
-2.9500000000000002
 74
0
 49
0.1
 74
0
 49
-2.9000000000000004
 74
0
 49
0.1
 74
0
 49
-2.9000000000000004
 74
0
 49
0.1
 74
0
 49
-2.9500000000000002
 74
0
  0
LTYPE
  5
52
100
AcDbSymbolTableRecord
100
AcDbLinetypeTableRecord
  2
DASHED
 70
0
  3
Dashed __ __ __ __ __ __ __ __ __ __ __ __ __ _
 72
65
 73
2
 40
1.524
 49
1.27
 74
0
 49
-0.254
 74
0
  0
LTYPE
  5
53
100
AcDbSymbolTableRecord
100
AcDbLinetypeTableRecord
  2
DASHDOT2
 70
0
  3
Dash dot (.5x) _ . _ . _ . _ . _ . _ . _ . _
 72
65
 73
4
 40
1.778
 49
1.27
 74
0
 49
-0.204
 74
0
 49
0.1
 74
0
 49
-0.204
 74
0
  0
LTYPE
  5
54
100
AcDbSymbolTableRecord
100
AcDbLinetypeTableRecord
  2
ACAD_ISO07W100
 70
0
  3
ISO dot . . . . . . . . . . . . . . . . . . . . 
 72
65
 73
2
 40
3.0
 49
0.1
 74
0
 49
-2.8999999999999999
 74
0
  0
LTYPE
  5
55
100
AcDbSymbolTableRecord
100
AcDbLinetypeTableRecord
  2
HIDDEN
 70
0
  3
Hidden __ __ __ __ __ __ __ __ __ __ __ __ __ __
 72
65
 73
2
 40
9.5249999999999986
 49
6.3499999999999996
 74
0
 49
-3.1749999999999998
 74
0
  0
LTYPE
  5
56
100
AcDbSymbolTableRecord
100
AcDbLinetypeTableRecord
  2
DASHDOTX2
 70
0
  3
Dash dot (2x) ____  .  ____  .  ____  .  ____
 72
65
 73
4
 40
6.0960000000000001
 49
5.0800000000000001
 74
0
 49
-0.458
 74
0
 49
0.1
 74
0
 49
-0.458
 74
0
  0
LTYPE
  5
15
100
AcDbSymbolTableRecord
100
AcDbLinetypeTableRecord
  2
ByLayer
 70
0
  3

 72
65
 73
0
 40
0.0
  0
LTYPE
  5
57
100
AcDbSymbolTableRecord
100
AcDbLinetypeTableRecord
  2
HIDDENX2
 70
0
  3
Hidden (2x) ____ ____ ____ ____ ____ ____ ____ 
 72
65
 73
2
 40
19.0499999999999972
 49
12.6999999999999993
 74
0
 49
-6.3499999999999996
 74
0
  0
LTYPE
  5
58
100
AcDbSymbolTableRecord
100
AcDbLinetypeTableRecord
  2
ACAD_ISO15W100
 70
0
  3
ISO double-dash triple-dot __ __ . . . __ __ . .
 72
65
 73
10
 40
39.0000000000000071
 49
12.0
 74
0
 49
-3.0
 74
0
 49
12.0
 74
0
 49
-2.9500000000000002
 74
0
 49
0.1
 74
0
 49
-2.9000000000000004
 74
0
 49
0.1
 74
0
 49
-2.9000000000000004
 74
0
 49
0.1
 74
0
 49
-2.9500000000000002
 74
0
  0
LTYPE
  5
59
100
AcDbSymbolTableRecord
100
AcDbLinetypeTableRecord
  2
DIVIDE
 70
0
  3
Divide __ . . __ . . __ . . __ . . __ . . __
 72
65
 73
6
 40
4.0640000000000001
 49
2.54
 74
0
 49
-0.458
 74
0
 49
0.1
 74
0
 49
-0.408
 74
0
 49
0.1
 74
0
 49
-0.458
 74
0
  0
LTYPE
  5
5A
100
AcDbSymbolTableRecord
100
AcDbLinetypeTableRecord
  2
ACAD_ISO13W100
 70
0
  3
ISO double-dash double-dot __ __ . . __ __ . . _
 72
65
 73
8
 40
36.0000000000000071
 49
12.0
 74
0
 49
-3.0
 74
0
 49
12.0
 74
0
 49
-2.9500000000000002
 74
0
 49
0.1
 74
0
 49
-2.9000000000000004
 74
0
 49
0.1
 74
0
 49
-2.9500000000000002
 74
0
  0
LTYPE
  5
5B
100
AcDbSymbolTableRecord
100
AcDbLinetypeTableRecord
  2
DASHEDX2
 70
0
  3
Dashed (2x) ____  ____  ____  ____  ____  ____
 72
65
 73
2
 40
3.048
 49
2.54
 74
0
 49
-0.508
 74
0
  0
LTYPE
  5
5C
100
AcDbSymbolTableRecord
100
AcDbLinetypeTableRecord
  2
ACAD_ISO12W100
 70
0
  3
ISO dash double-dot __ . . __ . . __ . . __ . . 
 72
65
 73
6
 40
21.0
 49
12.0
 74
0
 49
-2.9500000000000002
 74
0
 49
0.1
 74
0
 49
-2.9000000000000004
 74
0
 49
0.1
 74
0
 49
-2.9500000000000002
 74
0
  0
LTYPE
  5
5D
100
AcDbSymbolTableRecord
100
AcDbLinetypeTableRecord
  2
ACAD_ISO02W100
 70
0
  3
ISO dash __ __ __ __ __ __ __ __ __ __ __ __ __
 72
65
 73
2
 40
15.0
 49
12.0
 74
0
 49
-3.0
 74
0
  0
ENDTAB
  0
TABLE
  2
LAYER
  5
2
100
AcDbSymbolTable
 70
47
  0
LAYER
  5
5E
100
AcDbSymbolTableRecord
100
AcDbLayerTableRecord
  2
GUANO
 70
0
 62
40
420
16760576
  6
Continuous
370
9
390
F
  0
LAYER
  5
5F
100
AcDbSymbolTableRecord
100
AcDbLayerTableRecord
  2
CEILING-HEIGHT
 70
0
 62
8
420
8355711
  6
Continuous
370
0
390
F
  0
LAYER
  5
60
100
AcDbSymbolTableRecord
100
AcDbLayerTableRecord
  2
FORMATIONS-RIMSTONE
 70
0
 62
6
420
16711935
  6
Continuous
370
13
390
F
  0
LAYER
  5
61
100
AcDbSymbolTableRecord
100
AcDbLayerTableRecord
  2
ALIGNMENT
 70
0
 62
7
420
16777215
  6
Continuous
370
25
390
F
  0
LAYER
  5
62
100
AcDbSymbolTableRecord
100
AcDbLayerTableRecord
  2
WALLS-SURVEYED
 70
0
 62
7
420
16777215
  6
Continuous
370
50
390
F
  0
LAYER
  5
63
100
AcDbSymbolTableRecord
100
AcDbLayerTableRecord
  2
LEGEND
 70
0
 62
7
420
16777215
  6
Continuous
370
18
390
F
  0
LAYER
  5
64
100
AcDbSymbolTableRecord
100
AcDbLayerTableRecord
  2
WATER-POOL-SUMP
 70
0
 62
5
420
255
  6
Continuous
370
13
390
F
  0
LAYER
  5
65
100
AcDbSymbolTableRecord
100
AcDbLayerTableRecord
  2
BREAKDOWN
 70
0
 62
8
420
8355711
  6
Continuous
370
18
390
F
  0
LAYER
  5
66
100
AcDbSymbolTableRecord
100
AcDbLayerTableRecord
  2
CTRL-SHOTS
 70
0
 62
8
420
8355711
  6
Continuous
370
9
390
F
  0
LAYER
  5
67
100
AcDbSymbolTableRecord
100
AcDbLayerTableRecord
  2
CTRL-GRID
 70
0
 62
9
420
12566463
  6
Continuous
370
13
390
F
  0
LAYER
  5
68
100
AcDbSymbolTableRecord
100
AcDbLayerTableRecord
  2
LRUD
 70
0
 62
2
420
16776960
  6
Continuous
370
25
390
F
  0
LAYER
  5
69
100
AcDbSymbolTableRecord
100
AcDbLayerTableRecord
  2
WATER-FLOW-ARROWS
 70
0
 62
5
420
255
  6
Continuous
370
18
390
F
  0
LAYER
  5
6A
100
AcDbSymbolTableRecord
100
AcDbLayerTableRecord
  2
DRIPLINE
 70
0
 62
8
420
8355711
  6
NSS_DRIPLINE
370
18
390
F
  0
LAYER
  5
6B
100
AcDbSymbolTableRecord
100
AcDbLayerTableRecord
  2
PITS-DOMES
 70
0
 62
7
420
16777215
  6
Continuous
370
25
390
F
  0
LAYER
  5
6C
100
AcDbSymbolTableRecord
100
AcDbLayerTableRecord
  2
ANCHORS-BOLTS
 70
0
 62
1
420
16711680
  6
Continuous
370
25
390
F
  0
LAYER
  5
6D
100
AcDbSymbolTableRecord
100
AcDbLayerTableRecord
  2
BIOLOGY
 70
0
 62
3
420
65280
  6
Continuous
370
18
390
F
  0
LAYER
  5
6E
100
AcDbSymbolTableRecord
100
AcDbLayerTableRecord
  2
BREAKDOWN-BOUNDARY
 70
0
 62
253
420
12237498
  6
NSS_DOTTED
370
9
390
F
  0
LAYER
  5
6F
100
AcDbSymbolTableRecord
100
AcDbLayerTableRecord
  2
CLIMBS-CHIMNEYS
 70
0
 62
1
420
16711680
  6
NSS_CLIMB
370
18
390
F
  0
LAYER
  5
70
100
AcDbSymbolTableRecord
100
AcDbLayerTableRecord
  2
FORMATIONS-MOONMILK-POPCORN
 70
0
 62
6
420
16711935
  6
Continuous
370
9
390
F
  0
LAYER
  5
71
100
AcDbSymbolTableRecord
100
AcDbLayerTableRecord
  2
BORDER
 70
0
 62
7
420
16777215
  6
Continuous
370
50
390
F
  0
LAYER
  5
72
100
AcDbSymbolTableRecord
100
AcDbLayerTableRecord
  2
STATIONS
 70
0
 62
1
420
16711680
  6
Continuous
370
25
390
F
  0
LAYER
  5
73
100
AcDbSymbolTableRecord
100
AcDbLayerTableRecord
  2
WATER-SPRING-RESURGENCE
 70
0
 62
5
420
255
  6
Continuous
370
25
390
F
  0
LAYER
  5
74
100
AcDbSymbolTableRecord
100
AcDbLayerTableRecord
  2
FORMATIONS-FLOWSTONE
 70
0
 62
6
420
16711935
  6
Continuous
370
13
390
F
  0
LAYER
  5
75
100
AcDbSymbolTableRecord
100
AcDbLayerTableRecord
  2
ENTRANCE
 70
0
 62
1
420
16711680
  6
Continuous
370
50
390
F
  0
LAYER
  5
76
100
AcDbSymbolTableRecord
100
AcDbLayerTableRecord
  2
Defpoints
 70
0
 62
7
420
16777215
  6
Continuous
290
0
370
-3
390
F
  0
LAYER
  5
77
100
AcDbSymbolTableRecord
100
AcDbLayerTableRecord
  2
WATER-SIPHON
 70
0
 62
5
420
255
  6
Continuous
370
25
390
F
  0
LAYER
  5
78
100
AcDbSymbolTableRecord
100
AcDbLayerTableRecord
  2
CROSS-SECTION-MARKERS
 70
0
 62
3
420
65280
  6
Continuous
370
18
390
F
  0
LAYER
  5
79
100
AcDbSymbolTableRecord
100
AcDbLayerTableRecord
  2
FORMATIONS-DRAPERY
 70
0
 62
6
420
16711935
  6
Continuous
370
13
390
F
  0
LAYER
  5
7A
100
AcDbSymbolTableRecord
100
AcDbLayerTableRecord
  2
TEXT-LABELS
 70
0
 62
7
420
16777215
  6
Continuous
370
0
390
F
  0
LAYER
  5
7B
100
AcDbSymbolTableRecord
100
AcDbLayerTableRecord
  2
OVERHANG-LEDGE
 70
0
 62
7
420
16777215
  6
NSS_OVERHANG
370
25
390
F
  0
LAYER
  5
7C
100
AcDbSymbolTableRecord
100
AcDbLayerTableRecord
  2
FLOOR-SLOPE
 70
0
 62
8
420
8355711
  6
Continuous
370
13
390
F
  0
LAYER
  5
7D
100
AcDbSymbolTableRecord
100
AcDbLayerTableRecord
  2
SEDIMENT-CLAY-MUD
 70
0
 62
30
420
16744192
  6
Continuous
370
13
390
F
  0
LAYER
  5
7E
100
AcDbSymbolTableRecord
100
AcDbLayerTableRecord
  2
ARCHAEOLOGY
 70
0
 62
2
420
16776960
  6
Continuous
370
18
390
F
  0
LAYER
  5
7F
100
AcDbSymbolTableRecord
100
AcDbLayerTableRecord
  2
SCALE-BAR
 70
0
 62
7
420
16777215
  6
Continuous
370
25
390
F
  0
LAYER
  5
80
100
AcDbSymbolTableRecord
100
AcDbLayerTableRecord
  2
TITLE-BLOCK
 70
0
 62
7
420
16777215
  6
Continuous
370
25
390
F
  0
LAYER
  5
81
100
AcDbSymbolTableRecord
100
AcDbLayerTableRecord
  2
CTRL-STATION-LABELS
 70
0
 62
1
420
16711680
  6
Continuous
370
0
390
F
  0
LAYER
  5
82
100
AcDbSymbolTableRecord
100
AcDbLayerTableRecord
  2
NORTH-ARROW
 70
0
 62
7
420
16777215
  6
Continuous
370
25
390
F
  0
LAYER
  5
83
100
AcDbSymbolTableRecord
100
AcDbLayerTableRecord
  2
FORMATIONS-DRIP
 70
0
 62
6
420
16711935
  6
Continuous
370
18
390
F
  0
LAYER
  5
84
100
AcDbSymbolTableRecord
100
AcDbLayerTableRecord
  2
WATER-DRIP-SEEP
 70
0
 62
5
420
255
  6
Continuous
370
13
390
F
  0
LAYER
  5
85
100
AcDbSymbolTableRecord
100
AcDbLayerTableRecord
  2
SEDIMENT-SAND-GRAVEL
 70
0
 62
30
420
16744192
  6
Continuous
370
9
390
F
  0
LAYER
  5
86
100
AcDbSymbolTableRecord
100
AcDbLayerTableRecord
  2
TEXT-NOTES
 70
0
 62
8
420
8355711
  6
Continuous
370
0
390
F
  0
LAYER
  5
87
100
AcDbSymbolTableRecord
100
AcDbLayerTableRecord
  2
WALLS-INFERRED
 70
0
 62
7
420
16777215
  6
NSS_INFERRED
370
35
390
F
  0
LAYER
  5
10
100
AcDbSymbolTableRecord
100
AcDbLayerTableRecord
  2
0
 70
0
 62
7
420
16777215
  6
Continuous
370
-3
390
F
  0
LAYER
  5
88
100
AcDbSymbolTableRecord
100
AcDbLayerTableRecord
  2
WATER-INTERMITTENT
 70
0
 62
5
420
255
  6
NSS_WATER_INTERMITTENT
370
18
390
F
  0
LAYER
  5
89
100
AcDbSymbolTableRecord
100
AcDbLayerTableRecord
  2
WATER-PERENNIAL
 70
0
 62
5
420
255
  6
Continuous
370
25
390
F
  0
LAYER
  5
8A
100
AcDbSymbolTableRecord
100
AcDbLayerTableRecord
  2
CTRL-STATIONS
 70
0
 62
1
420
16711680
  6
Continuous
370
18
390
F
  0
LAYER
  5
8B
100
AcDbSymbolTableRecord
100
AcDbLayerTableRecord
  2
GEOLOGY-JOINTS-FRACTURES
 70
0
 62
9
420
12566463
  6
NSS_JOINT
370
9
390
F
  0
ENDTAB
  0
TABLE
  2
STYLE
  5
3
100
AcDbSymbolTable
 70
117
  0
STYLE
  5
8C
100
AcDbSymbolTableRecord
100
AcDbTextStyleTableRecord
  2
Standard
 70
0
 40
0.0
 41
1.0
 50
0.0
 71
0
 42
2.5
  3

  4

1001
ACAD
1000
txt
1071
0
  0
STYLE
  5
8D
100
AcDbSymbolTableRecord
100
AcDbTextStyleTableRecord
  2
textstyle0
 70
0
 40
0.0
 41
1.0
 50
0.0
 71
0
 42
0.14
  3

  4

1001
ACAD
1000
Standard
1071
0
  0
STYLE
  5
8E
100
AcDbSymbolTableRecord
100
AcDbTextStyleTableRecord
  2
textstyle1
 70
0
 40
0.0
 41
1.0
 50
0.0
 71
0
 42
0.13
  3

  4

1001
ACAD
1000
Standard
1071
0
  0
STYLE
  5
8F
100
AcDbSymbolTableRecord
100
AcDbTextStyleTableRecord
  2
textstyle2
 70
0
 40
0.0
 41
1.0
 50
0.0
 71
0
 42
0.14
  3

  4

1001
ACAD
1000
Standard
1071
0
  0
STYLE
  5
90
100
AcDbSymbolTableRecord
100
AcDbTextStyleTableRecord
  2
textstyle3
 70
0
 40
0.0
 41
1.0
 50
0.0
 71
0
 42
0.42
  3

  4

1001
ACAD
1000
Standard
1071
0
  0
STYLE
  5
91
100
AcDbSymbolTableRecord
100
AcDbTextStyleTableRecord
  2
textstyle4
 70
0
 40
0.0
 41
1.0
 50
0.0
 71
0
 42
0.18
  3

  4

1001
ACAD
1000
Standard
1071
0
  0
STYLE
  5
92
100
AcDbSymbolTableRecord
100
AcDbTextStyleTableRecord
  2
textstyle5
 70
0
 40
0.0
 41
1.0
 50
0.0
 71
0
 42
0.11
  3

  4

1001
ACAD
1000
Standard
1071
0
  0
STYLE
  5
93
100
AcDbSymbolTableRecord
100
AcDbTextStyleTableRecord
  2
textstyle6
 70
0
 40
0.0
 41
1.0
 50
0.0
 71
0
 42
0.11
  3

  4

1001
ACAD
1000
Standard
1071
0
  0
STYLE
  5
94
100
AcDbSymbolTableRecord
100
AcDbTextStyleTableRecord
  2
textstyle7
 70
0
 40
0.0
 41
1.0
 50
0.0
 71
0
 42
0.11
  3

  4

1001
ACAD
1000
Standard
1071
0
  0
STYLE
  5
95
100
AcDbSymbolTableRecord
100
AcDbTextStyleTableRecord
  2
textstyle8
 70
0
 40
0.0
 41
1.0
 50
0.0
 71
0
 42
0.11
  3

  4

1001
ACAD
1000
Standard
1071
0
  0
STYLE
  5
96
100
AcDbSymbolTableRecord
100
AcDbTextStyleTableRecord
  2
textstyle9
 70
0
 40
0.0
 41
1.0
 50
0.0
 71
0
 42
0.14
  3

  4

1001
ACAD
1000
Standard
1071
0
  0
STYLE
  5
97
100
AcDbSymbolTableRecord
100
AcDbTextStyleTableRecord
  2
textstyle10
 70
0
 40
0.0
 41
1.0
 50
0.0
 71
0
 42
0.11
  3

  4

1001
ACAD
1000
Standard
1071
0
  0
STYLE
  5
98
100
AcDbSymbolTableRecord
100
AcDbTextStyleTableRecord
  2
textstyle11
 70
0
 40
0.0
 41
1.0
 50
0.0
 71
0
 42
0.11
  3

  4

1001
ACAD
1000
Standard
1071
0
  0
STYLE
  5
99
100
AcDbSymbolTableRecord
100
AcDbTextStyleTableRecord
  2
textstyle12
 70
0
 40
0.0
 41
1.0
 50
0.0
 71
0
 42
0.11
  3

  4

1001
ACAD
1000
Standard
1071
0
  0
STYLE
  5
9A
100
AcDbSymbolTableRecord
100
AcDbTextStyleTableRecord
  2
textstyle13
 70
0
 40
0.0
 41
1.0
 50
0.0
 71
0
 42
0.14
  3

  4

1001
ACAD
1000
Standard
1071
0
  0
STYLE
  5
9B
100
AcDbSymbolTableRecord
100
AcDbTextStyleTableRecord
  2
textstyle14
 70
0
 40
0.0
 41
1.0
 50
0.0
 71
0
 42
0.11
  3

  4

1001
ACAD
1000
Standard
1071
0
  0
STYLE
  5
9C
100
AcDbSymbolTableRecord
100
AcDbTextStyleTableRecord
  2
textstyle15
 70
0
 40
0.0
 41
1.0
 50
0.0
 71
0
 42
0.11
  3

  4

1001
ACAD
1000
Standard
1071
0
  0
STYLE
  5
9D
100
AcDbSymbolTableRecord
100
AcDbTextStyleTableRecord
  2
textstyle16
 70
0
 40
0.0
 41
1.0
 50
0.0
 71
0
 42
0.11
  3

  4

1001
ACAD
1000
Standard
1071
0
  0
STYLE
  5
9E
100
AcDbSymbolTableRecord
100
AcDbTextStyleTableRecord
  2
textstyle17
 70
0
 40
0.0
 41
1.0
 50
0.0
 71
0
 42
0.11
  3

  4

1001
ACAD
1000
Standard
1071
0
  0
STYLE
  5
9F
100
AcDbSymbolTableRecord
100
AcDbTextStyleTableRecord
  2
textstyle18
 70
0
 40
0.0
 41
1.0
 50
0.0
 71
0
 42
0.11
  3

  4

1001
ACAD
1000
Standard
1071
0
  0
STYLE
  5
A0
100
AcDbSymbolTableRecord
100
AcDbTextStyleTableRecord
  2
textstyle19
 70
0
 40
0.0
 41
1.0
 50
0.0
 71
0
 42
0.14
  3

  4

1001
ACAD
1000
Standard
1071
0
  0
STYLE
  5
A1
100
AcDbSymbolTableRecord
100
AcDbTextStyleTableRecord
  2
textstyle20
 70
0
 40
0.0
 41
1.0
 50
0.0
 71
0
 42
0.14
  3

  4

1001
ACAD
1000
Standard
1071
0
  0
STYLE
  5
A2
100
AcDbSymbolTableRecord
100
AcDbTextStyleTableRecord
  2
textstyle21
 70
0
 40
0.0
 41
1.0
 50
0.0
 71
0
 42
0.14
  3

  4

1001
ACAD
1000
Standard
1071
0
  0
STYLE
  5
A3
100
AcDbSymbolTableRecord
100
AcDbTextStyleTableRecord
  2
textstyle22
 70
0
 40
0.0
 41
1.0
 50
0.0
 71
0
 42
0.11
  3

  4

1001
ACAD
1000
Standard
1071
0
  0
STYLE
  5
A4
100
AcDbSymbolTableRecord
100
AcDbTextStyleTableRecord
  2
textstyle23
 70
0
 40
0.0
 41
1.0
 50
0.0
 71
0
 42
0.11
  3

  4

1001
ACAD
1000
Standard
1071
0
  0
STYLE
  5
A5
100
AcDbSymbolTableRecord
100
AcDbTextStyleTableRecord
  2
textstyle24
 70
0
 40
0.0
 41
1.0
 50
0.0
 71
0
 42
0.11
  3

  4

1001
ACAD
1000
Standard
1071
0
  0
STYLE
  5
A6
100
AcDbSymbolTableRecord
100
AcDbTextStyleTableRecord
  2
textstyle25
 70
0
 40
0.0
 41
1.0
 50
0.0
 71
0
 42
0.14
  3

  4

1001
ACAD
1000
Standard
1071
0
  0
STYLE
  5
A7
100
AcDbSymbolTableRecord
100
AcDbTextStyleTableRecord
  2
textstyle26
 70
0
 40
0.0
 41
1.0
 50
0.0
 71
0
 42
0.14
  3

  4

1001
ACAD
1000
Standard
1071
0
  0
STYLE
  5
A8
100
AcDbSymbolTableRecord
100
AcDbTextStyleTableRecord
  2
textstyle27
 70
0
 40
0.0
 41
1.0
 50
0.0
 71
0
 42
0.11
  3

  4

1001
ACAD
1000
Standard
1071
0
  0
STYLE
  5
A9
100
AcDbSymbolTableRecord
100
AcDbTextStyleTableRecord
  2
textstyle28
 70
0
 40
0.0
 41
1.0
 50
0.0
 71
0
 42
0.11
  3

  4

1001
ACAD
1000
Standard
1071
0
  0
STYLE
  5
AA
100
AcDbSymbolTableRecord
100
AcDbTextStyleTableRecord
  2
textstyle29
 70
0
 40
0.0
 41
1.0
 50
0.0
 71
0
 42
0.11
  3

  4

1001
ACAD
1000
Standard
1071
0
  0
STYLE
  5
AB
100
AcDbSymbolTableRecord
100
AcDbTextStyleTableRecord
  2
textstyle30
 70
0
 40
0.0
 41
1.0
 50
0.0
 71
0
 42
0.11
  3

  4

1001
ACAD
1000
Standard
1071
0
  0
STYLE
  5
AC
100
AcDbSymbolTableRecord
100
AcDbTextStyleTableRecord
  2
textstyle31
 70
0
 40
0.0
 41
1.0
 50
0.0
 71
0
 42
0.14
  3

  4

1001
ACAD
1000
Standard
1071
0
  0
STYLE
  5
AD
100
AcDbSymbolTableRecord
100
AcDbTextStyleTableRecord
  2
textstyle32
 70
0
 40
0.0
 41
1.0
 50
0.0
 71
0
 42
0.14
  3

  4

1001
ACAD
1000
Standard
1071
0
  0
STYLE
  5
AE
100
AcDbSymbolTableRecord
100
AcDbTextStyleTableRecord
  2
textstyle33
 70
0
 40
0.0
 41
1.0
 50
0.0
 71
0
 42
0.14
  3

  4

1001
ACAD
1000
Standard
1071
0
  0
STYLE
  5
AF
100
AcDbSymbolTableRecord
100
AcDbTextStyleTableRecord
  2
textstyle34
 70
0
 40
0.0
 41
1.0
 50
0.0
 71
0
 42
0.11
  3

  4

1001
ACAD
1000
Standard
1071
0
  0
STYLE
  5
B0
100
AcDbSymbolTableRecord
100
AcDbTextStyleTableRecord
  2
textstyle35
 70
0
 40
0.0
 41
1.0
 50
0.0
 71
0
 42
0.14
  3

  4

1001
ACAD
1000
Standard
1071
0
  0
STYLE
  5
B1
100
AcDbSymbolTableRecord
100
AcDbTextStyleTableRecord
  2
textstyle36
 70
0
 40
0.0
 41
1.0
 50
0.0
 71
0
 42
0.6
  3

  4

1001
ACAD
1000
Standard
1071
0
  0
STYLE
  5
B2
100
AcDbSymbolTableRecord
100
AcDbTextStyleTableRecord
  2
textstyle37
 70
0
 40
0.0
 41
1.0
 50
0.0
 71
0
 42
0.11
  3

  4

1001
ACAD
1000
Standard
1071
0
  0
STYLE
  5
B3
100
AcDbSymbolTableRecord
100
AcDbTextStyleTableRecord
  2
textstyle38
 70
0
 40
0.0
 41
1.0
 50
0.0
 71
0
 42
0.14
  3

  4

1001
ACAD
1000
Standard
1071
0
  0
STYLE
  5
B4
100
AcDbSymbolTableRecord
100
AcDbTextStyleTableRecord
  2
textstyle39
 70
0
 40
0.0
 41
1.0
 50
0.0
 71
0
 42
0.11
  3

  4

1001
ACAD
1000
Standard
1071
0
  0
STYLE
  5
B5
100
AcDbSymbolTableRecord
100
AcDbTextStyleTableRecord
  2
textstyle40
 70
0
 40
0.0
 41
1.0
 50
0.0
 71
0
 42
0.11
  3

  4

1001
ACAD
1000
Standard
1071
0
  0
STYLE
  5
B6
100
AcDbSymbolTableRecord
100
AcDbTextStyleTableRecord
  2
textstyle41
 70
0
 40
0.0
 41
1.0
 50
0.0
 71
0
 42
0.11
  3

  4

1001
ACAD
1000
Standard
1071
0
  0
STYLE
  5
B7
100
AcDbSymbolTableRecord
100
AcDbTextStyleTableRecord
  2
textstyle42
 70
0
 40
0.0
 41
1.0
 50
0.0
 71
0
 42
0.11
  3

  4

1001
ACAD
1000
Standard
1071
0
  0
STYLE
  5
B8
100
AcDbSymbolTableRecord
100
AcDbTextStyleTableRecord
  2
textstyle43
 70
0
 40
0.0
 41
1.0
 50
0.0
 71
0
 42
0.11
  3

  4

1001
ACAD
1000
Standard
1071
0
  0
STYLE
  5
B9
100
AcDbSymbolTableRecord
100
AcDbTextStyleTableRecord
  2
textstyle44
 70
0
 40
0.0
 41
1.0
 50
0.0
 71
0
 42
0.11
  3

  4

1001
ACAD
1000
Standard
1071
0
  0
STYLE
  5
BA
100
AcDbSymbolTableRecord
100
AcDbTextStyleTableRecord
  2
textstyle45
 70
0
 40
0.0
 41
1.0
 50
0.0
 71
0
 42
0.11
  3

  4

1001
ACAD
1000
Standard
1071
0
  0
STYLE
  5
BB
100
AcDbSymbolTableRecord
100
AcDbTextStyleTableRecord
  2
textstyle46
 70
0
 40
0.0
 41
1.0
 50
0.0
 71
0
 42
0.11
  3

  4

1001
ACAD
1000
Standard
1071
0
  0
STYLE
  5
BC
100
AcDbSymbolTableRecord
100
AcDbTextStyleTableRecord
  2
textstyle47
 70
0
 40
0.0
 41
1.0
 50
0.0
 71
0
 42
0.11
  3

  4

1001
ACAD
1000
Standard
1071
0
  0
STYLE
  5
BD
100
AcDbSymbolTableRecord
100
AcDbTextStyleTableRecord
  2
textstyle48
 70
0
 40
0.0
 41
1.0
 50
0.0
 71
0
 42
0.14
  3

  4

1001
ACAD
1000
Standard
1071
0
  0
STYLE
  5
BE
100
AcDbSymbolTableRecord
100
AcDbTextStyleTableRecord
  2
textstyle49
 70
0
 40
0.0
 41
1.0
 50
0.0
 71
0
 42
0.5
  3

  4

1001
ACAD
1000
Standard
1071
0
  0
STYLE
  5
BF
100
AcDbSymbolTableRecord
100
AcDbTextStyleTableRecord
  2
textstyle50
 70
0
 40
0.0
 41
1.0
 50
0.0
 71
0
 42
0.5
  3

  4

1001
ACAD
1000
Standard
1071
0
  0
STYLE
  5
C0
100
AcDbSymbolTableRecord
100
AcDbTextStyleTableRecord
  2
textstyle51
 70
0
 40
0.0
 41
1.0
 50
0.0
 71
0
 42
0.5
  3

  4

1001
ACAD
1000
Standard
1071
0
  0
STYLE
  5
C1
100
AcDbSymbolTableRecord
100
AcDbTextStyleTableRecord
  2
textstyle52
 70
0
 40
0.0
 41
1.0
 50
0.0
 71
0
 42
0.5
  3

  4

1001
ACAD
1000
Standard
1071
0
  0
STYLE
  5
C2
100
AcDbSymbolTableRecord
100
AcDbTextStyleTableRecord
  2
textstyle53
 70
0
 40
0.0
 41
1.0
 50
0.0
 71
0
 42
0.5
  3

  4

1001
ACAD
1000
Standard
1071
0
  0
STYLE
  5
C3
100
AcDbSymbolTableRecord
100
AcDbTextStyleTableRecord
  2
textstyle54
 70
0
 40
0.0
 41
1.0
 50
0.0
 71
0
 42
0.5
  3

  4

1001
ACAD
1000
Standard
1071
0
  0
STYLE
  5
C4
100
AcDbSymbolTableRecord
100
AcDbTextStyleTableRecord
  2
textstyle55
 70
0
 40
0.0
 41
1.0
 50
0.0
 71
0
 42
0.5
  3

  4

1001
ACAD
1000
Standard
1071
0
  0
STYLE
  5
C5
100
AcDbSymbolTableRecord
100
AcDbTextStyleTableRecord
  2
textstyle56
 70
0
 40
0.0
 41
1.0
 50
0.0
 71
0
 42
0.5
  3

  4

1001
ACAD
1000
Standard
1071
0
  0
STYLE
  5
C6
100
AcDbSymbolTableRecord
100
AcDbTextStyleTableRecord
  2
textstyle57
 70
0
 40
0.0
 41
1.0
 50
0.0
 71
0
 42
0.5
  3

  4

1001
ACAD
1000
Standard
1071
0
  0
STYLE
  5
C7
100
AcDbSymbolTableRecord
100
AcDbTextStyleTableRecord
  2
textstyle58
 70
0
 40
0.0
 41
1.0
 50
0.0
 71
0
 42
0.5
  3

  4

1001
ACAD
1000
Standard
1071
0
  0
STYLE
  5
C8
100
AcDbSymbolTableRecord
100
AcDbTextStyleTableRecord
  2
textstyle59
 70
0
 40
0.0
 41
1.0
 50
0.0
 71
0
 42
0.5
  3

  4

1001
ACAD
1000
Standard
1071
0
  0
STYLE
  5
C9
100
AcDbSymbolTableRecord
100
AcDbTextStyleTableRecord
  2
textstyle60
 70
0
 40
0.0
 41
1.0
 50
0.0
 71
0
 42
0.5
  3

  4

1001
ACAD
1000
Standard
1071
0
  0
STYLE
  5
CA
100
AcDbSymbolTableRecord
100
AcDbTextStyleTableRecord
  2
textstyle61
 70
0
 40
0.0
 41
1.0
 50
0.0
 71
0
 42
0.5
  3

  4

1001
ACAD
1000
Standard
1071
0
  0
STYLE
  5
CB
100
AcDbSymbolTableRecord
100
AcDbTextStyleTableRecord
  2
textstyle62
 70
0
 40
0.0
 41
1.0
 50
0.0
 71
0
 42
0.5
  3

  4

1001
ACAD
1000
Standard
1071
0
  0
STYLE
  5
CC
100
AcDbSymbolTableRecord
100
AcDbTextStyleTableRecord
  2
textstyle63
 70
0
 40
0.0
 41
1.0
 50
0.0
 71
0
 42
0.5
  3

  4

1001
ACAD
1000
Standard
1071
0
  0
STYLE
  5
CD
100
AcDbSymbolTableRecord
100
AcDbTextStyleTableRecord
  2
textstyle64
 70
0
 40
0.0
 41
1.0
 50
0.0
 71
0
 42
0.5
  3

  4

1001
ACAD
1000
Standard
1071
0
  0
STYLE
  5
CE
100
AcDbSymbolTableRecord
100
AcDbTextStyleTableRecord
  2
textstyle65
 70
0
 40
0.0
 41
1.0
 50
0.0
 71
0
 42
0.5
  3

  4

1001
ACAD
1000
Standard
1071
0
  0
STYLE
  5
CF
100
AcDbSymbolTableRecord
100
AcDbTextStyleTableRecord
  2
textstyle66
 70
0
 40
0.0
 41
1.0
 50
0.0
 71
0
 42
0.5
  3

  4

1001
ACAD
1000
Standard
1071
0
  0
STYLE
  5
D0
100
AcDbSymbolTableRecord
100
AcDbTextStyleTableRecord
  2
textstyle67
 70
0
 40
0.0
 41
1.0
 50
0.0
 71
0
 42
0.5
  3

  4

1001
ACAD
1000
Standard
1071
0
  0
STYLE
  5
D1
100
AcDbSymbolTableRecord
100
AcDbTextStyleTableRecord
  2
textstyle68
 70
0
 40
0.0
 41
1.0
 50
0.0
 71
0
 42
0.5
  3

  4

1001
ACAD
1000
Standard
1071
0
  0
STYLE
  5
D2
100
AcDbSymbolTableRecord
100
AcDbTextStyleTableRecord
  2
textstyle69
 70
0
 40
0.0
 41
1.0
 50
0.0
 71
0
 42
0.5
  3

  4

1001
ACAD
1000
Standard
1071
0
  0
STYLE
  5
D3
100
AcDbSymbolTableRecord
100
AcDbTextStyleTableRecord
  2
textstyle70
 70
0
 40
0.0
 41
1.0
 50
0.0
 71
0
 42
0.5
  3

  4

1001
ACAD
1000
Standard
1071
0
  0
STYLE
  5
D4
100
AcDbSymbolTableRecord
100
AcDbTextStyleTableRecord
  2
textstyle71
 70
0
 40
0.0
 41
1.0
 50
0.0
 71
0
 42
0.5
  3

  4

1001
ACAD
1000
Standard
1071
0
  0
STYLE
  5
D5
100
AcDbSymbolTableRecord
100
AcDbTextStyleTableRecord
  2
textstyle72
 70
0
 40
0.0
 41
1.0
 50
0.0
 71
0
 42
0.5
  3

  4

1001
ACAD
1000
Standard
1071
0
  0
STYLE
  5
D6
100
AcDbSymbolTableRecord
100
AcDbTextStyleTableRecord
  2
textstyle73
 70
0
 40
0.0
 41
1.0
 50
0.0
 71
0
 42
0.5
  3

  4

1001
ACAD
1000
Standard
1071
0
  0
STYLE
  5
D7
100
AcDbSymbolTableRecord
100
AcDbTextStyleTableRecord
  2
textstyle74
 70
0
 40
0.0
 41
1.0
 50
0.0
 71
0
 42
0.5
  3

  4

1001
ACAD
1000
Standard
1071
0
  0
STYLE
  5
D8
100
AcDbSymbolTableRecord
100
AcDbTextStyleTableRecord
  2
textstyle75
 70
0
 40
0.0
 41
1.0
 50
0.0
 71
0
 42
0.5
  3

  4

1001
ACAD
1000
Standard
1071
0
  0
STYLE
  5
D9
100
AcDbSymbolTableRecord
100
AcDbTextStyleTableRecord
  2
textstyle76
 70
0
 40
0.0
 41
1.0
 50
0.0
 71
0
 42
0.5
  3

  4

1001
ACAD
1000
Standard
1071
0
  0
STYLE
  5
DA
100
AcDbSymbolTableRecord
100
AcDbTextStyleTableRecord
  2
textstyle77
 70
0
 40
0.0
 41
1.0
 50
0.0
 71
0
 42
0.5
  3

  4

1001
ACAD
1000
Standard
1071
0
  0
STYLE
  5
DB
100
AcDbSymbolTableRecord
100
AcDbTextStyleTableRecord
  2
textstyle78
 70
0
 40
0.0
 41
1.0
 50
0.0
 71
0
 42
0.5
  3

  4

1001
ACAD
1000
Standard
1071
0
  0
STYLE
  5
DC
100
AcDbSymbolTableRecord
100
AcDbTextStyleTableRecord
  2
textstyle79
 70
0
 40
0.0
 41
1.0
 50
0.0
 71
0
 42
0.5
  3

  4

1001
ACAD
1000
Standard
1071
0
  0
STYLE
  5
DD
100
AcDbSymbolTableRecord
100
AcDbTextStyleTableRecord
  2
textstyle80
 70
0
 40
0.0
 41
1.0
 50
0.0
 71
0
 42
0.5
  3

  4

1001
ACAD
1000
Standard
1071
0
  0
STYLE
  5
DE
100
AcDbSymbolTableRecord
100
AcDbTextStyleTableRecord
  2
textstyle81
 70
0
 40
0.0
 41
1.0
 50
0.0
 71
0
 42
0.5
  3

  4

1001
ACAD
1000
Standard
1071
0
  0
STYLE
  5
DF
100
AcDbSymbolTableRecord
100
AcDbTextStyleTableRecord
  2
textstyle82
 70
0
 40
0.0
 41
1.0
 50
0.0
 71
0
 42
0.5
  3

  4

1001
ACAD
1000
Standard
1071
0
  0
STYLE
  5
E0
100
AcDbSymbolTableRecord
100
AcDbTextStyleTableRecord
  2
textstyle83
 70
0
 40
0.0
 41
1.0
 50
0.0
 71
0
 42
0.8
  3

  4

1001
ACAD
1000
Standard
1071
0
  0
STYLE
  5
E1
100
AcDbSymbolTableRecord
100
AcDbTextStyleTableRecord
  2
textstyle84
 70
0
 40
0.0
 41
1.0
 50
0.0
 71
0
 42
0.11
  3

  4

1001
ACAD
1000
Standard
1071
0
  0
STYLE
  5
E2
100
AcDbSymbolTableRecord
100
AcDbTextStyleTableRecord
  2
textstyle85
 70
0
 40
0.0
 41
1.0
 50
0.0
 71
0
 42
0.14
  3

  4

1001
ACAD
1000
Standard
1071
0
  0
STYLE
  5
E3
100
AcDbSymbolTableRecord
100
AcDbTextStyleTableRecord
  2
textstyle86
 70
0
 40
0.0
 41
1.0
 50
0.0
 71
0
 42
0.11
  3

  4

1001
ACAD
1000
Standard
1071
0
  0
STYLE
  5
E4
100
AcDbSymbolTableRecord
100
AcDbTextStyleTableRecord
  2
textstyle87
 70
0
 40
0.0
 41
1.0
 50
0.0
 71
0
 42
0.11
  3

  4

1001
ACAD
1000
Standard
1071
0
  0
STYLE
  5
E5
100
AcDbSymbolTableRecord
100
AcDbTextStyleTableRecord
  2
textstyle88
 70
0
 40
0.0
 41
1.0
 50
0.0
 71
0
 42
0.11
  3

  4

1001
ACAD
1000
Standard
1071
0
  0
STYLE
  5
E6
100
AcDbSymbolTableRecord
100
AcDbTextStyleTableRecord
  2
textstyle89
 70
0
 40
0.0
 41
1.0
 50
0.0
 71
0
 42
0.11
  3

  4

1001
ACAD
1000
Standard
1071
0
  0
STYLE
  5
E7
100
AcDbSymbolTableRecord
100
AcDbTextStyleTableRecord
  2
textstyle90
 70
0
 40
0.0
 41
1.0
 50
0.0
 71
0
 42
0.11
  3

  4

1001
ACAD
1000
Standard
1071
0
  0
STYLE
  5
E8
100
AcDbSymbolTableRecord
100
AcDbTextStyleTableRecord
  2
textstyle91
 70
0
 40
0.0
 41
1.0
 50
0.0
 71
0
 42
0.11
  3

  4

1001
ACAD
1000
Standard
1071
0
  0
STYLE
  5
E9
100
AcDbSymbolTableRecord
100
AcDbTextStyleTableRecord
  2
textstyle92
 70
0
 40
0.0
 41
1.0
 50
0.0
 71
0
 42
0.14
  3

  4

1001
ACAD
1000
Standard
1071
0
  0
STYLE
  5
EA
100
AcDbSymbolTableRecord
100
AcDbTextStyleTableRecord
  2
textstyle93
 70
0
 40
0.0
 41
1.0
 50
0.0
 71
0
 42
0.11
  3

  4

1001
ACAD
1000
Standard
1071
0
  0
STYLE
  5
EB
100
AcDbSymbolTableRecord
100
AcDbTextStyleTableRecord
  2
textstyle94
 70
0
 40
0.0
 41
1.0
 50
0.0
 71
0
 42
0.11
  3

  4

1001
ACAD
1000
Standard
1071
0
  0
STYLE
  5
EC
100
AcDbSymbolTableRecord
100
AcDbTextStyleTableRecord
  2
textstyle95
 70
0
 40
0.0
 41
1.0
 50
0.0
 71
0
 42
0.11
  3

  4

1001
ACAD
1000
Standard
1071
0
  0
STYLE
  5
ED
100
AcDbSymbolTableRecord
100
AcDbTextStyleTableRecord
  2
textstyle96
 70
0
 40
0.0
 41
1.0
 50
0.0
 71
0
 42
0.14
  3

  4

1001
ACAD
1000
Standard
1071
0
  0
STYLE
  5
EE
100
AcDbSymbolTableRecord
100
AcDbTextStyleTableRecord
  2
textstyle97
 70
0
 40
0.0
 41
1.0
 50
0.0
 71
0
 42
0.11
  3

  4

1001
ACAD
1000
Standard
1071
0
  0
STYLE
  5
EF
100
AcDbSymbolTableRecord
100
AcDbTextStyleTableRecord
  2
textstyle98
 70
0
 40
0.0
 41
1.0
 50
0.0
 71
0
 42
0.11
  3

  4

1001
ACAD
1000
Standard
1071
0
  0
STYLE
  5
F0
100
AcDbSymbolTableRecord
100
AcDbTextStyleTableRecord
  2
textstyle99
 70
0
 40
0.0
 41
1.0
 50
0.0
 71
0
 42
0.11
  3

  4

1001
ACAD
1000
Standard
1071
0
  0
STYLE
  5
F1
100
AcDbSymbolTableRecord
100
AcDbTextStyleTableRecord
  2
textstyle100
 70
0
 40
0.0
 41
1.0
 50
0.0
 71
0
 42
0.14
  3

  4

1001
ACAD
1000
Standard
1071
0
  0
STYLE
  5
F2
100
AcDbSymbolTableRecord
100
AcDbTextStyleTableRecord
  2
textstyle101
 70
0
 40
0.0
 41
1.0
 50
0.0
 71
0
 42
0.11
  3

  4

1001
ACAD
1000
Standard
1071
0
  0
STYLE
  5
F3
100
AcDbSymbolTableRecord
100
AcDbTextStyleTableRecord
  2
textstyle102
 70
0
 40
0.0
 41
1.0
 50
0.0
 71
0
 42
0.11
  3

  4

1001
ACAD
1000
Standard
1071
0
  0
STYLE
  5
F4
100
AcDbSymbolTableRecord
100
AcDbTextStyleTableRecord
  2
textstyle103
 70
0
 40
0.0
 41
1.0
 50
0.0
 71
0
 42
0.11
  3

  4

1001
ACAD
1000
Standard
1071
0
  0
STYLE
  5
F5
100
AcDbSymbolTableRecord
100
AcDbTextStyleTableRecord
  2
textstyle104
 70
0
 40
0.0
 41
1.0
 50
0.0
 71
0
 42
0.11
  3

  4

1001
ACAD
1000
Standard
1071
0
  0
STYLE
  5
F6
100
AcDbSymbolTableRecord
100
AcDbTextStyleTableRecord
  2
textstyle105
 70
0
 40
0.0
 41
1.0
 50
0.0
 71
0
 42
0.11
  3

  4

1001
ACAD
1000
Standard
1071
0
  0
STYLE
  5
F7
100
AcDbSymbolTableRecord
100
AcDbTextStyleTableRecord
  2
textstyle106
 70
0
 40
0.0
 41
1.0
 50
0.0
 71
0
 42
0.14
  3

  4

1001
ACAD
1000
Standard
1071
0
  0
STYLE
  5
F8
100
AcDbSymbolTableRecord
100
AcDbTextStyleTableRecord
  2
textstyle107
 70
0
 40
0.0
 41
1.0
 50
0.0
 71
0
 42
0.11
  3

  4

1001
ACAD
1000
Standard
1071
0
  0
STYLE
  5
F9
100
AcDbSymbolTableRecord
100
AcDbTextStyleTableRecord
  2
textstyle108
 70
0
 40
0.0
 41
1.0
 50
0.0
 71
0
 42
0.11
  3

  4

1001
ACAD
1000
Standard
1071
0
  0
STYLE
  5
FA
100
AcDbSymbolTableRecord
100
AcDbTextStyleTableRecord
  2
textstyle109
 70
0
 40
0.0
 41
1.0
 50
0.0
 71
0
 42
0.11
  3

  4

1001
ACAD
1000
Standard
1071
0
  0
STYLE
  5
FB
100
AcDbSymbolTableRecord
100
AcDbTextStyleTableRecord
  2
textstyle110
 70
0
 40
0.0
 41
1.0
 50
0.0
 71
0
 42
0.11
  3

  4

1001
ACAD
1000
Standard
1071
0
  0
STYLE
  5
FC
100
AcDbSymbolTableRecord
100
AcDbTextStyleTableRecord
  2
textstyle111
 70
0
 40
0.0
 41
1.0
 50
0.0
 71
0
 42
0.11
  3

  4

1001
ACAD
1000
Standard
1071
0
  0
STYLE
  5
FD
100
AcDbSymbolTableRecord
100
AcDbTextStyleTableRecord
  2
textstyle112
 70
0
 40
0.0
 41
1.0
 50
0.0
 71
0
 42
0.14
  3

  4

1001
ACAD
1000
Standard
1071
0
  0
STYLE
  5
FE
100
AcDbSymbolTableRecord
100
AcDbTextStyleTableRecord
  2
textstyle113
 70
0
 40
0.0
 41
1.0
 50
0.0
 71
0
 42
0.11
  3

  4

1001
ACAD
1000
Standard
1071
0
  0
STYLE
  5
FF
100
AcDbSymbolTableRecord
100
AcDbTextStyleTableRecord
  2
textstyle114
 70
0
 40
0.0
 41
1.0
 50
0.0
 71
0
 42
0.11
  3

  4

1001
ACAD
1000
Standard
1071
0
  0
STYLE
  5
100
100
AcDbSymbolTableRecord
100
AcDbTextStyleTableRecord
  2
textstyle115
 70
0
 40
0.0
 41
1.0
 50
0.0
 71
0
 42
0.4
  3

  4

1001
ACAD
1000
Standard
1071
0
  0
ENDTAB
  0
TABLE
  2
VIEW
  5
6
100
AcDbSymbolTable
 70
0
  0
ENDTAB
  0
TABLE
  2
UCS
  5
7
100
AcDbSymbolTable
 70
0
  0
ENDTAB
  0
TABLE
  2
APPID
  5
9
100
AcDbSymbolTable
 70
1
  0
APPID
  5
12
100
AcDbSymbolTableRecord
100
AcDbRegAppTableRecord
  2
ACAD
 70
0
  0
APPID
  5
101
100
AcDbSymbolTableRecord
100
AcDbRegAppTableRecord
  2
QCAD
 70
0
  0
ENDTAB
  0
TABLE
  2
DIMSTYLE
  5
A
100
AcDbSymbolTable
 70
1
100
AcDbDimStyleTable
 71
0
  0
DIMSTYLE
105
27
100
AcDbSymbolTableRecord
100
AcDbDimStyleTableRecord
  2
Standard
 41
0.175
 42
0.125
 43
3.75
 44
0.375
 70
0
 73
0
 74
0
 77
1
 78
8
140
0.25
141
2.5
143
0.03937007874016
147
0.1
171
3
172
1
271
2
272
2
274
3
278
44
283
0
284
8
340
8C
  0
ENDTAB
  0
TABLE
  2
BLOCK_RECORD
  5
1
100
AcDbSymbolTable
 70
1
  0
BLOCK_RECORD
  5
1F
100
AcDbSymbolTableRecord
100
AcDbBlockTableRecord
  2
*Model_Space
340
22
  0
BLOCK_RECORD
  5
1B
100
AcDbSymbolTableRecord
100
AcDbBlockTableRecord
  2
*Paper_Space
340
1E
  0
BLOCK_RECORD
  5
23
100
AcDbSymbolTableRecord
100
AcDbBlockTableRecord
  2
*Paper_Space0
340
26
  0
BLOCK_RECORD
  5
102
100
AcDbSymbolTableRecord
100
AcDbBlockTableRecord
  2
SYM_CEILING_HEIGHT
340
0
  0
BLOCK_RECORD
  5
103
100
AcDbSymbolTableRecord
100
AcDbBlockTableRecord
  2
TB_BAR_SCALE_1IN30FT
340
0
  0
BLOCK_RECORD
  5
104
100
AcDbSymbolTableRecord
100
AcDbBlockTableRecord
  2
SYM_SIPHON
340
0
  0
BLOCK_RECORD
  5
105
100
AcDbSymbolTableRecord
100
AcDbBlockTableRecord
  2
SYM_CLAY_MUD_TICK
340
0
  0
BLOCK_RECORD
  5
106
100
AcDbSymbolTableRecord
100
AcDbBlockTableRecord
  2
TB_NORTH_ARROW_DECL
340
0
  0
BLOCK_RECORD
  5
107
100
AcDbSymbolTableRecord
100
AcDbBlockTableRecord
  2
SYM_SUMP
340
0
  0
BLOCK_RECORD
  5
108
100
AcDbSymbolTableRecord
100
AcDbBlockTableRecord
  2
SYM_FLOW_ARROW
340
0
  0
BLOCK_RECORD
  5
109
100
AcDbSymbolTableRecord
100
AcDbBlockTableRecord
  2
SYM_STALACTITE
340
0
  0
BLOCK_RECORD
  5
10A
100
AcDbSymbolTableRecord
100
AcDbBlockTableRecord
  2
TB_LEGEND_NOTE
340
0
  0
BLOCK_RECORD
  5
10B
100
AcDbSymbolTableRecord
100
AcDbBlockTableRecord
  2
SYM_STALAGMITE
340
0
  0
BLOCK_RECORD
  5
10C
100
AcDbSymbolTableRecord
100
AcDbBlockTableRecord
  2
TB_COPYRIGHT
340
0
  0
BLOCK_RECORD
  5
10D
100
AcDbSymbolTableRecord
100
AcDbBlockTableRecord
  2
TB_CAVE_NAME
340
0
  0
BLOCK_RECORD
  5
10E
100
AcDbSymbolTableRecord
100
AcDbBlockTableRecord
  2
TB_LOCATION
340
0
  0
BLOCK_RECORD
  5
10F
100
AcDbSymbolTableRecord
100
AcDbBlockTableRecord
  2
SYM_JOINT_TICK
340
0
  0
BLOCK_RECORD
  5
110
100
AcDbSymbolTableRecord
100
AcDbBlockTableRecord
  2
SYM_SLOPE_TICK
340
0
  0
BLOCK_RECORD
  5
111
100
AcDbSymbolTableRecord
100
AcDbBlockTableRecord
  2
SYM_BREAKDOWN_B
340
0
  0
BLOCK_RECORD
  5
112
100
AcDbSymbolTableRecord
100
AcDbBlockTableRecord
  2
SYM_ENTRANCE
340
0
  0
BLOCK_RECORD
  5
113
100
AcDbSymbolTableRecord
100
AcDbBlockTableRecord
  2
TB_BAR_SCALE_1IN100FT
340
0
  0
BLOCK_RECORD
  5
114
100
AcDbSymbolTableRecord
100
AcDbBlockTableRecord
  2
SYM_RIMSTONE_DAM
340
0
  0
BLOCK_RECORD
  5
115
100
AcDbSymbolTableRecord
100
AcDbBlockTableRecord
  2
TB_CARTOGRAPHY_BY
340
0
  0
BLOCK_RECORD
  5
116
100
AcDbSymbolTableRecord
100
AcDbBlockTableRecord
  2
TB_BAR_SCALE_1IN200FT
340
0
  0
BLOCK_RECORD
  5
117
100
AcDbSymbolTableRecord
100
AcDbBlockTableRecord
  2
TB_BAR_SCALE_1IN400FT
340
0
  0
BLOCK_RECORD
  5
118
100
AcDbSymbolTableRecord
100
AcDbBlockTableRecord
  2
TB_PERSONNEL
340
0
  0
BLOCK_RECORD
  5
119
100
AcDbSymbolTableRecord
100
AcDbBlockTableRecord
  2
TB_SURVEY_METHOD
340
0
  0
BLOCK_RECORD
  5
11A
100
AcDbSymbolTableRecord
100
AcDbBlockTableRecord
  2
TB_DEPTH
340
0
  0
BLOCK_RECORD
  5
11B
100
AcDbSymbolTableRecord
100
AcDbBlockTableRecord
  2
TB_DATE
340
0
  0
BLOCK_RECORD
  5
11C
100
AcDbSymbolTableRecord
100
AcDbBlockTableRecord
  2
SYM_SECTION_MARKER
340
0
  0
BLOCK_RECORD
  5
11D
100
AcDbSymbolTableRecord
100
AcDbBlockTableRecord
  2
TB_LENGTH
340
0
  0
BLOCK_RECORD
  5
11E
100
AcDbSymbolTableRecord
100
AcDbBlockTableRecord
  2
TB_BAR_SCALE_1IN20FT
340
0
  0
BLOCK_RECORD
  5
11F
100
AcDbSymbolTableRecord
100
AcDbBlockTableRecord
  2
SYM_SPRING
340
0
  0
BLOCK_RECORD
  5
120
100
AcDbSymbolTableRecord
100
AcDbBlockTableRecord
  2
TB_SURVEYED_BY
340
0
  0
BLOCK_RECORD
  5
121
100
AcDbSymbolTableRecord
100
AcDbBlockTableRecord
  2
TB_BORDER_ARCH_D_FULLBLEED
340
0
  0
BLOCK_RECORD
  5
122
100
AcDbSymbolTableRecord
100
AcDbBlockTableRecord
  2
TB_BAR_SCALE_1IN300FT
340
0
  0
BLOCK_RECORD
  5
123
100
AcDbSymbolTableRecord
100
AcDbBlockTableRecord
  2
_ARCHTICK
340
0
  0
BLOCK_RECORD
  5
124
100
AcDbSymbolTableRecord
100
AcDbBlockTableRecord
  2
TB_BAR_SCALE_1IN10FT
340
0
  0
BLOCK_RECORD
  5
125
100
AcDbSymbolTableRecord
100
AcDbBlockTableRecord
  2
TB_SURVEY_CODE
340
0
  0
BLOCK_RECORD
  5
126
100
AcDbSymbolTableRecord
100
AcDbBlockTableRecord
  2
SYM_BREAKDOWN
340
0
  0
BLOCK_RECORD
  5
127
100
AcDbSymbolTableRecord
100
AcDbBlockTableRecord
  2
SYM_MOONMILK_POPCORN
340
0
  0
BLOCK_RECORD
  5
128
100
AcDbSymbolTableRecord
100
AcDbBlockTableRecord
  2
SYM_DRIP_SEEP
340
0
  0
BLOCK_RECORD
  5
129
100
AcDbSymbolTableRecord
100
AcDbBlockTableRecord
  2
SYM_COLUMN
340
0
  0
BLOCK_RECORD
  5
12A
100
AcDbSymbolTableRecord
100
AcDbBlockTableRecord
  2
_CLOSEDBLANK
340
0
  0
BLOCK_RECORD
  5
12B
100
AcDbSymbolTableRecord
100
AcDbBlockTableRecord
  2
TB_BAR_SCALE_1IN50FT
340
0
  0
BLOCK_RECORD
  5
12C
100
AcDbSymbolTableRecord
100
AcDbBlockTableRecord
  2
TB_BAR_SCALE_1IN60FT
340
0
  0
BLOCK_RECORD
  5
12D
100
AcDbSymbolTableRecord
100
AcDbBlockTableRecord
  2
TB_BAR_SCALE_1IN500FT
340
0
  0
BLOCK_RECORD
  5
12E
100
AcDbSymbolTableRecord
100
AcDbBlockTableRecord
  2
SYM_NORTH_ARROW
340
0
  0
BLOCK_RECORD
  5
12F
100
AcDbSymbolTableRecord
100
AcDbBlockTableRecord
  2
SYM_SAND_GRAVEL_DOT
340
0
  0
BLOCK_RECORD
  5
130
100
AcDbSymbolTableRecord
100
AcDbBlockTableRecord
  2
SYM_FIXED_POINT
340
0
  0
BLOCK_RECORD
  5
131
100
AcDbSymbolTableRecord
100
AcDbBlockTableRecord
  2
SYM_BREAKDOWN_C
340
0
  0
BLOCK_RECORD
  5
132
100
AcDbSymbolTableRecord
100
AcDbBlockTableRecord
  2
SYM_PIT
340
0
  0
BLOCK_RECORD
  5
133
100
AcDbSymbolTableRecord
100
AcDbBlockTableRecord
  2
SYM_GUANO
340
0
  0
BLOCK_RECORD
  5
134
100
AcDbSymbolTableRecord
100
AcDbBlockTableRecord
  2
TB_BAR_SCALE_1IN40FT
340
0
  0
BLOCK_RECORD
  5
135
100
AcDbSymbolTableRecord
100
AcDbBlockTableRecord
  2
SYM_CLIMB_ARROW
340
0
  0
BLOCK_RECORD
  5
136
100
AcDbSymbolTableRecord
100
AcDbBlockTableRecord
  2
_CLOSEDFILLED
340
0
  0
BLOCK_RECORD
  5
137
100
AcDbSymbolTableRecord
100
AcDbBlockTableRecord
  2
SYM_DOME
340
0
  0
BLOCK_RECORD
  5
138
100
AcDbSymbolTableRecord
100
AcDbBlockTableRecord
  2
SYM_DRAPERY
340
0
  0
BLOCK_RECORD
  5
139
100
AcDbSymbolTableRecord
100
AcDbBlockTableRecord
  2
SYM_FLOWSTONE
340
0
  0
ENDTAB
  0
ENDSEC
  0
SECTION
  2
BLOCKS
  0
BLOCK
  5
20
100
AcDbEntity
  8
0
100
AcDbBlockBegin
  2
*Model_Space
 70
0
 10
0.0
 20
0.0
 30
0.0
  3
*Model_Space
  1

  0
ENDBLK
  5
21
100
AcDbEntity
  8
0
100
AcDbBlockEnd
  0
BLOCK
  5
1C
100
AcDbEntity
 67
1
  8
0
100
AcDbBlockBegin
  2
*Paper_Space
 70
0
 10
0.0
 20
0.0
 30
0.0
  3
*Paper_Space
  1

  0
ENDBLK
  5
1D
100
AcDbEntity
 67
1
  8
0
100
AcDbBlockEnd
  0
BLOCK
  5
24
100
AcDbEntity
  8
0
100
AcDbBlockBegin
  2
*Paper_Space0
 70
0
 10
0.0
 20
0.0
 30
0.0
  3
*Paper_Space0
  1

  0
ENDBLK
  5
25
100
AcDbEntity
  8
0
100
AcDbBlockEnd
  0
BLOCK
  5
13A
100
AcDbEntity
  8
0
100
AcDbBlockBegin
  2
SYM_CEILING_HEIGHT
 70
0
 10
0.0
 20
0.0
 30
0.0
  3
SYM_CEILING_HEIGHT
  1

  0
CIRCLE
  5
13B
100
AcDbEntity
  8
CEILING-HEIGHT
 62
256
370
-1
 48
1.0
  6
ByLayer
100
AcDbCircle
 10
0.0
 20
0.0
 30
0.0
 40
0.06
  0
LINE
  5
13C
100
AcDbEntity
  8
CEILING-HEIGHT
 62
256
370
-1
 48
1.0
  6
ByLayer
100
AcDbLine
 10
0.0
 20
0.06
 30
0.0
 11
0.0
 21
0.5
 31
0.0
  0
ENDBLK
  5
13D
100
AcDbEntity
  8
0
100
AcDbBlockEnd
  0
BLOCK
  5
13E
100
AcDbEntity
  8
0
100
AcDbBlockBegin
  2
TB_BAR_SCALE_1IN30FT
 70
0
 10
0.0
 20
0.0
 30
0.0
  3
TB_BAR_SCALE_1IN30FT
  1

  0
HATCH
  5
13F
100
AcDbEntity
  8
SCALE-BAR
 62
7
420
16777215
370
-1
 48
1.0
  6
ByLayer
100
AcDbHatch
 10
0.0
 20
0.0
 30
0.0
210
0.0
220
0.0
230
1.0
  2
SOLID
 70
1
 71
0
 91
2
 92
1
 93
0
 97
0
 92
1
 93
4
 72
1
 10
0.0
 20
0.0
 11
0.5
 21
0.0
 72
1
 10
0.5
 20
0.0
 11
0.5
 21
0.13
 72
1
 10
0.5
 20
0.13
 11
0.0
 21
0.13
 72
1
 10
0.0
 20
0.13
 11
0.0
 21
0.0
 97
0
 75
0
 76
1
 98
0
1001
ACAD
1010
0.0
1020
0.0
1030
0
  0
LWPOLYLINE
  5
140
100
AcDbEntity
  8
SCALE-BAR
 62
256
370
-1
 48
1.0
  6
ByLayer
100
AcDbPolyline
 90
4
 70
1
 10
0.0
 20
0.0
 10
0.5
 20
0.0
 10
0.5
 20
0.13
 10
0.0
 20
0.13
  0
LWPOLYLINE
  5
141
100
AcDbEntity
  8
SCALE-BAR
 62
256
370
-1
 48
1.0
  6
ByLayer
100
AcDbPolyline
 90
4
 70
1
 10
0.5
 20
0.0
 10
1.0
 20
0.0
 10
1.0
 20
0.13
 10
0.5
 20
0.13
  0
LINE
  5
142
100
AcDbEntity
  8
SCALE-BAR
 62
256
370
-1
 48
1.0
  6
ByLayer
100
AcDbLine
 10
1.0
 20
0.065
 30
0.0
 11
3.0
 21
0.065
 31
0.0
  0
LINE
  5
143
100
AcDbEntity
  8
SCALE-BAR
 62
256
370
-1
 48
1.0
  6
ByLayer
100
AcDbLine
 10
0.0
 20
-0.05
 30
0.0
 11
0.0
 21
0.18
 31
0.0
  0
TEXT
  5
144
100
AcDbEntity
  8
SCALE-BAR
 62
256
370
-1
 48
1.0
  6
ByLayer
100
AcDbText
 10
0.0
 20
-0.1
 30
0.0
 40
0.11
  1
0
 50
0.0
 41
1.0
  7
textstyle37
 71
0
 72
1
 11
0.0
 21
-0.1
 31
0.0
100
AcDbText
 73
3
  0
LINE
  5
145
100
AcDbEntity
  8
SCALE-BAR
 62
256
370
-1
 48
1.0
  6
ByLayer
100
AcDbLine
 10
0.5
 20
-0.05
 30
0.0
 11
0.5
 21
0.18
 31
0.0
  0
TEXT
  5
146
100
AcDbEntity
  8
SCALE-BAR
 62
256
370
-1
 48
1.0
  6
ByLayer
100
AcDbText
 10
0.5
 20
-0.1
 30
0.0
 40
0.11
  1
15
 50
0.0
 41
1.0
  7
textstyle39
 71
0
 72
1
 11
0.5
 21
-0.1
 31
0.0
100
AcDbText
 73
3
  0
LINE
  5
147
100
AcDbEntity
  8
SCALE-BAR
 62
256
370
-1
 48
1.0
  6
ByLayer
100
AcDbLine
 10
1.0
 20
-0.05
 30
0.0
 11
1.0
 21
0.18
 31
0.0
  0
TEXT
  5
148
100
AcDbEntity
  8
SCALE-BAR
 62
256
370
-1
 48
1.0
  6
ByLayer
100
AcDbText
 10
1.0
 20
-0.1
 30
0.0
 40
0.11
  1
30
 50
0.0
 41
1.0
  7
textstyle40
 71
0
 72
1
 11
1.0
 21
-0.1
 31
0.0
100
AcDbText
 73
3
  0
LINE
  5
149
100
AcDbEntity
  8
SCALE-BAR
 62
256
370
-1
 48
1.0
  6
ByLayer
100
AcDbLine
 10
2.0
 20
-0.05
 30
0.0
 11
2.0
 21
0.18
 31
0.0
  0
TEXT
  5
14A
100
AcDbEntity
  8
SCALE-BAR
 62
256
370
-1
 48
1.0
  6
ByLayer
100
AcDbText
 10
2.0
 20
-0.1
 30
0.0
 40
0.11
  1
60
 50
0.0
 41
1.0
  7
textstyle41
 71
0
 72
1
 11
2.0
 21
-0.1
 31
0.0
100
AcDbText
 73
3
  0
LINE
  5
14B
100
AcDbEntity
  8
SCALE-BAR
 62
256
370
-1
 48
1.0
  6
ByLayer
100
AcDbLine
 10
3.0
 20
-0.05
 30
0.0
 11
3.0
 21
0.18
 31
0.0
  0
TEXT
  5
14C
100
AcDbEntity
  8
SCALE-BAR
 62
256
370
-1
 48
1.0
  6
ByLayer
100
AcDbText
 10
3.0
 20
-0.1
 30
0.0
 40
0.11
  1
90
 50
0.0
 41
1.0
  7
textstyle42
 71
0
 72
1
 11
3.0
 21
-0.1
 31
0.0
100
AcDbText
 73
3
  0
TEXT
  5
14D
100
AcDbEntity
  8
SCALE-BAR
 62
256
370
-1
 48
1.0
  6
ByLayer
100
AcDbText
 10
0.0
 20
0.48
 30
0.0
 40
0.14
  1
SCALE: 1" = 30 ft
 50
0.0
 41
1.0
  7
textstyle38
 71
0
 72
0
 11
0.0
 21
0.48
 31
0.0
100
AcDbText
 73
1
  0
ENDBLK
  5
14E
100
AcDbEntity
  8
0
100
AcDbBlockEnd
  0
BLOCK
  5
14F
100
AcDbEntity
  8
0
100
AcDbBlockBegin
  2
SYM_SIPHON
 70
0
 10
0.0
 20
0.0
 30
0.0
  3
SYM_SIPHON
  1

  0
ARC
  5
150
100
AcDbEntity
  8
WATER-SIPHON
 62
256
370
-1
 48
1.0
  6
ByLayer
100
AcDbCircle
 10
0.0
 20
0.1
 30
0.0
 40
0.3
100
AcDbArc
 50
180.0
 51
360.0
  0
LWPOLYLINE
  5
151
100
AcDbEntity
  8
WATER-SIPHON
 62
256
370
-1
 48
1.0
  6
ByLayer
100
AcDbPolyline
 90
2
 70
0
 10
0.0
 20
0.1
 10
0.0
 20
-0.55
  0
LWPOLYLINE
  5
152
100
AcDbEntity
  8
WATER-SIPHON
 62
256
370
-1
 48
1.0
  6
ByLayer
100
AcDbPolyline
 90
3
 70
0
 10
-0.18
 20
-0.35
 10
0.0
 20
-0.55
 10
0.18
 20
-0.35
  0
ENDBLK
  5
153
100
AcDbEntity
  8
0
100
AcDbBlockEnd
  0
BLOCK
  5
154
100
AcDbEntity
  8
0
100
AcDbBlockBegin
  2
SYM_CLAY_MUD_TICK
 70
0
 10
0.0
 20
0.0
 30
0.0
  3
SYM_CLAY_MUD_TICK
  1

  0
LINE
  5
155
100
AcDbEntity
  8
SEDIMENT-CLAY-MUD
 62
256
370
-1
 48
1.0
  6
ByLayer
100
AcDbLine
 10
-0.2
 20
-0.15
 30
0.0
 11
0.2
 21
0.15
 31
0.0
  0
ENDBLK
  5
156
100
AcDbEntity
  8
0
100
AcDbBlockEnd
  0
BLOCK
  5
157
100
AcDbEntity
  8
0
100
AcDbBlockBegin
  2
TB_NORTH_ARROW_DECL
 70
0
 10
0.0
 20
0.0
 30
0.0
  3
TB_NORTH_ARROW_DECL
  1

  0
INSERT
  5
158
100
AcDbEntity
  8
NORTH-ARROW
 62
256
370
-1
 48
1.0
  6
ByLayer
100
AcDbBlockReference
  2
SYM_NORTH_ARROW
 10
0.0
 20
0.0
 30
0.0
  0
TEXT
  5
159
100
AcDbEntity
  8
NORTH-ARROW
 62
256
370
-1
 48
1.0
  6
ByLayer
100
AcDbText
 10
0.9
 20
-1.5
 30
0.0
 40
0.13
  1
MAGNETIC DECLINATION: _____\U+00b0
 50
0.0
 41
1.0
  7
textstyle1
 71
0
 72
0
 11
0.9
 21
-1.5
 31
0.0
100
AcDbText
 73
2
  0
ENDBLK
  5
15A
100
AcDbEntity
  8
0
100
AcDbBlockEnd
  0
BLOCK
  5
15B
100
AcDbEntity
  8
0
100
AcDbBlockBegin
  2
SYM_SUMP
 70
0
 10
0.0
 20
0.0
 30
0.0
  3
SYM_SUMP
  1

  0
CIRCLE
  5
15C
100
AcDbEntity
  8
WATER-POOL-SUMP
 62
256
370
-1
 48
1.0
  6
ByLayer
100
AcDbCircle
 10
0.0
 20
0.0
 30
0.0
 40
0.35
  0
LINE
  5
15D
100
AcDbEntity
  8
WATER-POOL-SUMP
 62
256
370
-1
 48
1.0
  6
ByLayer
100
AcDbLine
 10
-0.22
 20
-0.22
 30
0.0
 11
0.22
 21
0.22
 31
0.0
  0
LINE
  5
15E
100
AcDbEntity
  8
WATER-POOL-SUMP
 62
256
370
-1
 48
1.0
  6
ByLayer
100
AcDbLine
 10
-0.22
 20
0.22
 30
0.0
 11
0.22
 21
-0.22
 31
0.0
  0
ENDBLK
  5
15F
100
AcDbEntity
  8
0
100
AcDbBlockEnd
  0
BLOCK
  5
160
100
AcDbEntity
  8
0
100
AcDbBlockBegin
  2
SYM_FLOW_ARROW
 70
0
 10
0.0
 20
0.0
 30
0.0
  3
SYM_FLOW_ARROW
  1

  0
LWPOLYLINE
  5
161
100
AcDbEntity
  8
0
 62
0
370
-1
 48
1.0
  6
ByLayer
100
AcDbPolyline
 90
2
 70
0
 10
-0.35
 20
0.0
 10
0.35
 20
0.0
  0
LWPOLYLINE
  5
162
100
AcDbEntity
  8
0
 62
0
370
-1
 48
1.0
  6
ByLayer
100
AcDbPolyline
 90
3
 70
0
 10
0.12
 20
0.14
 10
0.35
 20
0.0
 10
0.12
 20
-0.14
  0
ENDBLK
  5
163
100
AcDbEntity
  8
0
100
AcDbBlockEnd
  0
BLOCK
  5
164
100
AcDbEntity
  8
0
100
AcDbBlockBegin
  2
SYM_STALACTITE
 70
0
 10
0.0
 20
0.0
 30
0.0
  3
SYM_STALACTITE
  1

  0
LWPOLYLINE
  5
165
100
AcDbEntity
  8
FORMATIONS-DRIP
 62
256
370
-1
 48
1.0
  6
ByLayer
100
AcDbPolyline
 90
3
 70
1
 10
-0.25
 20
0.5
 10
0.25
 20
0.5
 10
0.0
 20
-0.5
  0
ENDBLK
  5
166
100
AcDbEntity
  8
0
100
AcDbBlockEnd
  0
BLOCK
  5
167
100
AcDbEntity
  8
0
100
AcDbBlockBegin
  2
TB_LEGEND_NOTE
 70
0
 10
0.0
 20
0.0
 30
0.0
  3
TB_LEGEND_NOTE
  1

  0
TEXT
  5
168
100
AcDbEntity
  8
TITLE-BLOCK
 62
256
370
-1
 48
1.0
  6
ByLayer
100
AcDbText
 10
0.0
 20
0.0
 30
0.0
 40
0.14
  1
Symbols per NSS standard (modern practice)
 50
0.0
 41
1.0
  7
textstyle0
 71
0
 72
0
 11
0.0
 21
0.0
 31
0.0
100
AcDbText
 73
1
  0
ENDBLK
  5
169
100
AcDbEntity
  8
0
100
AcDbBlockEnd
  0
BLOCK
  5
16A
100
AcDbEntity
  8
0
100
AcDbBlockBegin
  2
SYM_STALAGMITE
 70
0
 10
0.0
 20
0.0
 30
0.0
  3
SYM_STALAGMITE
  1

  0
LWPOLYLINE
  5
16B
100
AcDbEntity
  8
FORMATIONS-DRIP
 62
256
370
-1
 48
1.0
  6
ByLayer
100
AcDbPolyline
 90
3
 70
1
 10
-0.25
 20
-0.5
 10
0.25
 20
-0.5
 10
0.0
 20
0.5
  0
ENDBLK
  5
16C
100
AcDbEntity
  8
0
100
AcDbBlockEnd
  0
BLOCK
  5
16D
100
AcDbEntity
  8
0
100
AcDbBlockBegin
  2
TB_COPYRIGHT
 70
0
 10
0.0
 20
0.0
 30
0.0
  3
TB_COPYRIGHT
  1

  0
TEXT
  5
16E
100
AcDbEntity
  8
TITLE-BLOCK
 62
256
370
-1
 48
1.0
  6
ByLayer
100
AcDbText
 10
0.0
 20
0.0
 30
0.0
 40
0.14
  1
\U+00a9  ____  ______________________
 50
0.0
 41
1.0
  7
textstyle2
 71
0
 72
0
 11
0.0
 21
0.0
 31
0.0
100
AcDbText
 73
1
  0
ENDBLK
  5
16F
100
AcDbEntity
  8
0
100
AcDbBlockEnd
  0
BLOCK
  5
170
100
AcDbEntity
  8
0
100
AcDbBlockBegin
  2
TB_CAVE_NAME
 70
0
 10
0.0
 20
0.0
 30
0.0
  3
TB_CAVE_NAME
  1

  0
TEXT
  5
171
100
AcDbEntity
  8
TITLE-BLOCK
 62
256
370
-1
 48
1.0
  6
ByLayer
100
AcDbText
 10
0.0
 20
0.0
 30
0.0
 40
0.42
  1
CAVE NAME
 50
0.0
 41
1.0
  7
textstyle3
 71
0
 72
0
 11
0.0
 21
0.0
 31
0.0
100
AcDbText
 73
1
  0
ENDBLK
  5
172
100
AcDbEntity
  8
0
100
AcDbBlockEnd
  0
BLOCK
  5
173
100
AcDbEntity
  8
0
100
AcDbBlockBegin
  2
TB_LOCATION
 70
0
 10
0.0
 20
0.0
 30
0.0
  3
TB_LOCATION
  1

  0
TEXT
  5
174
100
AcDbEntity
  8
TITLE-BLOCK
 62
256
370
-1
 48
1.0
  6
ByLayer
100
AcDbText
 10
0.0
 20
0.0
 30
0.0
 40
0.18
  1
Location:  ___________ County,  ___________ (State/Country)
 50
0.0
 41
1.0
  7
textstyle4
 71
0
 72
0
 11
0.0
 21
0.0
 31
0.0
100
AcDbText
 73
1
  0
ENDBLK
  5
175
100
AcDbEntity
  8
0
100
AcDbBlockEnd
  0
BLOCK
  5
176
100
AcDbEntity
  8
0
100
AcDbBlockBegin
  2
SYM_JOINT_TICK
 70
0
 10
0.0
 20
0.0
 30
0.0
  3
SYM_JOINT_TICK
  1

  0
LINE
  5
177
100
AcDbEntity
  8
0
 62
0
370
-1
 48
1.0
  6
ByLayer
100
AcDbLine
 10
-0.25
 20
0.0
 30
0.0
 11
0.25
 21
0.0
 31
0.0
  0
ENDBLK
  5
178
100
AcDbEntity
  8
0
100
AcDbBlockEnd
  0
BLOCK
  5
179
100
AcDbEntity
  8
0
100
AcDbBlockBegin
  2
SYM_SLOPE_TICK
 70
0
 10
0.0
 20
0.0
 30
0.0
  3
SYM_SLOPE_TICK
  1

  0
LWPOLYLINE
  5
17A
100
AcDbEntity
  8
0
 62
0
370
-1
 48
1.0
  6
ByLayer
100
AcDbPolyline
 90
3
 70
1
 10
0.0
 20
0.3
 10
0.05
 20
-0.3
 10
-0.05
 20
-0.3
  0
ENDBLK
  5
17B
100
AcDbEntity
  8
0
100
AcDbBlockEnd
  0
BLOCK
  5
17C
100
AcDbEntity
  8
0
100
AcDbBlockBegin
  2
SYM_BREAKDOWN_B
 70
0
 10
0.0
 20
0.0
 30
0.0
  3
SYM_BREAKDOWN_B
  1

  0
LWPOLYLINE
  5
17D
100
AcDbEntity
  8
BREAKDOWN
 62
256
370
-1
 48
1.0
  6
ByLayer
100
AcDbPolyline
 90
4
 70
1
 10
-0.55
 20
0.05
 10
-0.25
 20
0.35
 10
0.05
 20
0.15
 10
-0.15
 20
-0.2
  0
LWPOLYLINE
  5
17E
100
AcDbEntity
  8
BREAKDOWN
 62
256
370
-1
 48
1.0
  6
ByLayer
100
AcDbPolyline
 90
4
 70
1
 10
0.1
 20
-0.3
 10
0.45
 20
-0.15
 10
0.55
 20
-0.45
 10
0.25
 20
-0.55
  0
LWPOLYLINE
  5
17F
100
AcDbEntity
  8
BREAKDOWN
 62
256
370
-1
 48
1.0
  6
ByLayer
100
AcDbPolyline
 90
4
 70
1
 10
-0.1
 20
0.35
 10
0.2
 20
0.55
 10
0.4
 20
0.3
 10
0.15
 20
0.15
  0
ENDBLK
  5
180
100
AcDbEntity
  8
0
100
AcDbBlockEnd
  0
BLOCK
  5
181
100
AcDbEntity
  8
0
100
AcDbBlockBegin
  2
SYM_ENTRANCE
 70
0
 10
0.0
 20
0.0
 30
0.0
  3
SYM_ENTRANCE
  1

  0
LWPOLYLINE
  5
182
100
AcDbEntity
  8
ENTRANCE
 62
256
370
-1
 48
1.0
  6
ByLayer
100
AcDbPolyline
 90
2
 70
0
 10
0.0
 20
-1.2
 10
0.0
 20
1.2
  0
LWPOLYLINE
  5
183
100
AcDbEntity
  8
ENTRANCE
 62
256
370
-1
 48
1.0
  6
ByLayer
100
AcDbPolyline
 90
3
 70
0
 10
-0.4
 20
0.6
 10
0.0
 20
1.2
 10
0.4
 20
0.6
  0
ENDBLK
  5
184
100
AcDbEntity
  8
0
100
AcDbBlockEnd
  0
BLOCK
  5
185
100
AcDbEntity
  8
0
100
AcDbBlockBegin
  2
TB_BAR_SCALE_1IN100FT
 70
0
 10
0.0
 20
0.0
 30
0.0
  3
TB_BAR_SCALE_1IN100FT
  1

  0
HATCH
  5
186
100
AcDbEntity
  8
SCALE-BAR
 62
7
420
16777215
370
-1
 48
1.0
  6
ByLayer
100
AcDbHatch
 10
0.0
 20
0.0
 30
0.0
210
0.0
220
0.0
230
1.0
  2
SOLID
 70
1
 71
0
 91
2
 92
1
 93
0
 97
0
 92
1
 93
4
 72
1
 10
0.0
 20
0.0
 11
0.5
 21
0.0
 72
1
 10
0.5
 20
0.0
 11
0.5
 21
0.13
 72
1
 10
0.5
 20
0.13
 11
0.0
 21
0.13
 72
1
 10
0.0
 20
0.13
 11
0.0
 21
0.0
 97
0
 75
0
 76
1
 98
0
1001
ACAD
1010
0.0
1020
0.0
1030
0
  0
LWPOLYLINE
  5
187
100
AcDbEntity
  8
SCALE-BAR
 62
256
370
-1
 48
1.0
  6
ByLayer
100
AcDbPolyline
 90
4
 70
1
 10
0.0
 20
0.0
 10
0.5
 20
0.0
 10
0.5
 20
0.13
 10
0.0
 20
0.13
  0
LWPOLYLINE
  5
188
100
AcDbEntity
  8
SCALE-BAR
 62
256
370
-1
 48
1.0
  6
ByLayer
100
AcDbPolyline
 90
4
 70
1
 10
0.5
 20
0.0
 10
1.0
 20
0.0
 10
1.0
 20
0.13
 10
0.5
 20
0.13
  0
LINE
  5
189
100
AcDbEntity
  8
SCALE-BAR
 62
256
370
-1
 48
1.0
  6
ByLayer
100
AcDbLine
 10
1.0
 20
0.065
 30
0.0
 11
3.0
 21
0.065
 31
0.0
  0
LINE
  5
18A
100
AcDbEntity
  8
SCALE-BAR
 62
256
370
-1
 48
1.0
  6
ByLayer
100
AcDbLine
 10
0.0
 20
-0.05
 30
0.0
 11
0.0
 21
0.18
 31
0.0
  0
TEXT
  5
18B
100
AcDbEntity
  8
SCALE-BAR
 62
256
370
-1
 48
1.0
  6
ByLayer
100
AcDbText
 10
0.0
 20
-0.1
 30
0.0
 40
0.11
  1
0
 50
0.0
 41
1.0
  7
textstyle10
 71
0
 72
1
 11
0.0
 21
-0.1
 31
0.0
100
AcDbText
 73
3
  0
LINE
  5
18C
100
AcDbEntity
  8
SCALE-BAR
 62
256
370
-1
 48
1.0
  6
ByLayer
100
AcDbLine
 10
0.5
 20
-0.05
 30
0.0
 11
0.5
 21
0.18
 31
0.0
  0
TEXT
  5
18D
100
AcDbEntity
  8
SCALE-BAR
 62
256
370
-1
 48
1.0
  6
ByLayer
100
AcDbText
 10
0.5
 20
-0.1
 30
0.0
 40
0.11
  1
50
 50
0.0
 41
1.0
  7
textstyle5
 71
0
 72
1
 11
0.5
 21
-0.1
 31
0.0
100
AcDbText
 73
3
  0
LINE
  5
18E
100
AcDbEntity
  8
SCALE-BAR
 62
256
370
-1
 48
1.0
  6
ByLayer
100
AcDbLine
 10
1.0
 20
-0.05
 30
0.0
 11
1.0
 21
0.18
 31
0.0
  0
TEXT
  5
18F
100
AcDbEntity
  8
SCALE-BAR
 62
256
370
-1
 48
1.0
  6
ByLayer
100
AcDbText
 10
1.0
 20
-0.1
 30
0.0
 40
0.11
  1
100
 50
0.0
 41
1.0
  7
textstyle6
 71
0
 72
1
 11
1.0
 21
-0.1
 31
0.0
100
AcDbText
 73
3
  0
LINE
  5
190
100
AcDbEntity
  8
SCALE-BAR
 62
256
370
-1
 48
1.0
  6
ByLayer
100
AcDbLine
 10
2.0
 20
-0.05
 30
0.0
 11
2.0
 21
0.18
 31
0.0
  0
TEXT
  5
191
100
AcDbEntity
  8
SCALE-BAR
 62
256
370
-1
 48
1.0
  6
ByLayer
100
AcDbText
 10
2.0
 20
-0.1
 30
0.0
 40
0.11
  1
200
 50
0.0
 41
1.0
  7
textstyle7
 71
0
 72
1
 11
2.0
 21
-0.1
 31
0.0
100
AcDbText
 73
3
  0
LINE
  5
192
100
AcDbEntity
  8
SCALE-BAR
 62
256
370
-1
 48
1.0
  6
ByLayer
100
AcDbLine
 10
3.0
 20
-0.05
 30
0.0
 11
3.0
 21
0.18
 31
0.0
  0
TEXT
  5
193
100
AcDbEntity
  8
SCALE-BAR
 62
256
370
-1
 48
1.0
  6
ByLayer
100
AcDbText
 10
3.0
 20
-0.1
 30
0.0
 40
0.11
  1
300
 50
0.0
 41
1.0
  7
textstyle8
 71
0
 72
1
 11
3.0
 21
-0.1
 31
0.0
100
AcDbText
 73
3
  0
TEXT
  5
194
100
AcDbEntity
  8
SCALE-BAR
 62
256
370
-1
 48
1.0
  6
ByLayer
100
AcDbText
 10
0.0
 20
0.48
 30
0.0
 40
0.14
  1
SCALE: 1" = 100 ft
 50
0.0
 41
1.0
  7
textstyle9
 71
0
 72
0
 11
0.0
 21
0.48
 31
0.0
100
AcDbText
 73
1
  0
ENDBLK
  5
195
100
AcDbEntity
  8
0
100
AcDbBlockEnd
  0
BLOCK
  5
196
100
AcDbEntity
  8
0
100
AcDbBlockBegin
  2
SYM_RIMSTONE_DAM
 70
0
 10
0.0
 20
0.0
 30
0.0
  3
SYM_RIMSTONE_DAM
  1

  0
ARC
  5
197
100
AcDbEntity
  8
FORMATIONS-RIMSTONE
 62
256
370
-1
 48
1.0
  6
ByLayer
100
AcDbCircle
 10
0.0
 20
-0.3
 30
0.0
 40
0.5
100
AcDbArc
 50
20.0
 51
160.0
  0
LINE
  5
198
100
AcDbEntity
  8
FORMATIONS-RIMSTONE
 62
256
370
-1
 48
1.0
  6
ByLayer
100
AcDbLine
 10
-0.47
 20
-0.13
 30
0.0
 11
-0.47
 21
0.15
 31
0.0
  0
LINE
  5
199
100
AcDbEntity
  8
FORMATIONS-RIMSTONE
 62
256
370
-1
 48
1.0
  6
ByLayer
100
AcDbLine
 10
0.47
 20
-0.13
 30
0.0
 11
0.47
 21
0.15
 31
0.0
  0
ENDBLK
  5
19A
100
AcDbEntity
  8
0
100
AcDbBlockEnd
  0
BLOCK
  5
19B
100
AcDbEntity
  8
0
100
AcDbBlockBegin
  2
TB_CARTOGRAPHY_BY
 70
0
 10
0.0
 20
0.0
 30
0.0
  3
TB_CARTOGRAPHY_BY
  1

  0
TEXT
  5
19C
100
AcDbEntity
  8
TITLE-BLOCK
 62
256
370
-1
 48
1.0
  6
ByLayer
100
AcDbText
 10
0.0
 20
0.0
 30
0.0
 40
0.14
  1
Cartography by:  ______________________
 50
0.0
 41
1.0
  7
textstyle13
 71
0
 72
0
 11
0.0
 21
0.0
 31
0.0
100
AcDbText
 73
1
  0
ENDBLK
  5
19D
100
AcDbEntity
  8
0
100
AcDbBlockEnd
  0
BLOCK
  5
19E
100
AcDbEntity
  8
0
100
AcDbBlockBegin
  2
TB_BAR_SCALE_1IN200FT
 70
0
 10
0.0
 20
0.0
 30
0.0
  3
TB_BAR_SCALE_1IN200FT
  1

  0
HATCH
  5
19F
100
AcDbEntity
  8
SCALE-BAR
 62
7
420
16777215
370
-1
 48
1.0
  6
ByLayer
100
AcDbHatch
 10
0.0
 20
0.0
 30
0.0
210
0.0
220
0.0
230
1.0
  2
SOLID
 70
1
 71
0
 91
2
 92
1
 93
0
 97
0
 92
1
 93
4
 72
1
 10
0.0
 20
0.0
 11
0.5
 21
0.0
 72
1
 10
0.5
 20
0.0
 11
0.5
 21
0.13
 72
1
 10
0.5
 20
0.13
 11
0.0
 21
0.13
 72
1
 10
0.0
 20
0.13
 11
0.0
 21
0.0
 97
0
 75
0
 76
1
 98
0
1001
ACAD
1010
0.0
1020
0.0
1030
0
  0
LWPOLYLINE
  5
1A0
100
AcDbEntity
  8
SCALE-BAR
 62
256
370
-1
 48
1.0
  6
ByLayer
100
AcDbPolyline
 90
4
 70
1
 10
0.0
 20
0.0
 10
0.5
 20
0.0
 10
0.5
 20
0.13
 10
0.0
 20
0.13
  0
LWPOLYLINE
  5
1A1
100
AcDbEntity
  8
SCALE-BAR
 62
256
370
-1
 48
1.0
  6
ByLayer
100
AcDbPolyline
 90
4
 70
1
 10
0.5
 20
0.0
 10
1.0
 20
0.0
 10
1.0
 20
0.13
 10
0.5
 20
0.13
  0
LINE
  5
1A2
100
AcDbEntity
  8
SCALE-BAR
 62
256
370
-1
 48
1.0
  6
ByLayer
100
AcDbLine
 10
1.0
 20
0.065
 30
0.0
 11
3.0
 21
0.065
 31
0.0
  0
LINE
  5
1A3
100
AcDbEntity
  8
SCALE-BAR
 62
256
370
-1
 48
1.0
  6
ByLayer
100
AcDbLine
 10
0.0
 20
-0.05
 30
0.0
 11
0.0
 21
0.18
 31
0.0
  0
TEXT
  5
1A4
100
AcDbEntity
  8
SCALE-BAR
 62
256
370
-1
 48
1.0
  6
ByLayer
100
AcDbText
 10
0.0
 20
-0.1
 30
0.0
 40
0.11
  1
0
 50
0.0
 41
1.0
  7
textstyle11
 71
0
 72
1
 11
0.0
 21
-0.1
 31
0.0
100
AcDbText
 73
3
  0
LINE
  5
1A5
100
AcDbEntity
  8
SCALE-BAR
 62
256
370
-1
 48
1.0
  6
ByLayer
100
AcDbLine
 10
0.5
 20
-0.05
 30
0.0
 11
0.5
 21
0.18
 31
0.0
  0
TEXT
  5
1A6
100
AcDbEntity
  8
SCALE-BAR
 62
256
370
-1
 48
1.0
  6
ByLayer
100
AcDbText
 10
0.5
 20
-0.1
 30
0.0
 40
0.11
  1
100
 50
0.0
 41
1.0
  7
textstyle12
 71
0
 72
1
 11
0.5
 21
-0.1
 31
0.0
100
AcDbText
 73
3
  0
LINE
  5
1A7
100
AcDbEntity
  8
SCALE-BAR
 62
256
370
-1
 48
1.0
  6
ByLayer
100
AcDbLine
 10
1.0
 20
-0.05
 30
0.0
 11
1.0
 21
0.18
 31
0.0
  0
TEXT
  5
1A8
100
AcDbEntity
  8
SCALE-BAR
 62
256
370
-1
 48
1.0
  6
ByLayer
100
AcDbText
 10
1.0
 20
-0.1
 30
0.0
 40
0.11
  1
200
 50
0.0
 41
1.0
  7
textstyle16
 71
0
 72
1
 11
1.0
 21
-0.1
 31
0.0
100
AcDbText
 73
3
  0
LINE
  5
1A9
100
AcDbEntity
  8
SCALE-BAR
 62
256
370
-1
 48
1.0
  6
ByLayer
100
AcDbLine
 10
2.0
 20
-0.05
 30
0.0
 11
2.0
 21
0.18
 31
0.0
  0
TEXT
  5
1AA
100
AcDbEntity
  8
SCALE-BAR
 62
256
370
-1
 48
1.0
  6
ByLayer
100
AcDbText
 10
2.0
 20
-0.1
 30
0.0
 40
0.11
  1
400
 50
0.0
 41
1.0
  7
textstyle17
 71
0
 72
1
 11
2.0
 21
-0.1
 31
0.0
100
AcDbText
 73
3
  0
LINE
  5
1AB
100
AcDbEntity
  8
SCALE-BAR
 62
256
370
-1
 48
1.0
  6
ByLayer
100
AcDbLine
 10
3.0
 20
-0.05
 30
0.0
 11
3.0
 21
0.18
 31
0.0
  0
TEXT
  5
1AC
100
AcDbEntity
  8
SCALE-BAR
 62
256
370
-1
 48
1.0
  6
ByLayer
100
AcDbText
 10
3.0
 20
-0.1
 30
0.0
 40
0.11
  1
600
 50
0.0
 41
1.0
  7
textstyle18
 71
0
 72
1
 11
3.0
 21
-0.1
 31
0.0
100
AcDbText
 73
3
  0
TEXT
  5
1AD
100
AcDbEntity
  8
SCALE-BAR
 62
256
370
-1
 48
1.0
  6
ByLayer
100
AcDbText
 10
0.0
 20
0.48
 30
0.0
 40
0.14
  1
SCALE: 1" = 200 ft
 50
0.0
 41
1.0
  7
textstyle19
 71
0
 72
0
 11
0.0
 21
0.48
 31
0.0
100
AcDbText
 73
1
  0
ENDBLK
  5
1AE
100
AcDbEntity
  8
0
100
AcDbBlockEnd
  0
BLOCK
  5
1AF
100
AcDbEntity
  8
0
100
AcDbBlockBegin
  2
TB_BAR_SCALE_1IN400FT
 70
0
 10
0.0
 20
0.0
 30
0.0
  3
TB_BAR_SCALE_1IN400FT
  1

  0
HATCH
  5
1B0
100
AcDbEntity
  8
SCALE-BAR
 62
7
420
16777215
370
-1
 48
1.0
  6
ByLayer
100
AcDbHatch
 10
0.0
 20
0.0
 30
0.0
210
0.0
220
0.0
230
1.0
  2
SOLID
 70
1
 71
0
 91
2
 92
1
 93
0
 97
0
 92
1
 93
4
 72
1
 10
0.0
 20
0.0
 11
0.5
 21
0.0
 72
1
 10
0.5
 20
0.0
 11
0.5
 21
0.13
 72
1
 10
0.5
 20
0.13
 11
0.0
 21
0.13
 72
1
 10
0.0
 20
0.13
 11
0.0
 21
0.0
 97
0
 75
0
 76
1
 98
0
1001
ACAD
1010
0.0
1020
0.0
1030
0
  0
LWPOLYLINE
  5
1B1
100
AcDbEntity
  8
SCALE-BAR
 62
256
370
-1
 48
1.0
  6
ByLayer
100
AcDbPolyline
 90
4
 70
1
 10
0.0
 20
0.0
 10
0.5
 20
0.0
 10
0.5
 20
0.13
 10
0.0
 20
0.13
  0
LWPOLYLINE
  5
1B2
100
AcDbEntity
  8
SCALE-BAR
 62
256
370
-1
 48
1.0
  6
ByLayer
100
AcDbPolyline
 90
4
 70
1
 10
0.5
 20
0.0
 10
1.0
 20
0.0
 10
1.0
 20
0.13
 10
0.5
 20
0.13
  0
LINE
  5
1B3
100
AcDbEntity
  8
SCALE-BAR
 62
256
370
-1
 48
1.0
  6
ByLayer
100
AcDbLine
 10
1.0
 20
0.065
 30
0.0
 11
3.0
 21
0.065
 31
0.0
  0
LINE
  5
1B4
100
AcDbEntity
  8
SCALE-BAR
 62
256
370
-1
 48
1.0
  6
ByLayer
100
AcDbLine
 10
0.0
 20
-0.05
 30
0.0
 11
0.0
 21
0.18
 31
0.0
  0
TEXT
  5
1B5
100
AcDbEntity
  8
SCALE-BAR
 62
256
370
-1
 48
1.0
  6
ByLayer
100
AcDbText
 10
0.0
 20
-0.1
 30
0.0
 40
0.11
  1
0
 50
0.0
 41
1.0
  7
textstyle14
 71
0
 72
1
 11
0.0
 21
-0.1
 31
0.0
100
AcDbText
 73
3
  0
LINE
  5
1B6
100
AcDbEntity
  8
SCALE-BAR
 62
256
370
-1
 48
1.0
  6
ByLayer
100
AcDbLine
 10
0.5
 20
-0.05
 30
0.0
 11
0.5
 21
0.18
 31
0.0
  0
TEXT
  5
1B7
100
AcDbEntity
  8
SCALE-BAR
 62
256
370
-1
 48
1.0
  6
ByLayer
100
AcDbText
 10
0.5
 20
-0.1
 30
0.0
 40
0.11
  1
200
 50
0.0
 41
1.0
  7
textstyle15
 71
0
 72
1
 11
0.5
 21
-0.1
 31
0.0
100
AcDbText
 73
3
  0
LINE
  5
1B8
100
AcDbEntity
  8
SCALE-BAR
 62
256
370
-1
 48
1.0
  6
ByLayer
100
AcDbLine
 10
1.0
 20
-0.05
 30
0.0
 11
1.0
 21
0.18
 31
0.0
  0
TEXT
  5
1B9
100
AcDbEntity
  8
SCALE-BAR
 62
256
370
-1
 48
1.0
  6
ByLayer
100
AcDbText
 10
1.0
 20
-0.1
 30
0.0
 40
0.11
  1
400
 50
0.0
 41
1.0
  7
textstyle22
 71
0
 72
1
 11
1.0
 21
-0.1
 31
0.0
100
AcDbText
 73
3
  0
LINE
  5
1BA
100
AcDbEntity
  8
SCALE-BAR
 62
256
370
-1
 48
1.0
  6
ByLayer
100
AcDbLine
 10
2.0
 20
-0.05
 30
0.0
 11
2.0
 21
0.18
 31
0.0
  0
TEXT
  5
1BB
100
AcDbEntity
  8
SCALE-BAR
 62
256
370
-1
 48
1.0
  6
ByLayer
100
AcDbText
 10
2.0
 20
-0.1
 30
0.0
 40
0.11
  1
800
 50
0.0
 41
1.0
  7
textstyle23
 71
0
 72
1
 11
2.0
 21
-0.1
 31
0.0
100
AcDbText
 73
3
  0
LINE
  5
1BC
100
AcDbEntity
  8
SCALE-BAR
 62
256
370
-1
 48
1.0
  6
ByLayer
100
AcDbLine
 10
3.0
 20
-0.05
 30
0.0
 11
3.0
 21
0.18
 31
0.0
  0
TEXT
  5
1BD
100
AcDbEntity
  8
SCALE-BAR
 62
256
370
-1
 48
1.0
  6
ByLayer
100
AcDbText
 10
3.0
 20
-0.1
 30
0.0
 40
0.11
  1
1200
 50
0.0
 41
1.0
  7
textstyle24
 71
0
 72
1
 11
3.0
 21
-0.1
 31
0.0
100
AcDbText
 73
3
  0
TEXT
  5
1BE
100
AcDbEntity
  8
SCALE-BAR
 62
256
370
-1
 48
1.0
  6
ByLayer
100
AcDbText
 10
0.0
 20
0.48
 30
0.0
 40
0.14
  1
SCALE: 1" = 400 ft
 50
0.0
 41
1.0
  7
textstyle25
 71
0
 72
0
 11
0.0
 21
0.48
 31
0.0
100
AcDbText
 73
1
  0
ENDBLK
  5
1BF
100
AcDbEntity
  8
0
100
AcDbBlockEnd
  0
BLOCK
  5
1C0
100
AcDbEntity
  8
0
100
AcDbBlockBegin
  2
TB_PERSONNEL
 70
0
 10
0.0
 20
0.0
 30
0.0
  3
TB_PERSONNEL
  1

  0
TEXT
  5
1C1
100
AcDbEntity
  8
TITLE-BLOCK
 62
256
370
-1
 48
1.0
  6
ByLayer
100
AcDbText
 10
0.0
 20
0.0
 30
0.0
 40
0.14
  1
Personnel:  ______________________
 50
0.0
 41
1.0
  7
textstyle26
 71
0
 72
0
 11
0.0
 21
0.0
 31
0.0
100
AcDbText
 73
1
  0
ENDBLK
  5
1C2
100
AcDbEntity
  8
0
100
AcDbBlockEnd
  0
BLOCK
  5
1C3
100
AcDbEntity
  8
0
100
AcDbBlockBegin
  2
TB_SURVEY_METHOD
 70
0
 10
0.0
 20
0.0
 30
0.0
  3
TB_SURVEY_METHOD
  1

  0
TEXT
  5
1C4
100
AcDbEntity
  8
TITLE-BLOCK
 62
256
370
-1
 48
1.0
  6
ByLayer
100
AcDbText
 10
0.0
 20
0.0
 30
0.0
 40
0.14
  1
Survey method:  ______________________
 50
0.0
 41
1.0
  7
textstyle20
 71
0
 72
0
 11
0.0
 21
0.0
 31
0.0
100
AcDbText
 73
1
  0
ENDBLK
  5
1C5
100
AcDbEntity
  8
0
100
AcDbBlockEnd
  0
BLOCK
  5
1C6
100
AcDbEntity
  8
0
100
AcDbBlockBegin
  2
TB_DEPTH
 70
0
 10
0.0
 20
0.0
 30
0.0
  3
TB_DEPTH
  1

  0
TEXT
  5
1C7
100
AcDbEntity
  8
TITLE-BLOCK
 62
256
370
-1
 48
1.0
  6
ByLayer
100
AcDbText
 10
0.0
 20
0.0
 30
0.0
 40
0.14
  1
Depth:  __________ ft
 50
0.0
 41
1.0
  7
textstyle21
 71
0
 72
0
 11
0.0
 21
0.0
 31
0.0
100
AcDbText
 73
1
  0
ENDBLK
  5
1C8
100
AcDbEntity
  8
0
100
AcDbBlockEnd
  0
BLOCK
  5
1C9
100
AcDbEntity
  8
0
100
AcDbBlockBegin
  2
TB_DATE
 70
0
 10
0.0
 20
0.0
 30
0.0
  3
TB_DATE
  1

  0
TEXT
  5
1CA
100
AcDbEntity
  8
TITLE-BLOCK
 62
256
370
-1
 48
1.0
  6
ByLayer
100
AcDbText
 10
0.0
 20
0.0
 30
0.0
 40
0.14
  1
Date surveyed:  ______________________
 50
0.0
 41
1.0
  7
textstyle31
 71
0
 72
0
 11
0.0
 21
0.0
 31
0.0
100
AcDbText
 73
1
  0
ENDBLK
  5
1CB
100
AcDbEntity
  8
0
100
AcDbBlockEnd
  0
BLOCK
  5
1CC
100
AcDbEntity
  8
0
100
AcDbBlockBegin
  2
SYM_SECTION_MARKER
 70
0
 10
0.0
 20
0.0
 30
0.0
  3
SYM_SECTION_MARKER
  1

  0
LINE
  5
1CD
100
AcDbEntity
  8
CROSS-SECTION-MARKERS
 62
256
370
-1
 48
1.0
  6
ByLayer
100
AcDbLine
 10
-0.6
 20
0.0
 30
0.0
 11
0.6
 21
0.0
 31
0.0
  0
CIRCLE
  5
1CE
100
AcDbEntity
  8
CROSS-SECTION-MARKERS
 62
256
370
-1
 48
1.0
  6
ByLayer
100
AcDbCircle
 10
0.6
 20
0.0
 30
0.0
 40
0.18
  0
ENDBLK
  5
1CF
100
AcDbEntity
  8
0
100
AcDbBlockEnd
  0
BLOCK
  5
1D0
100
AcDbEntity
  8
0
100
AcDbBlockBegin
  2
TB_LENGTH
 70
0
 10
0.0
 20
0.0
 30
0.0
  3
TB_LENGTH
  1

  0
TEXT
  5
1D1
100
AcDbEntity
  8
TITLE-BLOCK
 62
256
370
-1
 48
1.0
  6
ByLayer
100
AcDbText
 10
0.0
 20
0.0
 30
0.0
 40
0.14
  1
Length:  __________ ft
 50
0.0
 41
1.0
  7
textstyle32
 71
0
 72
0
 11
0.0
 21
0.0
 31
0.0
100
AcDbText
 73
1
  0
ENDBLK
  5
1D2
100
AcDbEntity
  8
0
100
AcDbBlockEnd
  0
BLOCK
  5
1D3
100
AcDbEntity
  8
0
100
AcDbBlockBegin
  2
TB_BAR_SCALE_1IN20FT
 70
0
 10
0.0
 20
0.0
 30
0.0
  3
TB_BAR_SCALE_1IN20FT
  1

  0
HATCH
  5
1D4
100
AcDbEntity
  8
SCALE-BAR
 62
7
420
16777215
370
-1
 48
1.0
  6
ByLayer
100
AcDbHatch
 10
0.0
 20
0.0
 30
0.0
210
0.0
220
0.0
230
1.0
  2
SOLID
 70
1
 71
0
 91
2
 92
1
 93
0
 97
0
 92
1
 93
4
 72
1
 10
0.0
 20
0.0
 11
0.5
 21
0.0
 72
1
 10
0.5
 20
0.0
 11
0.5
 21
0.13
 72
1
 10
0.5
 20
0.13
 11
0.0
 21
0.13
 72
1
 10
0.0
 20
0.13
 11
0.0
 21
0.0
 97
0
 75
0
 76
1
 98
0
1001
ACAD
1010
0.0
1020
0.0
1030
0
  0
LWPOLYLINE
  5
1D5
100
AcDbEntity
  8
SCALE-BAR
 62
256
370
-1
 48
1.0
  6
ByLayer
100
AcDbPolyline
 90
4
 70
1
 10
0.0
 20
0.0
 10
0.5
 20
0.0
 10
0.5
 20
0.13
 10
0.0
 20
0.13
  0
LWPOLYLINE
  5
1D6
100
AcDbEntity
  8
SCALE-BAR
 62
256
370
-1
 48
1.0
  6
ByLayer
100
AcDbPolyline
 90
4
 70
1
 10
0.5
 20
0.0
 10
1.0
 20
0.0
 10
1.0
 20
0.13
 10
0.5
 20
0.13
  0
LINE
  5
1D7
100
AcDbEntity
  8
SCALE-BAR
 62
256
370
-1
 48
1.0
  6
ByLayer
100
AcDbLine
 10
1.0
 20
0.065
 30
0.0
 11
3.0
 21
0.065
 31
0.0
  0
LINE
  5
1D8
100
AcDbEntity
  8
SCALE-BAR
 62
256
370
-1
 48
1.0
  6
ByLayer
100
AcDbLine
 10
0.0
 20
-0.05
 30
0.0
 11
0.0
 21
0.18
 31
0.0
  0
TEXT
  5
1D9
100
AcDbEntity
  8
SCALE-BAR
 62
256
370
-1
 48
1.0
  6
ByLayer
100
AcDbText
 10
0.0
 20
-0.1
 30
0.0
 40
0.11
  1
0
 50
0.0
 41
1.0
  7
textstyle27
 71
0
 72
1
 11
0.0
 21
-0.1
 31
0.0
100
AcDbText
 73
3
  0
LINE
  5
1DA
100
AcDbEntity
  8
SCALE-BAR
 62
256
370
-1
 48
1.0
  6
ByLayer
100
AcDbLine
 10
0.5
 20
-0.05
 30
0.0
 11
0.5
 21
0.18
 31
0.0
  0
TEXT
  5
1DB
100
AcDbEntity
  8
SCALE-BAR
 62
256
370
-1
 48
1.0
  6
ByLayer
100
AcDbText
 10
0.5
 20
-0.1
 30
0.0
 40
0.11
  1
10
 50
0.0
 41
1.0
  7
textstyle28
 71
0
 72
1
 11
0.5
 21
-0.1
 31
0.0
100
AcDbText
 73
3
  0
LINE
  5
1DC
100
AcDbEntity
  8
SCALE-BAR
 62
256
370
-1
 48
1.0
  6
ByLayer
100
AcDbLine
 10
1.0
 20
-0.05
 30
0.0
 11
1.0
 21
0.18
 31
0.0
  0
TEXT
  5
1DD
100
AcDbEntity
  8
SCALE-BAR
 62
256
370
-1
 48
1.0
  6
ByLayer
100
AcDbText
 10
1.0
 20
-0.1
 30
0.0
 40
0.11
  1
20
 50
0.0
 41
1.0
  7
textstyle29
 71
0
 72
1
 11
1.0
 21
-0.1
 31
0.0
100
AcDbText
 73
3
  0
LINE
  5
1DE
100
AcDbEntity
  8
SCALE-BAR
 62
256
370
-1
 48
1.0
  6
ByLayer
100
AcDbLine
 10
2.0
 20
-0.05
 30
0.0
 11
2.0
 21
0.18
 31
0.0
  0
TEXT
  5
1DF
100
AcDbEntity
  8
SCALE-BAR
 62
256
370
-1
 48
1.0
  6
ByLayer
100
AcDbText
 10
2.0
 20
-0.1
 30
0.0
 40
0.11
  1
40
 50
0.0
 41
1.0
  7
textstyle30
 71
0
 72
1
 11
2.0
 21
-0.1
 31
0.0
100
AcDbText
 73
3
  0
LINE
  5
1E0
100
AcDbEntity
  8
SCALE-BAR
 62
256
370
-1
 48
1.0
  6
ByLayer
100
AcDbLine
 10
3.0
 20
-0.05
 30
0.0
 11
3.0
 21
0.18
 31
0.0
  0
TEXT
  5
1E1
100
AcDbEntity
  8
SCALE-BAR
 62
256
370
-1
 48
1.0
  6
ByLayer
100
AcDbText
 10
3.0
 20
-0.1
 30
0.0
 40
0.11
  1
60
 50
0.0
 41
1.0
  7
textstyle34
 71
0
 72
1
 11
3.0
 21
-0.1
 31
0.0
100
AcDbText
 73
3
  0
TEXT
  5
1E2
100
AcDbEntity
  8
SCALE-BAR
 62
256
370
-1
 48
1.0
  6
ByLayer
100
AcDbText
 10
0.0
 20
0.48
 30
0.0
 40
0.14
  1
SCALE: 1" = 20 ft
 50
0.0
 41
1.0
  7
textstyle35
 71
0
 72
0
 11
0.0
 21
0.48
 31
0.0
100
AcDbText
 73
1
  0
ENDBLK
  5
1E3
100
AcDbEntity
  8
0
100
AcDbBlockEnd
  0
BLOCK
  5
1E4
100
AcDbEntity
  8
0
100
AcDbBlockBegin
  2
SYM_SPRING
 70
0
 10
0.0
 20
0.0
 30
0.0
  3
SYM_SPRING
  1

  0
ARC
  5
1E5
100
AcDbEntity
  8
WATER-SPRING-RESURGENCE
 62
256
370
-1
 48
1.0
  6
ByLayer
100
AcDbCircle
 10
0.0
 20
0.0
 30
0.0
 40
0.22
100
AcDbArc
 50
0.0
 51
360.0
  0
LWPOLYLINE
  5
1E6
100
AcDbEntity
  8
WATER-SPRING-RESURGENCE
 62
256
370
-1
 48
1.0
  6
ByLayer
100
AcDbPolyline
 90
2
 70
0
 10
0.0
 20
0.0
 10
0.7
 20
0.0
  0
LWPOLYLINE
  5
1E7
100
AcDbEntity
  8
WATER-SPRING-RESURGENCE
 62
256
370
-1
 48
1.0
  6
ByLayer
100
AcDbPolyline
 90
3
 70
0
 10
0.5
 20
0.15
 10
0.7
 20
0.0
 10
0.5
 20
-0.15
  0
ENDBLK
  5
1E8
100
AcDbEntity
  8
0
100
AcDbBlockEnd
  0
BLOCK
  5
1E9
100
AcDbEntity
  8
0
100
AcDbBlockBegin
  2
TB_SURVEYED_BY
 70
0
 10
0.0
 20
0.0
 30
0.0
  3
TB_SURVEYED_BY
  1

  0
TEXT
  5
1EA
100
AcDbEntity
  8
TITLE-BLOCK
 62
256
370
-1
 48
1.0
  6
ByLayer
100
AcDbText
 10
0.0
 20
0.0
 30
0.0
 40
0.14
  1
Surveyed by:  ______________________
 50
0.0
 41
1.0
  7
textstyle33
 71
0
 72
0
 11
0.0
 21
0.0
 31
0.0
100
AcDbText
 73
1
  0
ENDBLK
  5
1EB
100
AcDbEntity
  8
0
100
AcDbBlockEnd
  0
BLOCK
  5
1EC
100
AcDbEntity
  8
0
100
AcDbBlockBegin
  2
TB_BORDER_ARCH_D_FULLBLEED
 70
0
 10
0.0
 20
0.0
 30
0.0
  3
TB_BORDER_ARCH_D_FULLBLEED
  1

  0
LWPOLYLINE
  5
1ED
100
AcDbEntity
  8
BORDER
 62
256
370
-1
 48
1.0
  6
ByLayer
100
AcDbPolyline
 90
4
 70
1
 10
0.0
 20
0.0
 10
36.0
 20
0.0
 10
36.0
 20
24.0
 10
0.0
 20
24.0
  0
ENDBLK
  5
1EE
100
AcDbEntity
  8
0
100
AcDbBlockEnd
  0
BLOCK
  5
1EF
100
AcDbEntity
  8
0
100
AcDbBlockBegin
  2
TB_BAR_SCALE_1IN300FT
 70
0
 10
0.0
 20
0.0
 30
0.0
  3
TB_BAR_SCALE_1IN300FT
  1

  0
HATCH
  5
1F0
100
AcDbEntity
  8
SCALE-BAR
 62
7
420
16777215
370
-1
 48
1.0
  6
ByLayer
100
AcDbHatch
 10
0.0
 20
0.0
 30
0.0
210
0.0
220
0.0
230
1.0
  2
SOLID
 70
1
 71
0
 91
2
 92
1
 93
0
 97
0
 92
1
 93
4
 72
1
 10
0.0
 20
0.0
 11
0.5
 21
0.0
 72
1
 10
0.5
 20
0.0
 11
0.5
 21
0.13
 72
1
 10
0.5
 20
0.13
 11
0.0
 21
0.13
 72
1
 10
0.0
 20
0.13
 11
0.0
 21
0.0
 97
0
 75
0
 76
1
 98
0
1001
ACAD
1010
0.0
1020
0.0
1030
0
  0
LWPOLYLINE
  5
1F1
100
AcDbEntity
  8
SCALE-BAR
 62
256
370
-1
 48
1.0
  6
ByLayer
100
AcDbPolyline
 90
4
 70
1
 10
0.0
 20
0.0
 10
0.5
 20
0.0
 10
0.5
 20
0.13
 10
0.0
 20
0.13
  0
LWPOLYLINE
  5
1F2
100
AcDbEntity
  8
SCALE-BAR
 62
256
370
-1
 48
1.0
  6
ByLayer
100
AcDbPolyline
 90
4
 70
1
 10
0.5
 20
0.0
 10
1.0
 20
0.0
 10
1.0
 20
0.13
 10
0.5
 20
0.13
  0
LINE
  5
1F3
100
AcDbEntity
  8
SCALE-BAR
 62
256
370
-1
 48
1.0
  6
ByLayer
100
AcDbLine
 10
1.0
 20
0.065
 30
0.0
 11
3.0
 21
0.065
 31
0.0
  0
LINE
  5
1F4
100
AcDbEntity
  8
SCALE-BAR
 62
256
370
-1
 48
1.0
  6
ByLayer
100
AcDbLine
 10
0.0
 20
-0.05
 30
0.0
 11
0.0
 21
0.18
 31
0.0
  0
TEXT
  5
1F5
100
AcDbEntity
  8
SCALE-BAR
 62
256
370
-1
 48
1.0
  6
ByLayer
100
AcDbText
 10
0.0
 20
-0.1
 30
0.0
 40
0.11
  1
0
 50
0.0
 41
1.0
  7
textstyle86
 71
0
 72
1
 11
0.0
 21
-0.1
 31
0.0
100
AcDbText
 73
3
  0
LINE
  5
1F6
100
AcDbEntity
  8
SCALE-BAR
 62
256
370
-1
 48
1.0
  6
ByLayer
100
AcDbLine
 10
0.5
 20
-0.05
 30
0.0
 11
0.5
 21
0.18
 31
0.0
  0
TEXT
  5
1F7
100
AcDbEntity
  8
SCALE-BAR
 62
256
370
-1
 48
1.0
  6
ByLayer
100
AcDbText
 10
0.5
 20
-0.1
 30
0.0
 40
0.11
  1
150
 50
0.0
 41
1.0
  7
textstyle87
 71
0
 72
1
 11
0.5
 21
-0.1
 31
0.0
100
AcDbText
 73
3
  0
LINE
  5
1F8
100
AcDbEntity
  8
SCALE-BAR
 62
256
370
-1
 48
1.0
  6
ByLayer
100
AcDbLine
 10
1.0
 20
-0.05
 30
0.0
 11
1.0
 21
0.18
 31
0.0
  0
TEXT
  5
1F9
100
AcDbEntity
  8
SCALE-BAR
 62
256
370
-1
 48
1.0
  6
ByLayer
100
AcDbText
 10
1.0
 20
-0.1
 30
0.0
 40
0.11
  1
300
 50
0.0
 41
1.0
  7
textstyle88
 71
0
 72
1
 11
1.0
 21
-0.1
 31
0.0
100
AcDbText
 73
3
  0
LINE
  5
1FA
100
AcDbEntity
  8
SCALE-BAR
 62
256
370
-1
 48
1.0
  6
ByLayer
100
AcDbLine
 10
2.0
 20
-0.05
 30
0.0
 11
2.0
 21
0.18
 31
0.0
  0
TEXT
  5
1FB
100
AcDbEntity
  8
SCALE-BAR
 62
256
370
-1
 48
1.0
  6
ByLayer
100
AcDbText
 10
2.0
 20
-0.1
 30
0.0
 40
0.11
  1
600
 50
0.0
 41
1.0
  7
textstyle89
 71
0
 72
1
 11
2.0
 21
-0.1
 31
0.0
100
AcDbText
 73
3
  0
LINE
  5
1FC
100
AcDbEntity
  8
SCALE-BAR
 62
256
370
-1
 48
1.0
  6
ByLayer
100
AcDbLine
 10
3.0
 20
-0.05
 30
0.0
 11
3.0
 21
0.18
 31
0.0
  0
TEXT
  5
1FD
100
AcDbEntity
  8
SCALE-BAR
 62
256
370
-1
 48
1.0
  6
ByLayer
100
AcDbText
 10
3.0
 20
-0.1
 30
0.0
 40
0.11
  1
900
 50
0.0
 41
1.0
  7
textstyle84
 71
0
 72
1
 11
3.0
 21
-0.1
 31
0.0
100
AcDbText
 73
3
  0
TEXT
  5
1FE
100
AcDbEntity
  8
SCALE-BAR
 62
256
370
-1
 48
1.0
  6
ByLayer
100
AcDbText
 10
0.0
 20
0.48
 30
0.0
 40
0.14
  1
SCALE: 1" = 300 ft
 50
0.0
 41
1.0
  7
textstyle85
 71
0
 72
0
 11
0.0
 21
0.48
 31
0.0
100
AcDbText
 73
1
  0
ENDBLK
  5
1FF
100
AcDbEntity
  8
0
100
AcDbBlockEnd
  0
BLOCK
  5
200
100
AcDbEntity
  8
0
100
AcDbBlockBegin
  2
_ARCHTICK
 70
0
 10
0.0
 20
0.0
 30
0.0
  3
_ARCHTICK
  1

  0
LWPOLYLINE
  5
201
100
AcDbEntity
  8
0
 62
0
370
-1
 48
1.0
  6
ByBlock
100
AcDbPolyline
 90
2
 70
0
 10
-0.5
 20
-0.5
 10
0.5
 20
0.5
  0
ENDBLK
  5
202
100
AcDbEntity
  8
0
100
AcDbBlockEnd
  0
BLOCK
  5
203
100
AcDbEntity
  8
0
100
AcDbBlockBegin
  2
TB_BAR_SCALE_1IN10FT
 70
0
 10
0.0
 20
0.0
 30
0.0
  3
TB_BAR_SCALE_1IN10FT
  1

  0
HATCH
  5
204
100
AcDbEntity
  8
SCALE-BAR
 62
7
420
16777215
370
-1
 48
1.0
  6
ByLayer
100
AcDbHatch
 10
0.0
 20
0.0
 30
0.0
210
0.0
220
0.0
230
1.0
  2
SOLID
 70
1
 71
0
 91
2
 92
1
 93
0
 97
0
 92
1
 93
4
 72
1
 10
0.0
 20
0.0
 11
0.5
 21
0.0
 72
1
 10
0.5
 20
0.0
 11
0.5
 21
0.13
 72
1
 10
0.5
 20
0.13
 11
0.0
 21
0.13
 72
1
 10
0.0
 20
0.13
 11
0.0
 21
0.0
 97
0
 75
0
 76
1
 98
0
1001
ACAD
1010
0.0
1020
0.0
1030
0
  0
LWPOLYLINE
  5
205
100
AcDbEntity
  8
SCALE-BAR
 62
256
370
-1
 48
1.0
  6
ByLayer
100
AcDbPolyline
 90
4
 70
1
 10
0.0
 20
0.0
 10
0.5
 20
0.0
 10
0.5
 20
0.13
 10
0.0
 20
0.13
  0
LWPOLYLINE
  5
206
100
AcDbEntity
  8
SCALE-BAR
 62
256
370
-1
 48
1.0
  6
ByLayer
100
AcDbPolyline
 90
4
 70
1
 10
0.5
 20
0.0
 10
1.0
 20
0.0
 10
1.0
 20
0.13
 10
0.5
 20
0.13
  0
LINE
  5
207
100
AcDbEntity
  8
SCALE-BAR
 62
256
370
-1
 48
1.0
  6
ByLayer
100
AcDbLine
 10
1.0
 20
0.065
 30
0.0
 11
3.0
 21
0.065
 31
0.0
  0
LINE
  5
208
100
AcDbEntity
  8
SCALE-BAR
 62
256
370
-1
 48
1.0
  6
ByLayer
100
AcDbLine
 10
0.0
 20
-0.05
 30
0.0
 11
0.0
 21
0.18
 31
0.0
  0
TEXT
  5
209
100
AcDbEntity
  8
SCALE-BAR
 62
256
370
-1
 48
1.0
  6
ByLayer
100
AcDbText
 10
0.0
 20
-0.1
 30
0.0
 40
0.11
  1
0
 50
0.0
 41
1.0
  7
textstyle93
 71
0
 72
1
 11
0.0
 21
-0.1
 31
0.0
100
AcDbText
 73
3
  0
LINE
  5
20A
100
AcDbEntity
  8
SCALE-BAR
 62
256
370
-1
 48
1.0
  6
ByLayer
100
AcDbLine
 10
0.5
 20
-0.05
 30
0.0
 11
0.5
 21
0.18
 31
0.0
  0
TEXT
  5
20B
100
AcDbEntity
  8
SCALE-BAR
 62
256
370
-1
 48
1.0
  6
ByLayer
100
AcDbText
 10
0.5
 20
-0.1
 30
0.0
 40
0.11
  1
5
 50
0.0
 41
1.0
  7
textstyle94
 71
0
 72
1
 11
0.5
 21
-0.1
 31
0.0
100
AcDbText
 73
3
  0
LINE
  5
20C
100
AcDbEntity
  8
SCALE-BAR
 62
256
370
-1
 48
1.0
  6
ByLayer
100
AcDbLine
 10
1.0
 20
-0.05
 30
0.0
 11
1.0
 21
0.18
 31
0.0
  0
TEXT
  5
20D
100
AcDbEntity
  8
SCALE-BAR
 62
256
370
-1
 48
1.0
  6
ByLayer
100
AcDbText
 10
1.0
 20
-0.1
 30
0.0
 40
0.11
  1
10
 50
0.0
 41
1.0
  7
textstyle95
 71
0
 72
1
 11
1.0
 21
-0.1
 31
0.0
100
AcDbText
 73
3
  0
LINE
  5
20E
100
AcDbEntity
  8
SCALE-BAR
 62
256
370
-1
 48
1.0
  6
ByLayer
100
AcDbLine
 10
2.0
 20
-0.05
 30
0.0
 11
2.0
 21
0.18
 31
0.0
  0
TEXT
  5
20F
100
AcDbEntity
  8
SCALE-BAR
 62
256
370
-1
 48
1.0
  6
ByLayer
100
AcDbText
 10
2.0
 20
-0.1
 30
0.0
 40
0.11
  1
20
 50
0.0
 41
1.0
  7
textstyle90
 71
0
 72
1
 11
2.0
 21
-0.1
 31
0.0
100
AcDbText
 73
3
  0
LINE
  5
210
100
AcDbEntity
  8
SCALE-BAR
 62
256
370
-1
 48
1.0
  6
ByLayer
100
AcDbLine
 10
3.0
 20
-0.05
 30
0.0
 11
3.0
 21
0.18
 31
0.0
  0
TEXT
  5
211
100
AcDbEntity
  8
SCALE-BAR
 62
256
370
-1
 48
1.0
  6
ByLayer
100
AcDbText
 10
3.0
 20
-0.1
 30
0.0
 40
0.11
  1
30
 50
0.0
 41
1.0
  7
textstyle91
 71
0
 72
1
 11
3.0
 21
-0.1
 31
0.0
100
AcDbText
 73
3
  0
TEXT
  5
212
100
AcDbEntity
  8
SCALE-BAR
 62
256
370
-1
 48
1.0
  6
ByLayer
100
AcDbText
 10
0.0
 20
0.48
 30
0.0
 40
0.14
  1
SCALE: 1" = 10 ft
 50
0.0
 41
1.0
  7
textstyle92
 71
0
 72
0
 11
0.0
 21
0.48
 31
0.0
100
AcDbText
 73
1
  0
ENDBLK
  5
213
100
AcDbEntity
  8
0
100
AcDbBlockEnd
  0
BLOCK
  5
214
100
AcDbEntity
  8
0
100
AcDbBlockBegin
  2
TB_SURVEY_CODE
 70
0
 10
0.0
 20
0.0
 30
0.0
  3
TB_SURVEY_CODE
  1

  0
TEXT
  5
215
100
AcDbEntity
  8
TITLE-BLOCK
 62
256
370
-1
 48
1.0
  6
ByLayer
100
AcDbText
 10
0.0
 20
0.0
 30
0.0
 40
0.14
  1
Survey code:  ______________________
 50
0.0
 41
1.0
  7
textstyle96
 71
0
 72
0
 11
0.0
 21
0.0
 31
0.0
100
AcDbText
 73
1
  0
ENDBLK
  5
216
100
AcDbEntity
  8
0
100
AcDbBlockEnd
  0
BLOCK
  5
217
100
AcDbEntity
  8
0
100
AcDbBlockBegin
  2
SYM_BREAKDOWN
 70
0
 10
0.0
 20
0.0
 30
0.0
  3
SYM_BREAKDOWN
  1

  0
LWPOLYLINE
  5
218
100
AcDbEntity
  8
BREAKDOWN
 62
256
370
-1
 48
1.0
  6
ByLayer
100
AcDbPolyline
 90
4
 70
1
 10
-0.6
 20
-0.3
 10
-0.3
 20
0.1
 10
0.0
 20
-0.1
 10
-0.2
 20
-0.5
  0
LWPOLYLINE
  5
219
100
AcDbEntity
  8
BREAKDOWN
 62
256
370
-1
 48
1.0
  6
ByLayer
100
AcDbPolyline
 90
4
 70
1
 10
0.0
 20
0.2
 10
0.35
 20
0.4
 10
0.5
 20
0.0
 10
0.2
 20
-0.15
  0
LWPOLYLINE
  5
21A
100
AcDbEntity
  8
BREAKDOWN
 62
256
370
-1
 48
1.0
  6
ByLayer
100
AcDbPolyline
 90
4
 70
1
 10
-0.4
 20
0.3
 10
-0.1
 20
0.5
 10
0.15
 20
0.3
 10
-0.1
 20
0.15
  0
ENDBLK
  5
21B
100
AcDbEntity
  8
0
100
AcDbBlockEnd
  0
BLOCK
  5
21C
100
AcDbEntity
  8
0
100
AcDbBlockBegin
  2
SYM_MOONMILK_POPCORN
 70
0
 10
0.0
 20
0.0
 30
0.0
  3
SYM_MOONMILK_POPCORN
  1

  0
CIRCLE
  5
21D
100
AcDbEntity
  8
FORMATIONS-MOONMILK-POPCORN
 62
256
370
-1
 48
1.0
  6
ByLayer
100
AcDbCircle
 10
-0.2
 20
0.1
 30
0.0
 40
0.1
  0
CIRCLE
  5
21E
100
AcDbEntity
  8
FORMATIONS-MOONMILK-POPCORN
 62
256
370
-1
 48
1.0
  6
ByLayer
100
AcDbCircle
 10
0.05
 20
0.2
 30
0.0
 40
0.09
  0
CIRCLE
  5
21F
100
AcDbEntity
  8
FORMATIONS-MOONMILK-POPCORN
 62
256
370
-1
 48
1.0
  6
ByLayer
100
AcDbCircle
 10
0.2
 20
-0.05
 30
0.0
 40
0.11
  0
CIRCLE
  5
220
100
AcDbEntity
  8
FORMATIONS-MOONMILK-POPCORN
 62
256
370
-1
 48
1.0
  6
ByLayer
100
AcDbCircle
 10
-0.05
 20
-0.15
 30
0.0
 40
0.08
  0
CIRCLE
  5
221
100
AcDbEntity
  8
FORMATIONS-MOONMILK-POPCORN
 62
256
370
-1
 48
1.0
  6
ByLayer
100
AcDbCircle
 10
0.15
 20
0.12
 30
0.0
 40
0.07
  0
ENDBLK
  5
222
100
AcDbEntity
  8
0
100
AcDbBlockEnd
  0
BLOCK
  5
223
100
AcDbEntity
  8
0
100
AcDbBlockBegin
  2
SYM_DRIP_SEEP
 70
0
 10
0.0
 20
0.0
 30
0.0
  3
SYM_DRIP_SEEP
  1

  0
LWPOLYLINE
  5
224
100
AcDbEntity
  8
WATER-DRIP-SEEP
 62
256
370
-1
 48
1.0
  6
ByLayer
100
AcDbPolyline
 90
4
 70
1
 10
0.0
 20
0.2
 10
-0.08
 20
-0.05
 10
0.0
 20
-0.2
 10
0.08
 20
-0.05
  0
ENDBLK
  5
225
100
AcDbEntity
  8
0
100
AcDbBlockEnd
  0
BLOCK
  5
226
100
AcDbEntity
  8
0
100
AcDbBlockBegin
  2
SYM_COLUMN
 70
0
 10
0.0
 20
0.0
 30
0.0
  3
SYM_COLUMN
  1

  0
LWPOLYLINE
  5
227
100
AcDbEntity
  8
FORMATIONS-DRIP
 62
256
370
-1
 48
1.0
  6
ByLayer
100
AcDbPolyline
 90
6
 70
1
 10
-0.3
 20
0.6
 10
0.3
 20
0.6
 10
0.0
 20
0.0
 10
0.3
 20
-0.6
 10
-0.3
 20
-0.6
 10
0.0
 20
0.0
  0
ENDBLK
  5
228
100
AcDbEntity
  8
0
100
AcDbBlockEnd
  0
BLOCK
  5
229
100
AcDbEntity
  8
0
100
AcDbBlockBegin
  2
_CLOSEDBLANK
 70
0
 10
0.0
 20
0.0
 30
0.0
  3
_CLOSEDBLANK
  1

  0
LWPOLYLINE
  5
22A
100
AcDbEntity
  8
0
 62
0
370
-1
 48
1.0
  6
ByBlock
100
AcDbPolyline
 90
3
 70
1
 10
-1.0
 20
0.1643989837240254
 10
0.0
 20
0.0
 10
-1.0
 20
-0.1643989837240254
  0
ENDBLK
  5
22B
100
AcDbEntity
  8
0
100
AcDbBlockEnd
  0
BLOCK
  5
22C
100
AcDbEntity
  8
0
100
AcDbBlockBegin
  2
TB_BAR_SCALE_1IN50FT
 70
0
 10
0.0
 20
0.0
 30
0.0
  3
TB_BAR_SCALE_1IN50FT
  1

  0
HATCH
  5
22D
100
AcDbEntity
  8
SCALE-BAR
 62
7
420
16777215
370
-1
 48
1.0
  6
ByLayer
100
AcDbHatch
 10
0.0
 20
0.0
 30
0.0
210
0.0
220
0.0
230
1.0
  2
SOLID
 70
1
 71
0
 91
2
 92
1
 93
0
 97
0
 92
1
 93
4
 72
1
 10
0.0
 20
0.0
 11
0.5
 21
0.0
 72
1
 10
0.5
 20
0.0
 11
0.5
 21
0.13
 72
1
 10
0.5
 20
0.13
 11
0.0
 21
0.13
 72
1
 10
0.0
 20
0.13
 11
0.0
 21
0.0
 97
0
 75
0
 76
1
 98
0
1001
ACAD
1010
0.0
1020
0.0
1030
0
  0
LWPOLYLINE
  5
22E
100
AcDbEntity
  8
SCALE-BAR
 62
256
370
-1
 48
1.0
  6
ByLayer
100
AcDbPolyline
 90
4
 70
1
 10
0.0
 20
0.0
 10
0.5
 20
0.0
 10
0.5
 20
0.13
 10
0.0
 20
0.13
  0
LWPOLYLINE
  5
22F
100
AcDbEntity
  8
SCALE-BAR
 62
256
370
-1
 48
1.0
  6
ByLayer
100
AcDbPolyline
 90
4
 70
1
 10
0.5
 20
0.0
 10
1.0
 20
0.0
 10
1.0
 20
0.13
 10
0.5
 20
0.13
  0
LINE
  5
230
100
AcDbEntity
  8
SCALE-BAR
 62
256
370
-1
 48
1.0
  6
ByLayer
100
AcDbLine
 10
1.0
 20
0.065
 30
0.0
 11
3.0
 21
0.065
 31
0.0
  0
LINE
  5
231
100
AcDbEntity
  8
SCALE-BAR
 62
256
370
-1
 48
1.0
  6
ByLayer
100
AcDbLine
 10
0.0
 20
-0.05
 30
0.0
 11
0.0
 21
0.18
 31
0.0
  0
TEXT
  5
232
100
AcDbEntity
  8
SCALE-BAR
 62
256
370
-1
 48
1.0
  6
ByLayer
100
AcDbText
 10
0.0
 20
-0.1
 30
0.0
 40
0.11
  1
0
 50
0.0
 41
1.0
  7
textstyle101
 71
0
 72
1
 11
0.0
 21
-0.1
 31
0.0
100
AcDbText
 73
3
  0
LINE
  5
233
100
AcDbEntity
  8
SCALE-BAR
 62
256
370
-1
 48
1.0
  6
ByLayer
100
AcDbLine
 10
0.5
 20
-0.05
 30
0.0
 11
0.5
 21
0.18
 31
0.0
  0
TEXT
  5
234
100
AcDbEntity
  8
SCALE-BAR
 62
256
370
-1
 48
1.0
  6
ByLayer
100
AcDbText
 10
0.5
 20
-0.1
 30
0.0
 40
0.11
  1
25
 50
0.0
 41
1.0
  7
textstyle102
 71
0
 72
1
 11
0.5
 21
-0.1
 31
0.0
100
AcDbText
 73
3
  0
LINE
  5
235
100
AcDbEntity
  8
SCALE-BAR
 62
256
370
-1
 48
1.0
  6
ByLayer
100
AcDbLine
 10
1.0
 20
-0.05
 30
0.0
 11
1.0
 21
0.18
 31
0.0
  0
TEXT
  5
236
100
AcDbEntity
  8
SCALE-BAR
 62
256
370
-1
 48
1.0
  6
ByLayer
100
AcDbText
 10
1.0
 20
-0.1
 30
0.0
 40
0.11
  1
50
 50
0.0
 41
1.0
  7
textstyle97
 71
0
 72
1
 11
1.0
 21
-0.1
 31
0.0
100
AcDbText
 73
3
  0
LINE
  5
237
100
AcDbEntity
  8
SCALE-BAR
 62
256
370
-1
 48
1.0
  6
ByLayer
100
AcDbLine
 10
2.0
 20
-0.05
 30
0.0
 11
2.0
 21
0.18
 31
0.0
  0
TEXT
  5
238
100
AcDbEntity
  8
SCALE-BAR
 62
256
370
-1
 48
1.0
  6
ByLayer
100
AcDbText
 10
2.0
 20
-0.1
 30
0.0
 40
0.11
  1
100
 50
0.0
 41
1.0
  7
textstyle98
 71
0
 72
1
 11
2.0
 21
-0.1
 31
0.0
100
AcDbText
 73
3
  0
LINE
  5
239
100
AcDbEntity
  8
SCALE-BAR
 62
256
370
-1
 48
1.0
  6
ByLayer
100
AcDbLine
 10
3.0
 20
-0.05
 30
0.0
 11
3.0
 21
0.18
 31
0.0
  0
TEXT
  5
23A
100
AcDbEntity
  8
SCALE-BAR
 62
256
370
-1
 48
1.0
  6
ByLayer
100
AcDbText
 10
3.0
 20
-0.1
 30
0.0
 40
0.11
  1
150
 50
0.0
 41
1.0
  7
textstyle99
 71
0
 72
1
 11
3.0
 21
-0.1
 31
0.0
100
AcDbText
 73
3
  0
TEXT
  5
23B
100
AcDbEntity
  8
SCALE-BAR
 62
256
370
-1
 48
1.0
  6
ByLayer
100
AcDbText
 10
0.0
 20
0.48
 30
0.0
 40
0.14
  1
SCALE: 1" = 50 ft
 50
0.0
 41
1.0
  7
textstyle100
 71
0
 72
0
 11
0.0
 21
0.48
 31
0.0
100
AcDbText
 73
1
  0
ENDBLK
  5
23C
100
AcDbEntity
  8
0
100
AcDbBlockEnd
  0
BLOCK
  5
23D
100
AcDbEntity
  8
0
100
AcDbBlockBegin
  2
TB_BAR_SCALE_1IN60FT
 70
0
 10
0.0
 20
0.0
 30
0.0
  3
TB_BAR_SCALE_1IN60FT
  1

  0
HATCH
  5
23E
100
AcDbEntity
  8
SCALE-BAR
 62
7
420
16777215
370
-1
 48
1.0
  6
ByLayer
100
AcDbHatch
 10
0.0
 20
0.0
 30
0.0
210
0.0
220
0.0
230
1.0
  2
SOLID
 70
1
 71
0
 91
2
 92
1
 93
0
 97
0
 92
1
 93
4
 72
1
 10
0.0
 20
0.0
 11
0.5
 21
0.0
 72
1
 10
0.5
 20
0.0
 11
0.5
 21
0.13
 72
1
 10
0.5
 20
0.13
 11
0.0
 21
0.13
 72
1
 10
0.0
 20
0.13
 11
0.0
 21
0.0
 97
0
 75
0
 76
1
 98
0
1001
ACAD
1010
0.0
1020
0.0
1030
0
  0
LWPOLYLINE
  5
23F
100
AcDbEntity
  8
SCALE-BAR
 62
256
370
-1
 48
1.0
  6
ByLayer
100
AcDbPolyline
 90
4
 70
1
 10
0.0
 20
0.0
 10
0.5
 20
0.0
 10
0.5
 20
0.13
 10
0.0
 20
0.13
  0
LWPOLYLINE
  5
240
100
AcDbEntity
  8
SCALE-BAR
 62
256
370
-1
 48
1.0
  6
ByLayer
100
AcDbPolyline
 90
4
 70
1
 10
0.5
 20
0.0
 10
1.0
 20
0.0
 10
1.0
 20
0.13
 10
0.5
 20
0.13
  0
LINE
  5
241
100
AcDbEntity
  8
SCALE-BAR
 62
256
370
-1
 48
1.0
  6
ByLayer
100
AcDbLine
 10
1.0
 20
0.065
 30
0.0
 11
3.0
 21
0.065
 31
0.0
  0
LINE
  5
242
100
AcDbEntity
  8
SCALE-BAR
 62
256
370
-1
 48
1.0
  6
ByLayer
100
AcDbLine
 10
0.0
 20
-0.05
 30
0.0
 11
0.0
 21
0.18
 31
0.0
  0
TEXT
  5
243
100
AcDbEntity
  8
SCALE-BAR
 62
256
370
-1
 48
1.0
  6
ByLayer
100
AcDbText
 10
0.0
 20
-0.1
 30
0.0
 40
0.11
  1
0
 50
0.0
 41
1.0
  7
textstyle107
 71
0
 72
1
 11
0.0
 21
-0.1
 31
0.0
100
AcDbText
 73
3
  0
LINE
  5
244
100
AcDbEntity
  8
SCALE-BAR
 62
256
370
-1
 48
1.0
  6
ByLayer
100
AcDbLine
 10
0.5
 20
-0.05
 30
0.0
 11
0.5
 21
0.18
 31
0.0
  0
TEXT
  5
245
100
AcDbEntity
  8
SCALE-BAR
 62
256
370
-1
 48
1.0
  6
ByLayer
100
AcDbText
 10
0.5
 20
-0.1
 30
0.0
 40
0.11
  1
30
 50
0.0
 41
1.0
  7
textstyle108
 71
0
 72
1
 11
0.5
 21
-0.1
 31
0.0
100
AcDbText
 73
3
  0
LINE
  5
246
100
AcDbEntity
  8
SCALE-BAR
 62
256
370
-1
 48
1.0
  6
ByLayer
100
AcDbLine
 10
1.0
 20
-0.05
 30
0.0
 11
1.0
 21
0.18
 31
0.0
  0
TEXT
  5
247
100
AcDbEntity
  8
SCALE-BAR
 62
256
370
-1
 48
1.0
  6
ByLayer
100
AcDbText
 10
1.0
 20
-0.1
 30
0.0
 40
0.11
  1
60
 50
0.0
 41
1.0
  7
textstyle103
 71
0
 72
1
 11
1.0
 21
-0.1
 31
0.0
100
AcDbText
 73
3
  0
LINE
  5
248
100
AcDbEntity
  8
SCALE-BAR
 62
256
370
-1
 48
1.0
  6
ByLayer
100
AcDbLine
 10
2.0
 20
-0.05
 30
0.0
 11
2.0
 21
0.18
 31
0.0
  0
TEXT
  5
249
100
AcDbEntity
  8
SCALE-BAR
 62
256
370
-1
 48
1.0
  6
ByLayer
100
AcDbText
 10
2.0
 20
-0.1
 30
0.0
 40
0.11
  1
120
 50
0.0
 41
1.0
  7
textstyle104
 71
0
 72
1
 11
2.0
 21
-0.1
 31
0.0
100
AcDbText
 73
3
  0
LINE
  5
24A
100
AcDbEntity
  8
SCALE-BAR
 62
256
370
-1
 48
1.0
  6
ByLayer
100
AcDbLine
 10
3.0
 20
-0.05
 30
0.0
 11
3.0
 21
0.18
 31
0.0
  0
TEXT
  5
24B
100
AcDbEntity
  8
SCALE-BAR
 62
256
370
-1
 48
1.0
  6
ByLayer
100
AcDbText
 10
3.0
 20
-0.1
 30
0.0
 40
0.11
  1
180
 50
0.0
 41
1.0
  7
textstyle105
 71
0
 72
1
 11
3.0
 21
-0.1
 31
0.0
100
AcDbText
 73
3
  0
TEXT
  5
24C
100
AcDbEntity
  8
SCALE-BAR
 62
256
370
-1
 48
1.0
  6
ByLayer
100
AcDbText
 10
0.0
 20
0.48
 30
0.0
 40
0.14
  1
SCALE: 1" = 60 ft
 50
0.0
 41
1.0
  7
textstyle106
 71
0
 72
0
 11
0.0
 21
0.48
 31
0.0
100
AcDbText
 73
1
  0
ENDBLK
  5
24D
100
AcDbEntity
  8
0
100
AcDbBlockEnd
  0
BLOCK
  5
24E
100
AcDbEntity
  8
0
100
AcDbBlockBegin
  2
TB_BAR_SCALE_1IN500FT
 70
0
 10
0.0
 20
0.0
 30
0.0
  3
TB_BAR_SCALE_1IN500FT
  1

  0
HATCH
  5
24F
100
AcDbEntity
  8
SCALE-BAR
 62
7
420
16777215
370
-1
 48
1.0
  6
ByLayer
100
AcDbHatch
 10
0.0
 20
0.0
 30
0.0
210
0.0
220
0.0
230
1.0
  2
SOLID
 70
1
 71
0
 91
2
 92
1
 93
0
 97
0
 92
1
 93
4
 72
1
 10
0.0
 20
0.0
 11
0.5
 21
0.0
 72
1
 10
0.5
 20
0.0
 11
0.5
 21
0.13
 72
1
 10
0.5
 20
0.13
 11
0.0
 21
0.13
 72
1
 10
0.0
 20
0.13
 11
0.0
 21
0.0
 97
0
 75
0
 76
1
 98
0
1001
ACAD
1010
0.0
1020
0.0
1030
0
  0
LWPOLYLINE
  5
250
100
AcDbEntity
  8
SCALE-BAR
 62
256
370
-1
 48
1.0
  6
ByLayer
100
AcDbPolyline
 90
4
 70
1
 10
0.0
 20
0.0
 10
0.5
 20
0.0
 10
0.5
 20
0.13
 10
0.0
 20
0.13
  0
LWPOLYLINE
  5
251
100
AcDbEntity
  8
SCALE-BAR
 62
256
370
-1
 48
1.0
  6
ByLayer
100
AcDbPolyline
 90
4
 70
1
 10
0.5
 20
0.0
 10
1.0
 20
0.0
 10
1.0
 20
0.13
 10
0.5
 20
0.13
  0
LINE
  5
252
100
AcDbEntity
  8
SCALE-BAR
 62
256
370
-1
 48
1.0
  6
ByLayer
100
AcDbLine
 10
1.0
 20
0.065
 30
0.0
 11
3.0
 21
0.065
 31
0.0
  0
LINE
  5
253
100
AcDbEntity
  8
SCALE-BAR
 62
256
370
-1
 48
1.0
  6
ByLayer
100
AcDbLine
 10
0.0
 20
-0.05
 30
0.0
 11
0.0
 21
0.18
 31
0.0
  0
TEXT
  5
254
100
AcDbEntity
  8
SCALE-BAR
 62
256
370
-1
 48
1.0
  6
ByLayer
100
AcDbText
 10
0.0
 20
-0.1
 30
0.0
 40
0.11
  1
0
 50
0.0
 41
1.0
  7
textstyle113
 71
0
 72
1
 11
0.0
 21
-0.1
 31
0.0
100
AcDbText
 73
3
  0
LINE
  5
255
100
AcDbEntity
  8
SCALE-BAR
 62
256
370
-1
 48
1.0
  6
ByLayer
100
AcDbLine
 10
0.5
 20
-0.05
 30
0.0
 11
0.5
 21
0.18
 31
0.0
  0
TEXT
  5
256
100
AcDbEntity
  8
SCALE-BAR
 62
256
370
-1
 48
1.0
  6
ByLayer
100
AcDbText
 10
0.5
 20
-0.1
 30
0.0
 40
0.11
  1
250
 50
0.0
 41
1.0
  7
textstyle114
 71
0
 72
1
 11
0.5
 21
-0.1
 31
0.0
100
AcDbText
 73
3
  0
LINE
  5
257
100
AcDbEntity
  8
SCALE-BAR
 62
256
370
-1
 48
1.0
  6
ByLayer
100
AcDbLine
 10
1.0
 20
-0.05
 30
0.0
 11
1.0
 21
0.18
 31
0.0
  0
TEXT
  5
258
100
AcDbEntity
  8
SCALE-BAR
 62
256
370
-1
 48
1.0
  6
ByLayer
100
AcDbText
 10
1.0
 20
-0.1
 30
0.0
 40
0.11
  1
500
 50
0.0
 41
1.0
  7
textstyle109
 71
0
 72
1
 11
1.0
 21
-0.1
 31
0.0
100
AcDbText
 73
3
  0
LINE
  5
259
100
AcDbEntity
  8
SCALE-BAR
 62
256
370
-1
 48
1.0
  6
ByLayer
100
AcDbLine
 10
2.0
 20
-0.05
 30
0.0
 11
2.0
 21
0.18
 31
0.0
  0
TEXT
  5
25A
100
AcDbEntity
  8
SCALE-BAR
 62
256
370
-1
 48
1.0
  6
ByLayer
100
AcDbText
 10
2.0
 20
-0.1
 30
0.0
 40
0.11
  1
1000
 50
0.0
 41
1.0
  7
textstyle110
 71
0
 72
1
 11
2.0
 21
-0.1
 31
0.0
100
AcDbText
 73
3
  0
LINE
  5
25B
100
AcDbEntity
  8
SCALE-BAR
 62
256
370
-1
 48
1.0
  6
ByLayer
100
AcDbLine
 10
3.0
 20
-0.05
 30
0.0
 11
3.0
 21
0.18
 31
0.0
  0
TEXT
  5
25C
100
AcDbEntity
  8
SCALE-BAR
 62
256
370
-1
 48
1.0
  6
ByLayer
100
AcDbText
 10
3.0
 20
-0.1
 30
0.0
 40
0.11
  1
1500
 50
0.0
 41
1.0
  7
textstyle111
 71
0
 72
1
 11
3.0
 21
-0.1
 31
0.0
100
AcDbText
 73
3
  0
TEXT
  5
25D
100
AcDbEntity
  8
SCALE-BAR
 62
256
370
-1
 48
1.0
  6
ByLayer
100
AcDbText
 10
0.0
 20
0.48
 30
0.0
 40
0.14
  1
SCALE: 1" = 500 ft
 50
0.0
 41
1.0
  7
textstyle112
 71
0
 72
0
 11
0.0
 21
0.48
 31
0.0
100
AcDbText
 73
1
  0
ENDBLK
  5
25E
100
AcDbEntity
  8
0
100
AcDbBlockEnd
  0
BLOCK
  5
25F
100
AcDbEntity
  8
0
100
AcDbBlockBegin
  2
SYM_NORTH_ARROW
 70
0
 10
0.0
 20
0.0
 30
0.0
  3
SYM_NORTH_ARROW
  1

  0
LWPOLYLINE
  5
260
100
AcDbEntity
  8
NORTH-ARROW
 62
256
370
-1
 48
1.0
  6
ByLayer
100
AcDbPolyline
 90
2
 70
0
 10
0.0
 20
-1.0
 10
0.0
 20
1.5
  0
LWPOLYLINE
  5
261
100
AcDbEntity
  8
NORTH-ARROW
 62
256
370
-1
 48
1.0
  6
ByLayer
100
AcDbPolyline
 90
3
 70
1
 10
-0.35
 20
0.9
 10
0.0
 20
1.5
 10
0.35
 20
0.9
  0
TEXT
  5
262
100
AcDbEntity
  8
NORTH-ARROW
 62
256
370
-1
 48
1.0
  6
ByLayer
100
AcDbText
 10
0.0
 20
-1.6000000000000001
 30
0.0
 40
0.4
  1
N
 50
0.0
 41
1.0
  7
textstyle115
 71
0
 72
1
 11
0.0
 21
-1.6000000000000001
 31
0.0
100
AcDbText
 73
2
  0
ENDBLK
  5
263
100
AcDbEntity
  8
0
100
AcDbBlockEnd
  0
BLOCK
  5
264
100
AcDbEntity
  8
0
100
AcDbBlockBegin
  2
SYM_SAND_GRAVEL_DOT
 70
0
 10
0.0
 20
0.0
 30
0.0
  3
SYM_SAND_GRAVEL_DOT
  1

  0
CIRCLE
  5
265
100
AcDbEntity
  8
SEDIMENT-SAND-GRAVEL
 62
256
370
-1
 48
1.0
  6
ByLayer
100
AcDbCircle
 10
-0.15
 20
0.1
 30
0.0
 40
0.035
  0
CIRCLE
  5
266
100
AcDbEntity
  8
SEDIMENT-SAND-GRAVEL
 62
256
370
-1
 48
1.0
  6
ByLayer
100
AcDbCircle
 10
0.1
 20
0.15
 30
0.0
 40
0.035
  0
CIRCLE
  5
267
100
AcDbEntity
  8
SEDIMENT-SAND-GRAVEL
 62
256
370
-1
 48
1.0
  6
ByLayer
100
AcDbCircle
 10
0.05
 20
-0.1
 30
0.0
 40
0.035
  0
CIRCLE
  5
268
100
AcDbEntity
  8
SEDIMENT-SAND-GRAVEL
 62
256
370
-1
 48
1.0
  6
ByLayer
100
AcDbCircle
 10
-0.1
 20
-0.15
 30
0.0
 40
0.035
  0
CIRCLE
  5
269
100
AcDbEntity
  8
SEDIMENT-SAND-GRAVEL
 62
256
370
-1
 48
1.0
  6
ByLayer
100
AcDbCircle
 10
0.18
 20
-0.02
 30
0.0
 40
0.035
  0
ENDBLK
  5
26A
100
AcDbEntity
  8
0
100
AcDbBlockEnd
  0
BLOCK
  5
26B
100
AcDbEntity
  8
0
100
AcDbBlockBegin
  2
SYM_FIXED_POINT
 70
0
 10
0.0
 20
0.0
 30
0.0
  3
SYM_FIXED_POINT
  1

  0
LWPOLYLINE
  5
26C
100
AcDbEntity
  8
ANCHORS-BOLTS
 62
256
370
-1
 48
1.0
  6
ByLayer
100
AcDbPolyline
 90
3
 70
1
 10
-0.4
 20
-0.35
 10
0.4
 20
-0.35
 10
0.0
 20
0.45
  0
CIRCLE
  5
26D
100
AcDbEntity
  8
ANCHORS-BOLTS
 62
256
370
-1
 48
1.0
  6
ByLayer
100
AcDbCircle
 10
0.0
 20
-0.05
 30
0.0
 40
0.05
  0
ENDBLK
  5
26E
100
AcDbEntity
  8
0
100
AcDbBlockEnd
  0
BLOCK
  5
26F
100
AcDbEntity
  8
0
100
AcDbBlockBegin
  2
SYM_BREAKDOWN_C
 70
0
 10
0.0
 20
0.0
 30
0.0
  3
SYM_BREAKDOWN_C
  1

  0
LWPOLYLINE
  5
270
100
AcDbEntity
  8
BREAKDOWN
 62
256
370
-1
 48
1.0
  6
ByLayer
100
AcDbPolyline
 90
4
 70
1
 10
-0.45
 20
-0.45
 10
-0.5
 20
0.0
 10
-0.15
 20
0.1
 10
-0.1
 20
-0.35
  0
LWPOLYLINE
  5
271
100
AcDbEntity
  8
BREAKDOWN
 62
256
370
-1
 48
1.0
  6
ByLayer
100
AcDbPolyline
 90
5
 70
1
 10
-0.05
 20
0.05
 10
0.15
 20
0.3
 10
0.45
 20
0.1
 10
0.3
 20
-0.15
 10
0.05
 20
-0.15
  0
LWPOLYLINE
  5
272
100
AcDbEntity
  8
BREAKDOWN
 62
256
370
-1
 48
1.0
  6
ByLayer
100
AcDbPolyline
 90
3
 70
1
 10
0.0
 20
-0.45
 10
0.3
 20
-0.35
 10
0.25
 20
-0.55
  0
ENDBLK
  5
273
100
AcDbEntity
  8
0
100
AcDbBlockEnd
  0
BLOCK
  5
274
100
AcDbEntity
  8
0
100
AcDbBlockBegin
  2
SYM_PIT
 70
0
 10
0.0
 20
0.0
 30
0.0
  3
SYM_PIT
  1

  0
CIRCLE
  5
275
100
AcDbEntity
  8
PITS-DOMES
 62
256
370
-1
 48
1.0
  6
ByLayer
100
AcDbCircle
 10
0.0
 20
0.0
 30
0.0
 40
0.5
  0
LINE
  5
276
100
AcDbEntity
  8
PITS-DOMES
 62
256
370
-1
 48
1.0
  6
ByLayer
100
AcDbLine
 10
0.5
 20
0.0
 30
0.0
 11
0.25
 21
0.0
 31
0.0
  0
LINE
  5
277
100
AcDbEntity
  8
PITS-DOMES
 62
256
370
-1
 48
1.0
  6
ByLayer
100
AcDbLine
 10
0.4330127018922194
 20
0.25
 30
0.0
 11
0.2165063509461097
 21
0.125
 31
0.0
  0
LINE
  5
278
100
AcDbEntity
  8
PITS-DOMES
 62
256
370
-1
 48
1.0
  6
ByLayer
100
AcDbLine
 10
0.2500000000000001
 20
0.4330127018922193
 30
0.0
 11
0.125
 21
0.2165063509461096
 31
0.0
  0
LINE
  5
279
100
AcDbEntity
  8
PITS-DOMES
 62
256
370
-1
 48
1.0
  6
ByLayer
100
AcDbLine
 10
0.0
 20
0.5
 30
0.0
 11
0.0
 21
0.25
 31
0.0
  0
LINE
  5
27A
100
AcDbEntity
  8
PITS-DOMES
 62
256
370
-1
 48
1.0
  6
ByLayer
100
AcDbLine
 10
-0.2499999999999999
 20
0.4330127018922194
 30
0.0
 11
-0.1249999999999999
 21
0.2165063509461097
 31
0.0
  0
LINE
  5
27B
100
AcDbEntity
  8
PITS-DOMES
 62
256
370
-1
 48
1.0
  6
ByLayer
100
AcDbLine
 10
-0.4330127018922194
 20
0.25
 30
0.0
 11
-0.2165063509461097
 21
0.125
 31
0.0
  0
LINE
  5
27C
100
AcDbEntity
  8
PITS-DOMES
 62
256
370
-1
 48
1.0
  6
ByLayer
100
AcDbLine
 10
-0.5
 20
0.0000000000000001
 30
0.0
 11
-0.25
 21
0.0
 31
0.0
  0
LINE
  5
27D
100
AcDbEntity
  8
PITS-DOMES
 62
256
370
-1
 48
1.0
  6
ByLayer
100
AcDbLine
 10
-0.4330127018922193
 20
-0.2500000000000001
 30
0.0
 11
-0.2165063509461096
 21
-0.125
 31
0.0
  0
LINE
  5
27E
100
AcDbEntity
  8
PITS-DOMES
 62
256
370
-1
 48
1.0
  6
ByLayer
100
AcDbLine
 10
-0.2500000000000002
 20
-0.4330127018922192
 30
0.0
 11
-0.1250000000000001
 21
-0.2165063509461096
 31
0.0
  0
LINE
  5
27F
100
AcDbEntity
  8
PITS-DOMES
 62
256
370
-1
 48
1.0
  6
ByLayer
100
AcDbLine
 10
-0.0000000000000001
 20
-0.5
 30
0.0
 11
-0.0
 21
-0.25
 31
0.0
  0
LINE
  5
280
100
AcDbEntity
  8
PITS-DOMES
 62
256
370
-1
 48
1.0
  6
ByLayer
100
AcDbLine
 10
0.2500000000000001
 20
-0.4330127018922193
 30
0.0
 11
0.125
 21
-0.2165063509461096
 31
0.0
  0
LINE
  5
281
100
AcDbEntity
  8
PITS-DOMES
 62
256
370
-1
 48
1.0
  6
ByLayer
100
AcDbLine
 10
0.4330127018922192
 20
-0.2500000000000002
 30
0.0
 11
0.2165063509461096
 21
-0.1250000000000001
 31
0.0
  0
ENDBLK
  5
282
100
AcDbEntity
  8
0
100
AcDbBlockEnd
  0
BLOCK
  5
283
100
AcDbEntity
  8
0
100
AcDbBlockBegin
  2
SYM_GUANO
 70
0
 10
0.0
 20
0.0
 30
0.0
  3
SYM_GUANO
  1

  0
LINE
  5
284
100
AcDbEntity
  8
GUANO
 62
256
370
-1
 48
1.0
  6
ByLayer
100
AcDbLine
 10
-0.15
 20
-0.15
 30
0.0
 11
0.15
 21
0.15
 31
0.0
  0
LINE
  5
285
100
AcDbEntity
  8
GUANO
 62
256
370
-1
 48
1.0
  6
ByLayer
100
AcDbLine
 10
-0.15
 20
0.15
 30
0.0
 11
0.15
 21
-0.15
 31
0.0
  0
ENDBLK
  5
286
100
AcDbEntity
  8
0
100
AcDbBlockEnd
  0
BLOCK
  5
287
100
AcDbEntity
  8
0
100
AcDbBlockBegin
  2
TB_BAR_SCALE_1IN40FT
 70
0
 10
0.0
 20
0.0
 30
0.0
  3
TB_BAR_SCALE_1IN40FT
  1

  0
HATCH
  5
288
100
AcDbEntity
  8
SCALE-BAR
 62
7
420
16777215
370
-1
 48
1.0
  6
ByLayer
100
AcDbHatch
 10
0.0
 20
0.0
 30
0.0
210
0.0
220
0.0
230
1.0
  2
SOLID
 70
1
 71
0
 91
2
 92
1
 93
0
 97
0
 92
1
 93
4
 72
1
 10
0.0
 20
0.0
 11
0.5
 21
0.0
 72
1
 10
0.5
 20
0.0
 11
0.5
 21
0.13
 72
1
 10
0.5
 20
0.13
 11
0.0
 21
0.13
 72
1
 10
0.0
 20
0.13
 11
0.0
 21
0.0
 97
0
 75
0
 76
1
 98
0
1001
ACAD
1010
0.0
1020
0.0
1030
0
  0
LWPOLYLINE
  5
289
100
AcDbEntity
  8
SCALE-BAR
 62
256
370
-1
 48
1.0
  6
ByLayer
100
AcDbPolyline
 90
4
 70
1
 10
0.0
 20
0.0
 10
0.5
 20
0.0
 10
0.5
 20
0.13
 10
0.0
 20
0.13
  0
LWPOLYLINE
  5
28A
100
AcDbEntity
  8
SCALE-BAR
 62
256
370
-1
 48
1.0
  6
ByLayer
100
AcDbPolyline
 90
4
 70
1
 10
0.5
 20
0.0
 10
1.0
 20
0.0
 10
1.0
 20
0.13
 10
0.5
 20
0.13
  0
LINE
  5
28B
100
AcDbEntity
  8
SCALE-BAR
 62
256
370
-1
 48
1.0
  6
ByLayer
100
AcDbLine
 10
1.0
 20
0.065
 30
0.0
 11
3.0
 21
0.065
 31
0.0
  0
LINE
  5
28C
100
AcDbEntity
  8
SCALE-BAR
 62
256
370
-1
 48
1.0
  6
ByLayer
100
AcDbLine
 10
0.0
 20
-0.05
 30
0.0
 11
0.0
 21
0.18
 31
0.0
  0
TEXT
  5
28D
100
AcDbEntity
  8
SCALE-BAR
 62
256
370
-1
 48
1.0
  6
ByLayer
100
AcDbText
 10
0.0
 20
-0.1
 30
0.0
 40
0.11
  1
0
 50
0.0
 41
1.0
  7
textstyle47
 71
0
 72
1
 11
0.0
 21
-0.1
 31
0.0
100
AcDbText
 73
3
  0
LINE
  5
28E
100
AcDbEntity
  8
SCALE-BAR
 62
256
370
-1
 48
1.0
  6
ByLayer
100
AcDbLine
 10
0.5
 20
-0.05
 30
0.0
 11
0.5
 21
0.18
 31
0.0
  0
TEXT
  5
28F
100
AcDbEntity
  8
SCALE-BAR
 62
256
370
-1
 48
1.0
  6
ByLayer
100
AcDbText
 10
0.5
 20
-0.1
 30
0.0
 40
0.11
  1
20
 50
0.0
 41
1.0
  7
textstyle43
 71
0
 72
1
 11
0.5
 21
-0.1
 31
0.0
100
AcDbText
 73
3
  0
LINE
  5
290
100
AcDbEntity
  8
SCALE-BAR
 62
256
370
-1
 48
1.0
  6
ByLayer
100
AcDbLine
 10
1.0
 20
-0.05
 30
0.0
 11
1.0
 21
0.18
 31
0.0
  0
TEXT
  5
291
100
AcDbEntity
  8
SCALE-BAR
 62
256
370
-1
 48
1.0
  6
ByLayer
100
AcDbText
 10
1.0
 20
-0.1
 30
0.0
 40
0.11
  1
40
 50
0.0
 41
1.0
  7
textstyle44
 71
0
 72
1
 11
1.0
 21
-0.1
 31
0.0
100
AcDbText
 73
3
  0
LINE
  5
292
100
AcDbEntity
  8
SCALE-BAR
 62
256
370
-1
 48
1.0
  6
ByLayer
100
AcDbLine
 10
2.0
 20
-0.05
 30
0.0
 11
2.0
 21
0.18
 31
0.0
  0
TEXT
  5
293
100
AcDbEntity
  8
SCALE-BAR
 62
256
370
-1
 48
1.0
  6
ByLayer
100
AcDbText
 10
2.0
 20
-0.1
 30
0.0
 40
0.11
  1
80
 50
0.0
 41
1.0
  7
textstyle45
 71
0
 72
1
 11
2.0
 21
-0.1
 31
0.0
100
AcDbText
 73
3
  0
LINE
  5
294
100
AcDbEntity
  8
SCALE-BAR
 62
256
370
-1
 48
1.0
  6
ByLayer
100
AcDbLine
 10
3.0
 20
-0.05
 30
0.0
 11
3.0
 21
0.18
 31
0.0
  0
TEXT
  5
295
100
AcDbEntity
  8
SCALE-BAR
 62
256
370
-1
 48
1.0
  6
ByLayer
100
AcDbText
 10
3.0
 20
-0.1
 30
0.0
 40
0.11
  1
120
 50
0.0
 41
1.0
  7
textstyle46
 71
0
 72
1
 11
3.0
 21
-0.1
 31
0.0
100
AcDbText
 73
3
  0
TEXT
  5
296
100
AcDbEntity
  8
SCALE-BAR
 62
256
370
-1
 48
1.0
  6
ByLayer
100
AcDbText
 10
0.0
 20
0.48
 30
0.0
 40
0.14
  1
SCALE: 1" = 40 ft
 50
0.0
 41
1.0
  7
textstyle48
 71
0
 72
0
 11
0.0
 21
0.48
 31
0.0
100
AcDbText
 73
1
  0
ENDBLK
  5
297
100
AcDbEntity
  8
0
100
AcDbBlockEnd
  0
BLOCK
  5
298
100
AcDbEntity
  8
0
100
AcDbBlockBegin
  2
SYM_CLIMB_ARROW
 70
0
 10
0.0
 20
0.0
 30
0.0
  3
SYM_CLIMB_ARROW
  1

  0
LWPOLYLINE
  5
299
100
AcDbEntity
  8
0
 62
0
370
-1
 48
1.0
  6
ByLayer
100
AcDbPolyline
 90
2
 70
0
 10
0.0
 20
-0.5
 10
0.0
 20
0.5
  0
LWPOLYLINE
  5
29A
100
AcDbEntity
  8
0
 62
0
370
-1
 48
1.0
  6
ByLayer
100
AcDbPolyline
 90
3
 70
0
 10
-0.15
 20
0.25
 10
0.0
 20
0.5
 10
0.15
 20
0.25
  0
ENDBLK
  5
29B
100
AcDbEntity
  8
0
100
AcDbBlockEnd
  0
BLOCK
  5
29C
100
AcDbEntity
  8
0
100
AcDbBlockBegin
  2
_CLOSEDFILLED
 70
0
 10
0.0
 20
0.0
 30
0.0
  3
_CLOSEDFILLED
  1

  0
SOLID
  5
29D
100
AcDbEntity
  8
0
 62
0
370
-1
 48
1.0
  6
ByBlock
100
AcDbTrace
 10
-1.0
 20
0.1643989837240254
 30
0.0
 11
0.0
 21
0.0
 31
0.0
 12
-1.0
 22
-0.1643989837240254
 32
0.0
 13
-1.0
 23
-0.1643989837240254
 33
0.0
 39
0.0
  0
ENDBLK
  5
29E
100
AcDbEntity
  8
0
100
AcDbBlockEnd
  0
BLOCK
  5
29F
100
AcDbEntity
  8
0
100
AcDbBlockBegin
  2
SYM_DOME
 70
0
 10
0.0
 20
0.0
 30
0.0
  3
SYM_DOME
  1

  0
CIRCLE
  5
2A0
100
AcDbEntity
  8
PITS-DOMES
 62
256
370
-1
 48
1.0
  6
ByLayer
100
AcDbCircle
 10
0.0
 20
0.0
 30
0.0
 40
0.5
  0
LINE
  5
2A1
100
AcDbEntity
  8
PITS-DOMES
 62
256
370
-1
 48
1.0
  6
ByLayer
100
AcDbLine
 10
0.5
 20
0.0
 30
0.0
 11
0.75
 21
0.0
 31
0.0
  0
LINE
  5
2A2
100
AcDbEntity
  8
PITS-DOMES
 62
256
370
-1
 48
1.0
  6
ByLayer
100
AcDbLine
 10
0.4330127018922194
 20
0.25
 30
0.0
 11
0.649519052838329
 21
0.3749999999999999
 31
0.0
  0
LINE
  5
2A3
100
AcDbEntity
  8
PITS-DOMES
 62
256
370
-1
 48
1.0
  6
ByLayer
100
AcDbLine
 10
0.2500000000000001
 20
0.4330127018922193
 30
0.0
 11
0.3750000000000001
 21
0.649519052838329
 31
0.0
  0
LINE
  5
2A4
100
AcDbEntity
  8
PITS-DOMES
 62
256
370
-1
 48
1.0
  6
ByLayer
100
AcDbLine
 10
0.0
 20
0.5
 30
0.0
 11
0.0
 21
0.75
 31
0.0
  0
LINE
  5
2A5
100
AcDbEntity
  8
PITS-DOMES
 62
256
370
-1
 48
1.0
  6
ByLayer
100
AcDbLine
 10
-0.2499999999999999
 20
0.4330127018922194
 30
0.0
 11
-0.3749999999999998
 21
0.649519052838329
 31
0.0
  0
LINE
  5
2A6
100
AcDbEntity
  8
PITS-DOMES
 62
256
370
-1
 48
1.0
  6
ByLayer
100
AcDbLine
 10
-0.4330127018922194
 20
0.25
 30
0.0
 11
-0.649519052838329
 21
0.3749999999999999
 31
0.0
  0
LINE
  5
2A7
100
AcDbEntity
  8
PITS-DOMES
 62
256
370
-1
 48
1.0
  6
ByLayer
100
AcDbLine
 10
-0.5
 20
0.0000000000000001
 30
0.0
 11
-0.75
 21
0.0000000000000001
 31
0.0
  0
LINE
  5
2A8
100
AcDbEntity
  8
PITS-DOMES
 62
256
370
-1
 48
1.0
  6
ByLayer
100
AcDbLine
 10
-0.4330127018922193
 20
-0.2500000000000001
 30
0.0
 11
-0.649519052838329
 21
-0.3750000000000001
 31
0.0
  0
LINE
  5
2A9
100
AcDbEntity
  8
PITS-DOMES
 62
256
370
-1
 48
1.0
  6
ByLayer
100
AcDbLine
 10
-0.2500000000000002
 20
-0.4330127018922192
 30
0.0
 11
-0.3750000000000003
 21
-0.6495190528383288
 31
0.0
  0
LINE
  5
2AA
100
AcDbEntity
  8
PITS-DOMES
 62
256
370
-1
 48
1.0
  6
ByLayer
100
AcDbLine
 10
-0.0000000000000001
 20
-0.5
 30
0.0
 11
-0.0000000000000001
 21
-0.75
 31
0.0
  0
LINE
  5
2AB
100
AcDbEntity
  8
PITS-DOMES
 62
256
370
-1
 48
1.0
  6
ByLayer
100
AcDbLine
 10
0.2500000000000001
 20
-0.4330127018922193
 30
0.0
 11
0.3750000000000001
 21
-0.649519052838329
 31
0.0
  0
LINE
  5
2AC
100
AcDbEntity
  8
PITS-DOMES
 62
256
370
-1
 48
1.0
  6
ByLayer
100
AcDbLine
 10
0.4330127018922192
 20
-0.2500000000000002
 30
0.0
 11
0.6495190528383288
 21
-0.3750000000000003
 31
0.0
  0
ENDBLK
  5
2AD
100
AcDbEntity
  8
0
100
AcDbBlockEnd
  0
BLOCK
  5
2AE
100
AcDbEntity
  8
0
100
AcDbBlockBegin
  2
SYM_DRAPERY
 70
0
 10
0.0
 20
0.0
 30
0.0
  3
SYM_DRAPERY
  1

  0
LWPOLYLINE
  5
2AF
100
AcDbEntity
  8
FORMATIONS-DRAPERY
 62
256
370
-1
 48
1.0
  6
ByLayer
100
AcDbPolyline
 90
9
 70
0
 10
0.0
 20
-0.5
 10
0.12
 20
-0.375
 10
0.0
 20
-0.25
 10
-0.12
 20
-0.125
 10
-0.0
 20
0.0
 10
0.12
 20
0.125
 10
0.0
 20
0.25
 10
-0.12
 20
0.375
 10
-0.0000000000000001
 20
0.5
  0
ENDBLK
  5
2B0
100
AcDbEntity
  8
0
100
AcDbBlockEnd
  0
BLOCK
  5
2B1
100
AcDbEntity
  8
0
100
AcDbBlockBegin
  2
SYM_FLOWSTONE
 70
0
 10
0.0
 20
0.0
 30
0.0
  3
SYM_FLOWSTONE
  1

  0
ARC
  5
2B2
100
AcDbEntity
  8
FORMATIONS-FLOWSTONE
 62
256
370
-1
 48
1.0
  6
ByLayer
100
AcDbCircle
 10
0.0
 20
0.0
 30
0.0
 40
0.3
100
AcDbArc
 50
200.0
 51
340.0
  0
ENDBLK
  5
2B3
100
AcDbEntity
  8
0
100
AcDbBlockEnd
  0
ENDSEC
  0
SECTION
  2
ENTITIES
  0
INSERT
  5
2B4
100
AcDbEntity
  8
LEGEND
 62
256
370
-1
 48
1.0
  6
ByLayer
100
AcDbBlockReference
  2
SYM_ENTRANCE
 10
0.0
 20
0.0
 30
0.0
  0
TEXT
  5
2B5
100
AcDbEntity
  8
LEGEND
 62
256
370
-1
 48
1.0
  6
ByLayer
100
AcDbText
 10
1.5
 20
0.0
 30
0.0
 40
0.5
  1
Entrance
 50
0.0
 41
1.0
  7
textstyle49
 71
0
 72
0
 11
1.5
 21
0.0
 31
0.0
100
AcDbText
 73
2
  0
INSERT
  5
2B6
100
AcDbEntity
  8
LEGEND
 62
256
370
-1
 48
1.0
  6
ByLayer
100
AcDbBlockReference
  2
SYM_PIT
 10
0.0
 20
-2.2000000000000002
 30
0.0
  0
TEXT
  5
2B7
100
AcDbEntity
  8
LEGEND
 62
256
370
-1
 48
1.0
  6
ByLayer
100
AcDbText
 10
1.5
 20
-2.2000000000000002
 30
0.0
 40
0.5
  1
Pit (drop in floor)
 50
0.0
 41
1.0
  7
textstyle50
 71
0
 72
0
 11
1.5
 21
-2.2000000000000002
 31
0.0
100
AcDbText
 73
2
  0
INSERT
  5
2B8
100
AcDbEntity
  8
LEGEND
 62
256
370
-1
 48
1.0
  6
ByLayer
100
AcDbBlockReference
  2
SYM_DOME
 10
0.0
 20
-4.4000000000000004
 30
0.0
  0
TEXT
  5
2B9
100
AcDbEntity
  8
LEGEND
 62
256
370
-1
 48
1.0
  6
ByLayer
100
AcDbText
 10
1.5
 20
-4.4000000000000004
 30
0.0
 40
0.5
  1
Dome (rise in ceiling)
 50
0.0
 41
1.0
  7
textstyle51
 71
0
 72
0
 11
1.5
 21
-4.4000000000000004
 31
0.0
100
AcDbText
 73
2
  0
INSERT
  5
2BA
100
AcDbEntity
  8
LEGEND
 62
256
370
-1
 48
1.0
  6
ByLayer
100
AcDbBlockReference
  2
SYM_BREAKDOWN
 10
0.0
 20
-6.6000000000000005
 30
0.0
  0
TEXT
  5
2BB
100
AcDbEntity
  8
LEGEND
 62
256
370
-1
 48
1.0
  6
ByLayer
100
AcDbText
 10
1.5
 20
-6.6000000000000005
 30
0.0
 40
0.5
  1
Breakdown (see scatter_breakdown.py)
 50
0.0
 41
1.0
  7
textstyle52
 71
0
 72
0
 11
1.5
 21
-6.6000000000000005
 31
0.0
100
AcDbText
 73
2
  0
INSERT
  5
2BC
100
AcDbEntity
  8
LEGEND
 62
256
370
-1
 48
1.0
  6
ByLayer
100
AcDbBlockReference
  2
SYM_CLIMB_ARROW
 10
0.0
 20
-8.8000000000000007
 30
0.0
  0
TEXT
  5
2BD
100
AcDbEntity
  8
LEGEND
 62
256
370
-1
 48
1.0
  6
ByLayer
100
AcDbText
 10
1.5
 20
-8.8000000000000007
 30
0.0
 40
0.5
  1
Climb / chimney (up)
 50
0.0
 41
1.0
  7
textstyle57
 71
0
 72
0
 11
1.5
 21
-8.8000000000000007
 31
0.0
100
AcDbText
 73
2
  0
INSERT
  5
2BE
100
AcDbEntity
  8
LEGEND
 62
256
370
-1
 48
1.0
  6
ByLayer
100
AcDbBlockReference
  2
SYM_STALACTITE
 10
0.0
 20
-11.0
 30
0.0
  0
TEXT
  5
2BF
100
AcDbEntity
  8
LEGEND
 62
256
370
-1
 48
1.0
  6
ByLayer
100
AcDbText
 10
1.5
 20
-11.0
 30
0.0
 40
0.5
  1
Stalactite
 50
0.0
 41
1.0
  7
textstyle58
 71
0
 72
0
 11
1.5
 21
-11.0
 31
0.0
100
AcDbText
 73
2
  0
INSERT
  5
2C0
100
AcDbEntity
  8
LEGEND
 62
256
370
-1
 48
1.0
  6
ByLayer
100
AcDbBlockReference
  2
SYM_STALAGMITE
 10
0.0
 20
-13.2000000000000011
 30
0.0
  0
TEXT
  5
2C1
100
AcDbEntity
  8
LEGEND
 62
256
370
-1
 48
1.0
  6
ByLayer
100
AcDbText
 10
1.5
 20
-13.2000000000000011
 30
0.0
 40
0.5
  1
Stalagmite
 50
0.0
 41
1.0
  7
textstyle59
 71
0
 72
0
 11
1.5
 21
-13.2000000000000011
 31
0.0
100
AcDbText
 73
2
  0
INSERT
  5
2C2
100
AcDbEntity
  8
LEGEND
 62
256
370
-1
 48
1.0
  6
ByLayer
100
AcDbBlockReference
  2
SYM_COLUMN
 10
0.0
 20
-15.4000000000000021
 30
0.0
  0
TEXT
  5
2C3
100
AcDbEntity
  8
LEGEND
 62
256
370
-1
 48
1.0
  6
ByLayer
100
AcDbText
 10
1.5
 20
-15.4000000000000021
 30
0.0
 40
0.5
  1
Column
 50
0.0
 41
1.0
  7
textstyle60
 71
0
 72
0
 11
1.5
 21
-15.4000000000000021
 31
0.0
100
AcDbText
 73
2
  0
INSERT
  5
2C4
100
AcDbEntity
  8
LEGEND
 62
256
370
-1
 48
1.0
  6
ByLayer
100
AcDbBlockReference
  2
SYM_FLOWSTONE
 10
0.0
 20
-17.6000000000000014
 30
0.0
  0
TEXT
  5
2C5
100
AcDbEntity
  8
LEGEND
 62
256
370
-1
 48
1.0
  6
ByLayer
100
AcDbText
 10
1.5
 20
-17.6000000000000014
 30
0.0
 40
0.5
  1
Flowstone (array along wall)
 50
0.0
 41
1.0
  7
textstyle53
 71
0
 72
0
 11
1.5
 21
-17.6000000000000014
 31
0.0
100
AcDbText
 73
2
  0
INSERT
  5
2C6
100
AcDbEntity
  8
LEGEND
 62
256
370
-1
 48
1.0
  6
ByLayer
100
AcDbBlockReference
  2
SYM_DRAPERY
 10
0.0
 20
-19.8000000000000007
 30
0.0
  0
TEXT
  5
2C7
100
AcDbEntity
  8
LEGEND
 62
256
370
-1
 48
1.0
  6
ByLayer
100
AcDbText
 10
1.5
 20
-19.8000000000000007
 30
0.0
 40
0.5
  1
Drapery / curtain (array)
 50
0.0
 41
1.0
  7
textstyle54
 71
0
 72
0
 11
1.5
 21
-19.8000000000000007
 31
0.0
100
AcDbText
 73
2
  0
INSERT
  5
2C8
100
AcDbEntity
  8
LEGEND
 62
256
370
-1
 48
1.0
  6
ByLayer
100
AcDbBlockReference
  2
SYM_RIMSTONE_DAM
 10
0.0
 20
-22.0
 30
0.0
  0
TEXT
  5
2C9
100
AcDbEntity
  8
LEGEND
 62
256
370
-1
 48
1.0
  6
ByLayer
100
AcDbText
 10
1.5
 20
-22.0
 30
0.0
 40
0.5
  1
Rimstone dam / gour
 50
0.0
 41
1.0
  7
textstyle55
 71
0
 72
0
 11
1.5
 21
-22.0
 31
0.0
100
AcDbText
 73
2
  0
INSERT
  5
2CA
100
AcDbEntity
  8
LEGEND
 62
256
370
-1
 48
1.0
  6
ByLayer
100
AcDbBlockReference
  2
SYM_MOONMILK_POPCORN
 10
0.0
 20
-24.2000000000000028
 30
0.0
  0
TEXT
  5
2CB
100
AcDbEntity
  8
LEGEND
 62
256
370
-1
 48
1.0
  6
ByLayer
100
AcDbText
 10
1.5
 20
-24.2000000000000028
 30
0.0
 40
0.5
  1
Moonmilk / popcorn
 50
0.0
 41
1.0
  7
textstyle56
 71
0
 72
0
 11
1.5
 21
-24.2000000000000028
 31
0.0
100
AcDbText
 73
2
  0
INSERT
  5
2CC
100
AcDbEntity
  8
LEGEND
 62
256
370
-1
 48
1.0
  6
ByLayer
100
AcDbBlockReference
  2
SYM_CLAY_MUD_TICK
 10
0.0
 20
-26.4000000000000021
 30
0.0
  0
TEXT
  5
2CD
100
AcDbEntity
  8
LEGEND
 62
256
370
-1
 48
1.0
  6
ByLayer
100
AcDbText
 10
1.5
 20
-26.4000000000000021
 30
0.0
 40
0.5
  1
Clay / mud (array as fill)
 50
0.0
 41
1.0
  7
textstyle65
 71
0
 72
0
 11
1.5
 21
-26.4000000000000021
 31
0.0
100
AcDbText
 73
2
  0
INSERT
  5
2CE
100
AcDbEntity
  8
LEGEND
 62
256
370
-1
 48
1.0
  6
ByLayer
100
AcDbBlockReference
  2
SYM_SAND_GRAVEL_DOT
 10
0.0
 20
-28.6000000000000014
 30
0.0
  0
TEXT
  5
2CF
100
AcDbEntity
  8
LEGEND
 62
256
370
-1
 48
1.0
  6
ByLayer
100
AcDbText
 10
1.5
 20
-28.6000000000000014
 30
0.0
 40
0.5
  1
Sand / gravel (array as fill)
 50
0.0
 41
1.0
  7
textstyle66
 71
0
 72
0
 11
1.5
 21
-28.6000000000000014
 31
0.0
100
AcDbText
 73
2
  0
INSERT
  5
2D0
100
AcDbEntity
  8
LEGEND
 62
256
370
-1
 48
1.0
  6
ByLayer
100
AcDbBlockReference
  2
SYM_GUANO
 10
0.0
 20
-30.8000000000000043
 30
0.0
  0
TEXT
  5
2D1
100
AcDbEntity
  8
LEGEND
 62
256
370
-1
 48
1.0
  6
ByLayer
100
AcDbText
 10
1.5
 20
-30.8000000000000043
 30
0.0
 40
0.5
  1
Guano (array as fill)
 50
0.0
 41
1.0
  7
textstyle67
 71
0
 72
0
 11
1.5
 21
-30.8000000000000043
 31
0.0
100
AcDbText
 73
2
  0
INSERT
  5
2D2
100
AcDbEntity
  8
LEGEND
 62
256
370
-1
 48
1.0
  6
ByLayer
100
AcDbBlockReference
  2
SYM_FIXED_POINT
 10
0.0
 20
-33.0
 30
0.0
  0
TEXT
  5
2D3
100
AcDbEntity
  8
LEGEND
 62
256
370
-1
 48
1.0
  6
ByLayer
100
AcDbText
 10
1.5
 20
-33.0
 30
0.0
 40
0.5
  1
Fixed / permanent point
 50
0.0
 41
1.0
  7
textstyle68
 71
0
 72
0
 11
1.5
 21
-33.0
 31
0.0
100
AcDbText
 73
2
  0
INSERT
  5
2D4
100
AcDbEntity
  8
LEGEND
 62
256
370
-1
 48
1.0
  6
ByLayer
100
AcDbBlockReference
  2
SYM_SECTION_MARKER
 10
0.0
 20
-35.2000000000000028
 30
0.0
  0
TEXT
  5
2D5
100
AcDbEntity
  8
LEGEND
 62
256
370
-1
 48
1.0
  6
ByLayer
100
AcDbText
 10
1.5
 20
-35.2000000000000028
 30
0.0
 40
0.5
  1
Cross-section location
 50
0.0
 41
1.0
  7
textstyle61
 71
0
 72
0
 11
1.5
 21
-35.2000000000000028
 31
0.0
100
AcDbText
 73
2
  0
INSERT
  5
2D6
100
AcDbEntity
  8
LEGEND
 62
256
370
-1
 48
1.0
  6
ByLayer
100
AcDbBlockReference
  2
SYM_CEILING_HEIGHT
 10
0.0
 20
-37.4000000000000057
 30
0.0
  0
TEXT
  5
2D7
100
AcDbEntity
  8
LEGEND
 62
256
370
-1
 48
1.0
  6
ByLayer
100
AcDbText
 10
1.5
 20
-37.4000000000000057
 30
0.0
 40
0.5
  1
Ceiling height point + leader
 50
0.0
 41
1.0
  7
textstyle62
 71
0
 72
0
 11
1.5
 21
-37.4000000000000057
 31
0.0
100
AcDbText
 73
2
  0
INSERT
  5
2D8
100
AcDbEntity
  8
LEGEND
 62
256
370
-1
 48
1.0
  6
ByLayer
100
AcDbBlockReference
  2
SYM_NORTH_ARROW
 10
0.0
 20
-39.6000000000000014
 30
0.0
  0
TEXT
  5
2D9
100
AcDbEntity
  8
LEGEND
 62
256
370
-1
 48
1.0
  6
ByLayer
100
AcDbText
 10
1.5
 20
-39.6000000000000014
 30
0.0
 40
0.5
  1
North arrow
 50
0.0
 41
1.0
  7
textstyle63
 71
0
 72
0
 11
1.5
 21
-39.6000000000000014
 31
0.0
100
AcDbText
 73
2
  0
INSERT
  5
2DA
100
AcDbEntity
  8
LEGEND
 62
256
370
-1
 48
1.0
  6
ByLayer
100
AcDbBlockReference
  2
SYM_SIPHON
 10
16.0
 20
0.0
 30
0.0
  0
TEXT
  5
2DB
100
AcDbEntity
  8
LEGEND
 62
256
370
-1
 48
1.0
  6
ByLayer
100
AcDbText
 10
17.5
 20
0.0
 30
0.0
 40
0.5
  1
Siphon (submerged continuation)
 50
0.0
 41
1.0
  7
textstyle64
 71
0
 72
0
 11
17.5
 21
0.0
 31
0.0
100
AcDbText
 73
2
  0
INSERT
  5
2DC
100
AcDbEntity
  8
LEGEND
 62
256
370
-1
 48
1.0
  6
ByLayer
100
AcDbBlockReference
  2
SYM_SPRING
 10
16.0
 20
-2.2000000000000002
 30
0.0
  0
TEXT
  5
2DD
100
AcDbEntity
  8
LEGEND
 62
256
370
-1
 48
1.0
  6
ByLayer
100
AcDbText
 10
17.5
 20
-2.2000000000000104
 30
0.0
 40
0.5
  1
Spring / resurgence
 50
0.0
 41
1.0
  7
textstyle72
 71
0
 72
0
 11
17.5
 21
-2.2000000000000104
 31
0.0
100
AcDbText
 73
2
  0
INSERT
  5
2DE
100
AcDbEntity
  8
LEGEND
 62
256
370
-1
 48
1.0
  6
ByLayer
100
AcDbBlockReference
  2
SYM_DRIP_SEEP
 10
16.0
 20
-4.4000000000000004
 30
0.0
  0
TEXT
  5
2DF
100
AcDbEntity
  8
LEGEND
 62
256
370
-1
 48
1.0
  6
ByLayer
100
AcDbText
 10
17.5
 20
-4.4000000000000057
 30
0.0
 40
0.5
  1
Drip / seep
 50
0.0
 41
1.0
  7
textstyle73
 71
0
 72
0
 11
17.5
 21
-4.4000000000000057
 31
0.0
100
AcDbText
 73
2
  0
INSERT
  5
2E0
100
AcDbEntity
  8
LEGEND
 62
256
370
-1
 48
1.0
  6
ByLayer
100
AcDbBlockReference
  2
SYM_SUMP
 10
16.0
 20
-6.6000000000000005
 30
0.0
  0
TEXT
  5
2E1
100
AcDbEntity
  8
LEGEND
 62
256
370
-1
 48
1.0
  6
ByLayer
100
AcDbText
 10
17.4999999999999964
 20
-6.6000000000000059
 30
0.0
 40
0.5
  1
Sump (pool, unknown continuation)
 50
0.0
 41
1.0
  7
textstyle74
 71
0
 72
0
 11
17.4999999999999964
 21
-6.6000000000000059
 31
0.0
100
AcDbText
 73
2
  0
LINE
  5
2E2
100
AcDbEntity
  8
WALLS-SURVEYED
 62
256
370
-1
 48
1.0
  6
Continuous
100
AcDbLine
 10
30.0
 20
0.0
 30
0.0
 11
33.0
 21
0.0
 31
0.0
  0
TEXT
  5
2E3
100
AcDbEntity
  8
LEGEND
 62
256
370
-1
 48
1.0
  6
ByLayer
100
AcDbText
 10
33.5
 20
0.0
 30
0.0
 40
0.5
  1
Wall - surveyed
 50
0.0
 41
1.0
  7
textstyle75
 71
0
 72
0
 11
33.5
 21
0.0
 31
0.0
100
AcDbText
 73
2
  0
LINE
  5
2E4
100
AcDbEntity
  8
WALLS-INFERRED
 62
256
370
-1
 48
1.0
  6
NSS_INFERRED
100
AcDbLine
 10
30.0
 20
-2.2000000000000002
 30
0.0
 11
33.0
 21
-2.2000000000000002
 31
0.0
  0
TEXT
  5
2E5
100
AcDbEntity
  8
LEGEND
 62
256
370
-1
 48
1.0
  6
ByLayer
100
AcDbText
 10
33.5
 20
-2.2000000000000557
 30
0.0
 40
0.5
  1
Wall - inferred / projected
 50
0.0
 41
1.0
  7
textstyle69
 71
0
 72
0
 11
33.5
 21
-2.2000000000000557
 31
0.0
100
AcDbText
 73
2
  0
LINE
  5
2E6
100
AcDbEntity
  8
OVERHANG-LEDGE
 62
256
370
-1
 48
1.0
  6
NSS_OVERHANG
100
AcDbLine
 10
30.0
 20
-4.4000000000000004
 30
0.0
 11
33.0
 21
-4.4000000000000004
 31
0.0
  0
TEXT
  5
2E7
100
AcDbEntity
  8
LEGEND
 62
256
370
-1
 48
1.0
  6
ByLayer
100
AcDbText
 10
33.5
 20
-4.4000000000000155
 30
0.0
 40
0.5
  1
Overhang / ceiling ledge
 50
0.0
 41
1.0
  7
textstyle70
 71
0
 72
0
 11
33.5
 21
-4.4000000000000155
 31
0.0
100
AcDbText
 73
2
  0
LINE
  5
2E8
100
AcDbEntity
  8
GEOLOGY-JOINTS-FRACTURES
 62
256
370
-1
 48
1.0
  6
NSS_JOINT
100
AcDbLine
 10
30.0
 20
-6.6000000000000005
 30
0.0
 11
33.0
 21
-6.6000000000000005
 31
0.0
  0
TEXT
  5
2E9
100
AcDbEntity
  8
LEGEND
 62
256
370
-1
 48
1.0
  6
ByLayer
100
AcDbText
 10
33.5
 20
-6.6000000000000059
 30
0.0
 40
0.5
  1
Geologic joint / fracture trend
 50
0.0
 41
1.0
  7
textstyle71
 71
0
 72
0
 11
33.5
 21
-6.6000000000000059
 31
0.0
100
AcDbText
 73
2
  0
LINE
  5
2EA
100
AcDbEntity
  8
WATER-PERENNIAL
 62
256
370
-1
 48
1.0
  6
Continuous
100
AcDbLine
 10
30.0
 20
-8.8000000000000007
 30
0.0
 11
33.0
 21
-8.8000000000000007
 31
0.0
  0
INSERT
  5
2EB
100
AcDbEntity
  8
WATER-FLOW-ARROWS
 62
256
370
-1
 48
1.0
  6
ByLayer
100
AcDbBlockReference
  2
SYM_FLOW_ARROW
 10
31.5
 20
-8.8000000000000007
 30
0.0
  0
TEXT
  5
2EC
100
AcDbEntity
  8
LEGEND
 62
256
370
-1
 48
1.0
  6
ByLayer
100
AcDbText
 10
33.5
 20
-8.8000000000000149
 30
0.0
 40
0.5
  1
Water - perennial (flow arrow shown)
 50
0.0
 41
1.0
  7
textstyle79
 71
0
 72
0
 11
33.5
 21
-8.8000000000000149
 31
0.0
100
AcDbText
 73
2
  0
LINE
  5
2ED
100
AcDbEntity
  8
WATER-INTERMITTENT
 62
256
370
-1
 48
1.0
  6
NSS_WATER_INTERMITTENT
100
AcDbLine
 10
30.0
 20
-11.0
 30
0.0
 11
33.0
 21
-11.0
 31
0.0
  0
INSERT
  5
2EE
100
AcDbEntity
  8
WATER-FLOW-ARROWS
 62
256
370
-1
 48
1.0
  6
ByLayer
100
AcDbBlockReference
  2
SYM_FLOW_ARROW
 10
31.5
 20
-11.0
 30
0.0
  0
TEXT
  5
2EF
100
AcDbEntity
  8
LEGEND
 62
256
370
-1
 48
1.0
  6
ByLayer
100
AcDbText
 10
33.4999999999999929
 20
-11.0000000000000178
 30
0.0
 40
0.5
  1
Water - intermittent (flow arrow shown)
 50
0.0
 41
1.0
  7
textstyle80
 71
0
 72
0
 11
33.4999999999999929
 21
-11.0000000000000178
 31
0.0
100
AcDbText
 73
2
  0
LINE
  5
2F0
100
AcDbEntity
  8
DRIPLINE
 62
256
370
-1
 48
1.0
  6
NSS_DRIPLINE
100
AcDbLine
 10
30.0
 20
-13.2000000000000011
 30
0.0
 11
33.0
 21
-13.2000000000000011
 31
0.0
  0
TEXT
  5
2F1
100
AcDbEntity
  8
LEGEND
 62
256
370
-1
 48
1.0
  6
ByLayer
100
AcDbText
 10
33.5
 20
-13.2000000000000117
 30
0.0
 40
0.5
  1
Dripline
 50
0.0
 41
1.0
  7
textstyle81
 71
0
 72
0
 11
33.5
 21
-13.2000000000000117
 31
0.0
100
AcDbText
 73
2
  0
HATCH
  5
2F2
100
AcDbEntity
  8
SEDIMENT-CLAY-MUD
 62
30
420
16744192
370
-1
 48
1.0
  6
ByLayer
100
AcDbHatch
 10
0.0
 20
0.0
 30
0.0
210
0.0
220
0.0
230
1.0
  2
NSS_CLAY_MUD
 70
0
 71
0
 91
2
 92
1
 93
0
 97
0
 92
1
 93
4
 72
1
 10
43.2000000000000028
 20
-0.8
 11
44.7999999999999972
 21
-0.8
 72
1
 10
44.7999999999999972
 20
-0.8
 11
44.7999999999999972
 21
0.8
 72
1
 10
44.7999999999999972
 20
0.8
 11
43.2000000000000028
 21
0.8
 72
1
 10
43.2000000000000028
 20
0.8
 11
43.2000000000000028
 21
-0.8
 97
0
 75
0
 76
1
 52
0.0
 41
1.0
 77
0
 78
1
 53
45.0
 43
0.0
 44
0.0
 45
-0.0883883476483184
 46
0.0883883476483185
 79
0
 98
0
1001
ACAD
1010
0.0
1020
0.0
1030
0
  0
LWPOLYLINE
  5
2F3
100
AcDbEntity
  8
LEGEND
 62
256
370
-1
 48
1.0
  6
ByLayer
100
AcDbPolyline
 90
4
 70
1
 10
48.2000000000000028
 20
-0.8
 10
49.7999999999999972
 20
-0.8
 10
49.7999999999999972
 20
0.8
 10
48.2000000000000028
 20
0.8
  0
TEXT
  5
2F4
100
AcDbEntity
  8
LEGEND
 62
256
370
-1
 48
1.0
  6
ByLayer
100
AcDbText
 10
50.2999999999999972
 20
0.0
 30
0.0
 40
0.5
  1
Clay / mud (area fill)
 50
0.0
 41
1.0
  7
textstyle76
 71
0
 72
0
 11
50.2999999999999972
 21
0.0
 31
0.0
100
AcDbText
 73
2
  0
HATCH
  5
2F5
100
AcDbEntity
  8
SEDIMENT-SAND-GRAVEL
 62
30
420
16744192
370
-1
 48
1.0
  6
ByLayer
100
AcDbHatch
 10
0.0
 20
0.0
 30
0.0
210
0.0
220
0.0
230
1.0
  2
NSS_SAND_GRAVEL
 70
0
 71
0
 91
2
 92
1
 93
0
 97
0
 92
1
 93
4
 72
1
 10
43.2000000000000028
 20
-3.0
 11
44.7999999999999972
 21
-3.0
 72
1
 10
44.7999999999999972
 20
-3.0
 11
44.7999999999999972
 21
-1.4000000000000001
 72
1
 10
44.7999999999999972
 20
-1.4000000000000001
 11
43.2000000000000028
 21
-1.4000000000000001
 72
1
 10
43.2000000000000028
 20
-1.4000000000000001
 11
43.2000000000000028
 21
-3.0
 97
0
 75
0
 76
1
 52
0.0
 41
1.0
 77
0
 78
1
 53
45.0
 43
0.0
 44
0.0
 45
-0.0883883476483184
 46
0.0883883476483185
 79
0
 98
0
1001
ACAD
1010
0.0
1020
0.0
1030
0
  0
LWPOLYLINE
  5
2F6
100
AcDbEntity
  8
LEGEND
 62
256
370
-1
 48
1.0
  6
ByLayer
100
AcDbPolyline
 90
4
 70
1
 10
48.2000000000000028
 20
-3.0
 10
49.7999999999999972
 20
-3.0
 10
49.7999999999999972
 20
-1.4000000000000001
 10
48.2000000000000028
 20
-1.4000000000000001
  0
TEXT
  5
2F7
100
AcDbEntity
  8
LEGEND
 62
256
370
-1
 48
1.0
  6
ByLayer
100
AcDbText
 10
50.2999999999999972
 20
-2.1999999999998918
 30
0.0
 40
0.5
  1
Sand / gravel (area fill)
 50
0.0
 41
1.0
  7
textstyle77
 71
0
 72
0
 11
50.2999999999999972
 21
-2.1999999999998918
 31
0.0
100
AcDbText
 73
2
  0
HATCH
  5
2F8
100
AcDbEntity
  8
GUANO
 62
40
420
16760576
370
-1
 48
1.0
  6
ByLayer
100
AcDbHatch
 10
0.0
 20
0.0
 30
0.0
210
0.0
220
0.0
230
1.0
  2
NSS_GUANO
 70
0
 71
0
 91
2
 92
1
 93
0
 97
0
 92
1
 93
4
 72
1
 10
43.2000000000000028
 20
-5.2000000000000002
 11
44.7999999999999972
 21
-5.2000000000000002
 72
1
 10
44.7999999999999972
 20
-5.2000000000000002
 11
44.7999999999999972
 21
-3.6000000000000005
 72
1
 10
44.7999999999999972
 20
-3.6000000000000005
 11
43.2000000000000028
 21
-3.6000000000000005
 72
1
 10
43.2000000000000028
 20
-3.6000000000000005
 11
43.2000000000000028
 21
-5.2000000000000002
 97
0
 75
0
 76
1
 52
0.0
 41
1.0
 77
0
 78
1
 53
45.0
 43
0.0
 44
0.0
 45
-0.0883883476483184
 46
0.0883883476483185
 79
0
 98
0
1001
ACAD
1010
0.0
1020
0.0
1030
0
  0
LWPOLYLINE
  5
2F9
100
AcDbEntity
  8
LEGEND
 62
256
370
-1
 48
1.0
  6
ByLayer
100
AcDbPolyline
 90
4
 70
1
 10
48.2000000000000028
 20
-5.2000000000000002
 10
49.7999999999999972
 20
-5.2000000000000002
 10
49.7999999999999972
 20
-3.6000000000000005
 10
48.2000000000000028
 20
-3.6000000000000005
  0
TEXT
  5
2FA
100
AcDbEntity
  8
LEGEND
 62
256
370
-1
 48
1.0
  6
ByLayer
100
AcDbText
 10
50.2999999999999901
 20
-4.400000000000011
 30
0.0
 40
0.5
  1
Guano (area fill)
 50
0.0
 41
1.0
  7
textstyle78
 71
0
 72
0
 11
50.2999999999999901
 21
-4.400000000000011
 31
0.0
100
AcDbText
 73
2
  0
HATCH
  5
2FB
100
AcDbEntity
  8
WATER-POOL-SUMP
 62
5
420
255
370
-1
 48
1.0
  6
ByLayer
100
AcDbHatch
 10
0.0
 20
0.0
 30
0.0
210
0.0
220
0.0
230
1.0
  2
NSS_WATER_FILL
 70
0
 71
0
 91
2
 92
1
 93
0
 97
0
 92
1
 93
4
 72
1
 10
43.2000000000000028
 20
-7.4000000000000004
 11
44.7999999999999972
 21
-7.4000000000000004
 72
1
 10
44.7999999999999972
 20
-7.4000000000000004
 11
44.7999999999999972
 21
-5.8000000000000007
 72
1
 10
44.7999999999999972
 20
-5.8000000000000007
 11
43.2000000000000028
 21
-5.8000000000000007
 72
1
 10
43.2000000000000028
 20
-5.8000000000000007
 11
43.2000000000000028
 21
-7.4000000000000004
 97
0
 75
0
 76
1
 52
0.0
 41
1.0
 77
0
 78
1
 53
45.0
 43
0.0
 44
0.0
 45
-0.0883883476483184
 46
0.0883883476483185
 79
0
 98
0
1001
ACAD
1010
0.0
1020
0.0
1030
0
  0
LWPOLYLINE
  5
2FC
100
AcDbEntity
  8
LEGEND
 62
256
370
-1
 48
1.0
  6
ByLayer
100
AcDbPolyline
 90
4
 70
1
 10
48.2000000000000028
 20
-7.4000000000000004
 10
49.7999999999999972
 20
-7.4000000000000004
 10
49.7999999999999972
 20
-5.8000000000000007
 10
48.2000000000000028
 20
-5.8000000000000007
  0
TEXT
  5
2FD
100
AcDbEntity
  8
LEGEND
 62
256
370
-1
 48
1.0
  6
ByLayer
100
AcDbText
 10
50.2999999999999901
 20
-6.6000000000000165
 30
0.0
 40
0.5
  1
Pool / still water (area fill)
 50
0.0
 41
1.0
  7
textstyle82
 71
0
 72
0
 11
50.2999999999999901
 21
-6.6000000000000165
 31
0.0
100
AcDbText
 73
2
  0
TEXT
  5
2FE
100
AcDbEntity
  8
LEGEND
 62
256
370
-1
 48
1.0
  6
ByLayer
100
AcDbText
 10
0.0
 20
2.2000000000000002
 30
0.0
 40
0.8
  1
CAVE MAP TEMPLATE - PLAN VIEW - SYMBOL & LINETYPE LEGEND
 50
0.0
 41
1.0
  7
textstyle83
 71
0
 72
0
 11
0.0
 21
2.2000000000000002
 31
0.0
100
AcDbText
 73
2
  0
INSERT
  5
2FF
100
AcDbEntity
  8
TITLE-BLOCK
 62
256
370
-1
 48
1.0
  6
ByLayer
100
AcDbBlockReference
  2
TB_CAVE_NAME
 10
0.0
 20
-70.0
 30
0.0
  0
INSERT
  5
300
100
AcDbEntity
  8
TITLE-BLOCK
 62
256
370
-1
 48
1.0
  6
ByLayer
100
AcDbBlockReference
  2
TB_LOCATION
 10
0.0
 20
-70.5
 30
0.0
  0
INSERT
  5
301
100
AcDbEntity
  8
TITLE-BLOCK
 62
256
370
-1
 48
1.0
  6
ByLayer
100
AcDbBlockReference
  2
TB_SURVEYED_BY
 10
0.0
 20
-71.0999999999999943
 30
0.0
  0
INSERT
  5
302
100
AcDbEntity
  8
TITLE-BLOCK
 62
256
370
-1
 48
1.0
  6
ByLayer
100
AcDbBlockReference
  2
TB_CARTOGRAPHY_BY
 10
0.0
 20
-71.5
 30
0.0
  0
INSERT
  5
303
100
AcDbEntity
  8
TITLE-BLOCK
 62
256
370
-1
 48
1.0
  6
ByLayer
100
AcDbBlockReference
  2
TB_DATE
 10
0.0
 20
-71.9000000000000057
 30
0.0
  0
INSERT
  5
304
100
AcDbEntity
  8
TITLE-BLOCK
 62
256
370
-1
 48
1.0
  6
ByLayer
100
AcDbBlockReference
  2
TB_SURVEY_METHOD
 10
0.0
 20
-72.2999999999999972
 30
0.0
  0
INSERT
  5
305
100
AcDbEntity
  8
TITLE-BLOCK
 62
256
370
-1
 48
1.0
  6
ByLayer
100
AcDbBlockReference
  2
TB_LENGTH
 10
6.0
 20
-71.0999999999999943
 30
0.0
  0
INSERT
  5
306
100
AcDbEntity
  8
TITLE-BLOCK
 62
256
370
-1
 48
1.0
  6
ByLayer
100
AcDbBlockReference
  2
TB_DEPTH
 10
6.0
 20
-71.5
 30
0.0
  0
INSERT
  5
307
100
AcDbEntity
  8
TITLE-BLOCK
 62
256
370
-1
 48
1.0
  6
ByLayer
100
AcDbBlockReference
  2
TB_PERSONNEL
 10
6.0
 20
-71.9000000000000057
 30
0.0
  0
INSERT
  5
308
100
AcDbEntity
  8
TITLE-BLOCK
 62
256
370
-1
 48
1.0
  6
ByLayer
100
AcDbBlockReference
  2
TB_LEGEND_NOTE
 10
10.0
 20
-71.0999999999999943
 30
0.0
  0
INSERT
  5
309
100
AcDbEntity
  8
TITLE-BLOCK
 62
256
370
-1
 48
1.0
  6
ByLayer
100
AcDbBlockReference
  2
TB_SURVEY_CODE
 10
10.0
 20
-71.5
 30
0.0
  0
INSERT
  5
30A
100
AcDbEntity
  8
TITLE-BLOCK
 62
256
370
-1
 48
1.0
  6
ByLayer
100
AcDbBlockReference
  2
TB_COPYRIGHT
 10
10.0
 20
-71.9000000000000057
 30
0.0
  0
INSERT
  5
30B
100
AcDbEntity
  8
TITLE-BLOCK
 62
256
370
-1
 48
1.0
  6
ByLayer
100
AcDbBlockReference
  2
TB_NORTH_ARROW_DECL
 10
14.5
 20
-71.0
 30
0.0
  0
INSERT
  5
30C
100
AcDbEntity
  8
TITLE-BLOCK
 62
256
370
-1
 48
1.0
  6
ByLayer
100
AcDbBlockReference
  2
TB_BORDER_ARCH_D_FULLBLEED
 10
20.0
 20
-67.0
 30
0.0
  0
INSERT
  5
30D
100
AcDbEntity
  8
TITLE-BLOCK
 62
256
370
-1
 48
1.0
  6
ByLayer
100
AcDbBlockReference
  2
TB_BAR_SCALE_1IN10FT
 10
13.5
 20
-73.2999999999999972
 30
0.0
  0
INSERT
  5
30E
100
AcDbEntity
  8
TITLE-BLOCK
 62
256
370
-1
 48
1.0
  6
ByLayer
100
AcDbBlockReference
  2
TB_BAR_SCALE_1IN20FT
 10
13.5
 20
-74.2000000000000028
 30
0.0
  0
INSERT
  5
30F
100
AcDbEntity
  8
TITLE-BLOCK
 62
256
370
-1
 48
1.0
  6
ByLayer
100
AcDbBlockReference
  2
TB_BAR_SCALE_1IN30FT
 10
13.5
 20
-75.0999999999999943
 30
0.0
  0
INSERT
  5
310
100
AcDbEntity
  8
TITLE-BLOCK
 62
256
370
-1
 48
1.0
  6
ByLayer
100
AcDbBlockReference
  2
TB_BAR_SCALE_1IN40FT
 10
13.5
 20
-76.0
 30
0.0
  0
INSERT
  5
311
100
AcDbEntity
  8
TITLE-BLOCK
 62
256
370
-1
 48
1.0
  6
ByLayer
100
AcDbBlockReference
  2
TB_BAR_SCALE_1IN50FT
 10
13.5
 20
-76.9000000000000057
 30
0.0
  0
INSERT
  5
312
100
AcDbEntity
  8
TITLE-BLOCK
 62
256
370
-1
 48
1.0
  6
ByLayer
100
AcDbBlockReference
  2
TB_BAR_SCALE_1IN60FT
 10
13.5
 20
-77.7999999999999972
 30
0.0
  0
INSERT
  5
313
100
AcDbEntity
  8
TITLE-BLOCK
 62
256
370
-1
 48
1.0
  6
ByLayer
100
AcDbBlockReference
  2
TB_BAR_SCALE_1IN100FT
 10
13.5
 20
-78.7000000000000028
 30
0.0
  0
INSERT
  5
314
100
AcDbEntity
  8
TITLE-BLOCK
 62
256
370
-1
 48
1.0
  6
ByLayer
100
AcDbBlockReference
  2
TB_BAR_SCALE_1IN200FT
 10
13.5
 20
-79.5999999999999943
 30
0.0
  0
INSERT
  5
315
100
AcDbEntity
  8
TITLE-BLOCK
 62
256
370
-1
 48
1.0
  6
ByLayer
100
AcDbBlockReference
  2
TB_BAR_SCALE_1IN300FT
 10
13.5
 20
-80.5
 30
0.0
  0
INSERT
  5
316
100
AcDbEntity
  8
TITLE-BLOCK
 62
256
370
-1
 48
1.0
  6
ByLayer
100
AcDbBlockReference
  2
TB_BAR_SCALE_1IN400FT
 10
13.5
 20
-81.4000000000000057
 30
0.0
  0
INSERT
  5
317
100
AcDbEntity
  8
TITLE-BLOCK
 62
256
370
-1
 48
1.0
  6
ByLayer
100
AcDbBlockReference
  2
TB_BAR_SCALE_1IN500FT
 10
13.5
 20
-82.2999999999999972
 30
0.0
  0
TEXT
  5
318
100
AcDbEntity
  8
LEGEND
 62
256
370
-1
 48
1.0
  6
ByLayer
100
AcDbText
 10
0.0
 20
-68.7999999999999972
 30
0.0
 40
0.6
  1
MODULAR TITLE BLOCK PIECES - reference only, place these individually
 50
0.0
 41
1.0
  7
textstyle36
 71
0
 72
0
 11
0.0
 21
-68.7999999999999972
 31
0.0
100
AcDbText
 73
2
  0
ENDSEC
  0
SECTION
  2
OBJECTS
  0
DICTIONARY
  5
C
100
AcDbDictionary
280
0
281
1
  3
ACAD_GROUP
350
D
  3
ACAD_LAYOUT
350
1A
  3
ACAD_MLINESTYLE
350
17
  3
ACAD_PLOTSETTINGS
350
19
  3
ACAD_PLOTSTYLENAME
350
E
  3
AcDbVariableDictionary
350
319
  3
QCAD_OBJECTS
350
31A
  0
DICTIONARY
  5
D
100
AcDbDictionary
280
0
281
1
  0
ACDBDICTIONARYWDFLT
  5
E
100
AcDbDictionary
281
1
  3
Normal
350
F
100
AcDbDictionaryWithDefault
340
F
  0
ACDBPLACEHOLDER
  5
F
  0
DICTIONARY
  5
17
100
AcDbDictionary
280
0
281
1
  3
Standard
350
18
  0
MLINESTYLE
  5
18
100
AcDbMlineStyle
  2
STANDARD
 70
0
  3

 62
256
 51
90.0
 52
90.0
 71
2
 49
0.5
 62
256
  6
BYLAYER
 49
-0.5
 62
256
  6
BYLAYER
  0
DICTIONARY
  5
19
100
AcDbDictionary
280
0
281
1
  0
DICTIONARY
  5
1A
100
AcDbDictionary
281
1
  3
Layout1
350
1E
  3
Layout2
350
26
  3
Model
350
22
  0
LAYOUT
  5
1E
100
AcDbPlotSettings
  1

  2
none_device
  4

  6

 40
0.0
 41
0.0
 42
0.0
 43
0.0
 44
0.0
 45
0.0
 46
0.0
 47
0.0
 48
0.0
 49
0.0
140
0.0
141
0.0
142
1.0
143
1.0
 70
688
 72
0
 73
0
 74
5
  7

 75
16
147
1.0
148
0.0
149
0.0
100
AcDbLayout
  1
Layout1
 70
1
 71
1
 10
0.0
 20
0.0
 11
420.0
 21
297.0
 12
0.0
 22
0.0
 32
0.0
 14
100000000000000000000.0
 24
100000000000000000000.0
 34
100000000000000000000.0
 15
-100000000000000000000.0
 25
-100000000000000000000.0
 35
-100000000000000000000.0
146
0.0
 13
0.0
 23
0.0
 33
0.0
 16
1.0
 26
0.0
 36
0.0
 17
0.0
 27
1.0
 37
0.0
 76
0
330
1B
  0
LAYOUT
  5
22
100
AcDbPlotSettings
  1

  2
none_device
  4

  6

 40
0.0
 41
0.0
 42
0.0
 43
0.0
 44
0.0
 45
0.0
 46
0.0
 47
0.0
 48
0.0
 49
0.0
140
0.0
141
0.0
142
1.0
143
1.0
 70
1712
 72
0
 73
0
 74
0
  7

 75
0
147
1.0
148
0.0
149
0.0
100
AcDbLayout
  1
Model
 70
1
 71
0
 10
0.0
 20
0.0
 11
12.0
 21
9.0
 12
0.0
 22
0.0
 32
0.0
 14
0.0
 24
0.0
 34
0.0
 15
0.0
 25
0.0
 35
0.0
146
0.0
 13
0.0
 23
0.0
 33
0.0
 16
1.0
 26
0.0
 36
0.0
 17
0.0
 27
1.0
 37
0.0
 76
0
330
1F
  0
LAYOUT
  5
26
100
AcDbPlotSettings
  1

  2
none_device
  4

  6

 40
0.0
 41
0.0
 42
0.0
 43
0.0
 44
0.0
 45
0.0
 46
0.0
 47
0.0
 48
0.0
 49
0.0
140
0.0
141
0.0
142
1.0
143
1.0
 70
688
 72
0
 73
0
 74
5
  7

 75
16
147
1.0
148
0.0
149
0.0
100
AcDbLayout
  1
Layout2
 70
1
 71
2
 10
0.0
 20
0.0
 11
12.0
 21
9.0
 12
0.0
 22
0.0
 32
0.0
 14
0.0
 24
0.0
 34
0.0
 15
0.0
 25
0.0
 35
0.0
146
0.0
 13
0.0
 23
0.0
 33
0.0
 16
1.0
 26
0.0
 36
0.0
 17
0.0
 27
1.0
 37
0.0
 76
0
330
23
  0
DICTIONARY
  5
319
100
AcDbDictionary
281
1
  3
DIMASSOC
350
31C
  3
HIDETEXT
350
31B
  0
DICTIONARYVAR
  5
31B
100
DictionaryVariables
280
0
  1
2
  0
DICTIONARYVAR
  5
31C
100
DictionaryVariables
280
0
  1
1
  0
DICTIONARY
  5
31A
100
AcDbDictionary
281
1
  3
ColorSettings/BackgroundColor
350
31D
  3
ColorSettings/ColorMode
350
31E
  3
Grid/DisplayGrid00
350
31F
  3
Grid/DisplayGrid01
350
320
  3
Grid/DisplayGrid02
350
321
  3
Grid/DisplayGrid03
350
322
  3
Grid/GridSpacingX00
350
323
  3
Grid/GridSpacingX01
350
324
  3
Grid/GridSpacingX02
350
325
  3
Grid/GridSpacingX03
350
326
  3
Grid/GridSpacingY00
350
327
  3
Grid/GridSpacingY01
350
328
  3
Grid/GridSpacingY02
350
329
  3
Grid/GridSpacingY03
350
32A
  3
Grid/IsometricGrid00
350
32B
  3
Grid/IsometricGrid01
350
32C
  3
Grid/IsometricGrid02
350
32D
  3
Grid/IsometricGrid03
350
32E
  3
Grid/IsometricProjection00
350
32F
  3
Grid/IsometricProjection01
350
330
  3
Grid/IsometricProjection02
350
331
  3
Grid/IsometricProjection03
350
332
  3
Grid/MetaGridSpacingX00
350
333
  3
Grid/MetaGridSpacingX01
350
334
  3
Grid/MetaGridSpacingX02
350
335
  3
Grid/MetaGridSpacingX03
350
336
  3
Grid/MetaGridSpacingY00
350
337
  3
Grid/MetaGridSpacingY01
350
338
  3
Grid/MetaGridSpacingY02
350
339
  3
Grid/MetaGridSpacingY03
350
33A
  3
MultiPageSettings/Columns
350
33B
  3
MultiPageSettings/GlueMarginsBottom
350
33C
  3
MultiPageSettings/GlueMarginsLeft
350
33D
  3
MultiPageSettings/GlueMarginsRight
350
33E
  3
MultiPageSettings/GlueMarginsTop
350
33F
  3
MultiPageSettings/PrintCropMarks
350
340
  3
MultiPageSettings/Rows
350
341
  3
PageSettings/OffsetX
350
342
  3
PageSettings/OffsetY
350
343
  3
PageSettings/PageOrientation
350
344
  3
PageSettings/PaperHeight
350
345
  3
PageSettings/PaperWidth
350
346
  3
PageSettings/Scale
350
347
  3
PageSettings/ShowPaperBorders
350
348
  3
PageTagSettings/EnablePageTags
350
349
  3
PageTagSettings/TagAlignment
350
34A
  3
PageTagSettings/TagFont
350
34B
  3
PageTagSettings/TagPosition
350
34C
  3
QCADVersion
350
34D
  3
UnitSettings/PaperUnit
350
34E
  3
ViewportCenter
350
34F
  3
ViewportHeight
350
350
  3
ViewportWidth
350
351
  0
XRECORD
  5
31D
330
31A
100
AcDbXrecord
280
1
1000
White
  0
XRECORD
  5
31E
330
31A
100
AcDbXrecord
280
1
1000
FullColor
  0
XRECORD
  5
31F
330
31A
100
AcDbXrecord
280
1
290
1
  0
XRECORD
  5
320
330
31A
100
AcDbXrecord
280
1
290
1
  0
XRECORD
  5
321
330
31A
100
AcDbXrecord
280
1
290
1
  0
XRECORD
  5
322
330
31A
100
AcDbXrecord
280
1
290
1
  0
XRECORD
  5
323
330
31A
100
AcDbXrecord
280
1
1000
auto
  0
XRECORD
  5
324
330
31A
100
AcDbXrecord
280
1
1000
auto
  0
XRECORD
  5
325
330
31A
100
AcDbXrecord
280
1
1000
auto
  0
XRECORD
  5
326
330
31A
100
AcDbXrecord
280
1
1000
auto
  0
XRECORD
  5
327
330
31A
100
AcDbXrecord
280
1
1000
auto
  0
XRECORD
  5
328
330
31A
100
AcDbXrecord
280
1
1000
auto
  0
XRECORD
  5
329
330
31A
100
AcDbXrecord
280
1
1000
auto
  0
XRECORD
  5
32A
330
31A
100
AcDbXrecord
280
1
1000
auto
  0
XRECORD
  5
32B
330
31A
100
AcDbXrecord
280
1
290
0
  0
XRECORD
  5
32C
330
31A
100
AcDbXrecord
280
1
290
0
  0
XRECORD
  5
32D
330
31A
100
AcDbXrecord
280
1
290
0
  0
XRECORD
  5
32E
330
31A
100
AcDbXrecord
280
1
290
0
  0
XRECORD
  5
32F
330
31A
100
AcDbXrecord
280
1
 90
65537
  0
XRECORD
  5
330
330
31A
100
AcDbXrecord
280
1
 90
65537
  0
XRECORD
  5
331
330
31A
100
AcDbXrecord
280
1
 90
65537
  0
XRECORD
  5
332
330
31A
100
AcDbXrecord
280
1
 90
65537
  0
XRECORD
  5
333
330
31A
100
AcDbXrecord
280
1
1000
auto
  0
XRECORD
  5
334
330
31A
100
AcDbXrecord
280
1
1000
auto
  0
XRECORD
  5
335
330
31A
100
AcDbXrecord
280
1
1000
auto
  0
XRECORD
  5
336
330
31A
100
AcDbXrecord
280
1
1000
auto
  0
XRECORD
  5
337
330
31A
100
AcDbXrecord
280
1
1000
auto
  0
XRECORD
  5
338
330
31A
100
AcDbXrecord
280
1
1000
auto
  0
XRECORD
  5
339
330
31A
100
AcDbXrecord
280
1
1000
auto
  0
XRECORD
  5
33A
330
31A
100
AcDbXrecord
280
1
1000
auto
  0
XRECORD
  5
33B
330
31A
100
AcDbXrecord
280
1
 90
1
  0
XRECORD
  5
33C
330
31A
100
AcDbXrecord
280
1
 40
0.5
  0
XRECORD
  5
33D
330
31A
100
AcDbXrecord
280
1
 40
0.5
  0
XRECORD
  5
33E
330
31A
100
AcDbXrecord
280
1
 40
0.5
  0
XRECORD
  5
33F
330
31A
100
AcDbXrecord
280
1
 40
0.5
  0
XRECORD
  5
340
330
31A
100
AcDbXrecord
280
1
290
0
  0
XRECORD
  5
341
330
31A
100
AcDbXrecord
280
1
 90
1
  0
XRECORD
  5
342
330
31A
100
AcDbXrecord
280
1
 40
0.0
  0
XRECORD
  5
343
330
31A
100
AcDbXrecord
280
1
 40
0.0
  0
XRECORD
  5
344
330
31A
100
AcDbXrecord
280
1
1000
Portrait
  0
XRECORD
  5
345
330
31A
100
AcDbXrecord
280
1
 40
36.0
  0
XRECORD
  5
346
330
31A
100
AcDbXrecord
280
1
 40
24.0000000000000036
  0
XRECORD
  5
347
330
31A
100
AcDbXrecord
280
1
1000
1:1
  0
XRECORD
  5
348
330
31A
100
AcDbXrecord
280
1
290
1
  0
XRECORD
  5
349
330
31A
100
AcDbXrecord
280
1
290
0
  0
XRECORD
  5
34A
330
31A
100
AcDbXrecord
280
1
1000
Inside
  0
XRECORD
  5
34B
330
31A
100
AcDbXrecord
280
1
1000
Arial,10,-1,5,50,0,0,0,0,0
  0
XRECORD
  5
34C
330
31A
100
AcDbXrecord
280
1
1000
TopLeft
  0
XRECORD
  5
34D
330
31A
100
AcDbXrecord
280
1
1000
3.32.6
  0
XRECORD
  5
34E
330
31A
100
AcDbXrecord
280
1
 90
1
  0
XRECORD
  5
350
330
31A
100
AcDbXrecord
280
1
 40
90.9895260430493522
  0
XRECORD
  5
351
330
31A
100
AcDbXrecord
280
1
 40
174.1026977645427678
  0
ENDSEC
  0
EOF
